<svg width="73" height="43" viewBox="0 0 73 43" fill="none" xmlns="http://www.w3.org/2000/svg">
<g filter="url(#filter0_i)">
<path fill-rule="evenodd" clip-rule="evenodd" d="M70.629 3.0699C71.1578 1.40798 70.629 0.19932 68.2872 0.19932H60.5064C58.5423 0.19932 57.6358 1.25691 57.107 2.39003C57.107 2.39003 53.1033 12.0594 47.5133 18.3293C45.7003 20.1423 44.8693 20.7467 43.8872 20.7467C43.3585 20.7467 42.6786 20.1423 42.6786 18.4804V2.99436C42.6786 1.03028 42.0742 0.123779 40.4123 0.123779H28.1746C26.9659 0.123779 26.2105 1.03028 26.2105 1.93678C26.2105 3.82532 29.0055 4.27857 29.3077 9.56649V21.0488C29.3077 23.5417 28.8544 23.995 27.8724 23.995C25.2284 23.995 18.8074 14.2501 14.9548 3.14545C14.1994 0.954738 13.4439 0.123779 11.4799 0.123779H3.62351C1.35726 0.123779 0.979553 1.18136 0.979553 2.31448C0.979553 4.35411 3.62352 14.6278 13.2929 28.2253C19.7139 37.5169 28.8544 42.5027 37.0885 42.5027C42.0742 42.5027 42.6786 41.3695 42.6786 39.481V32.4556C42.6786 30.1894 43.1318 29.8117 44.7182 29.8117C45.8513 29.8117 47.891 30.416 52.499 34.873C57.7869 40.1609 58.6934 42.5782 61.6395 42.5782H69.4203C71.6866 42.5782 72.7442 41.4451 72.1398 39.2544C71.46 37.0637 68.8916 33.8909 65.5677 30.1138C63.7547 27.9987 61.0352 25.6569 60.2043 24.5238C59.0711 23.0129 59.3733 22.4086 60.2043 21.0488C60.1287 21.0488 69.647 7.6024 70.629 3.0699Z" fill="#4382CF"/>
</g>
<defs>
<filter id="filter0_i" x="0.979553" y="0.123779" width="75.3279" height="46.4544" filterUnits="userSpaceOnUse" color-interpolation-filters="sRGB">
<feFlood flood-opacity="0" result="BackgroundImageFix"/>
<feBlend mode="normal" in="SourceGraphic" in2="BackgroundImageFix" result="shape"/>
<feColorMatrix in="SourceAlpha" type="matrix" values="0 0 0 0 0 0 0 0 0 0 0 0 0 0 0 0 0 0 127 0" result="hardAlpha"/>
<feOffset dx="4" dy="4"/>
<feGaussianBlur stdDeviation="3"/>
<feComposite in2="hardAlpha" operator="arithmetic" k2="-1" k3="1"/>
<feColorMatrix type="matrix" values="0 0 0 0 0.144001 0 0 0 0 0.244011 0 0 0 0 0.365234 0 0 0 0.45 0"/>
<feBlend mode="normal" in2="shape" result="effect1_innerShadow"/>
</filter>
</defs>
</svg>
