<svg width="38" height="38" viewBox="0 0 38 38" fill="none" xmlns="http://www.w3.org/2000/svg">
<g filter="url(#filter0_i)">
<path fill-rule="evenodd" clip-rule="evenodd" d="M18.609 36.9696H18.6013C15.5182 36.9685 12.4888 36.195 9.79814 34.7274L0.0325928 37.2891L2.64602 27.7432C1.03393 24.9494 0.185657 21.7804 0.18704 18.5337C0.191081 8.37675 8.45499 0.113281 18.6088 0.113281C23.5368 0.115408 28.162 2.03386 31.64 5.51592C35.118 8.9978 37.0324 13.6261 37.0304 18.5482C37.0263 28.7028 28.7657 36.9655 18.609 36.9696ZM27.2594 22.5143C27.5804 22.6695 27.7972 22.7743 27.8897 22.9288C28.0048 23.1207 28.0048 24.0423 27.6214 25.1177C27.2377 26.1928 25.3988 27.1741 24.5144 27.3062C23.7214 27.4248 22.7179 27.4743 21.6153 27.1238C20.9467 26.9117 20.0894 26.6285 18.9912 26.1542C14.6761 24.291 11.7599 20.1087 11.2088 19.3182C11.1702 19.2628 11.1432 19.2241 11.1281 19.204L11.1244 19.199C10.8808 18.874 9.2486 16.6963 9.2486 14.4424C9.2486 12.3222 10.2901 11.2109 10.7695 10.6994C10.8023 10.6643 10.8325 10.6321 10.8596 10.6025C11.2815 10.1417 11.7802 10.0265 12.087 10.0265C12.3939 10.0265 12.701 10.0293 12.9692 10.0428C13.0023 10.0445 13.0367 10.0443 13.0723 10.0441C13.3406 10.0425 13.675 10.0405 14.0049 10.8329C14.1317 11.1378 14.3174 11.5897 14.5131 12.0663L14.5134 12.0669C14.9094 13.0311 15.347 14.0965 15.424 14.2507C15.5391 14.4811 15.6158 14.7498 15.4624 15.0571C15.4394 15.1032 15.4181 15.1467 15.3977 15.1882C15.2825 15.4235 15.1977 15.5965 15.0021 15.8249C14.9252 15.9147 14.8457 16.0115 14.7662 16.1083C14.6079 16.3012 14.4495 16.494 14.3117 16.6314C14.0812 16.8609 13.8414 17.1099 14.1099 17.5707C14.3784 18.0316 15.3021 19.5388 16.6705 20.7594C18.1414 22.0714 19.4199 22.6259 20.0679 22.907C20.1944 22.9619 20.2969 23.0063 20.3721 23.044C20.8322 23.2745 21.1007 23.2359 21.3693 22.9288C21.6378 22.6216 22.5199 21.5847 22.8267 21.124C23.1335 20.6633 23.4405 20.74 23.8623 20.8936C24.2843 21.0473 26.5473 22.1607 27.0076 22.3911C27.0975 22.4361 27.1815 22.4767 27.2594 22.5143Z" fill="#25D366"/>
<path d="M27.0076 22.3911C26.5473 22.1607 24.2843 21.0473 23.8623 20.8936C23.4405 20.74 23.1335 20.6633 22.8267 21.124C22.5199 21.5847 21.6378 22.6216 21.3693 22.9288C21.1007 23.2359 20.8322 23.2745 20.3721 23.044C20.2969 23.0063 20.1944 22.9619 20.0679 22.907C19.4199 22.6259 18.1414 22.0714 16.6705 20.7594C15.3021 19.5388 14.3784 18.0316 14.1099 17.5707C13.8414 17.1099 14.0812 16.8609 14.3117 16.6314C14.4495 16.494 14.6079 16.3012 14.7662 16.1083C14.8457 16.0115 14.9252 15.9147 15.0021 15.8249C15.1977 15.5965 15.2825 15.4235 15.3977 15.1882C15.4181 15.1467 15.4394 15.1032 15.4624 15.0571C15.6158 14.7498 15.5391 14.4811 15.424 14.2507C15.347 14.0965 14.9094 13.0311 14.5134 12.0669L14.5131 12.0663C14.3174 11.5897 14.1317 11.1378 14.0049 10.8329C13.675 10.0405 13.3406 10.0425 13.0723 10.0441C13.0367 10.0443 13.0023 10.0445 12.9692 10.0428C12.701 10.0293 12.3939 10.0265 12.087 10.0265C11.7802 10.0265 11.2815 10.1417 10.8596 10.6025C10.8325 10.6321 10.8023 10.6643 10.7695 10.6994C10.2901 11.2109 9.2486 12.3222 9.2486 14.4424C9.2486 16.6963 10.8808 18.874 11.1244 19.199L11.1281 19.204C11.1432 19.2241 11.1702 19.2628 11.2088 19.3182C11.7599 20.1087 14.6761 24.291 18.9912 26.1542C20.0894 26.6285 20.9467 26.9117 21.6153 27.1238C22.7179 27.4743 23.7214 27.4248 24.5144 27.3062C25.3988 27.1741 27.2377 26.1928 27.6214 25.1177C28.0048 24.0423 28.0048 23.1207 27.8897 22.9288C27.7972 22.7743 27.5804 22.6695 27.2594 22.5143C27.1815 22.4767 27.0975 22.4361 27.0076 22.3911Z" fill="#25D366"/>
</g>
<g filter="url(#filter1_d)">
<path fill-rule="evenodd" clip-rule="evenodd" d="M27.3314 22.6171C27.6569 22.7748 27.8766 22.8814 27.9705 23.0384C28.0871 23.2336 28.0871 24.1705 27.6984 25.2637C27.3095 26.3567 25.4454 27.3543 24.5489 27.4886C23.745 27.6091 22.7277 27.6594 21.61 27.3032C20.9323 27.0875 20.0633 26.7996 18.95 26.3175C14.5758 24.4233 11.6197 20.1715 11.061 19.3679C11.0219 19.3116 10.9945 19.2722 10.9792 19.2518L10.9754 19.2468C10.7285 18.9164 9.07397 16.7025 9.07397 14.4112C9.07397 12.2557 10.1297 11.1259 10.6157 10.6059C10.649 10.5703 10.6796 10.5375 10.707 10.5075C11.1347 10.039 11.6402 9.92188 11.9513 9.92188C12.2623 9.92188 12.5737 9.92476 12.8456 9.93845C12.8791 9.94014 12.914 9.93994 12.9501 9.93972C13.222 9.93813 13.561 9.93613 13.8954 10.7417C14.024 11.0516 14.2122 11.511 14.4106 11.9956L14.4109 11.9962C14.8123 12.9764 15.2559 14.0595 15.334 14.2162C15.4507 14.4504 15.5284 14.7236 15.3729 15.036C15.3495 15.0829 15.3279 15.1271 15.3073 15.1693C15.1905 15.4085 15.1046 15.5844 14.9063 15.8166C14.8283 15.9079 14.7478 16.0063 14.6672 16.1047C14.5067 16.3007 14.3462 16.4968 14.2064 16.6364C13.9728 16.8698 13.7296 17.1229 14.0018 17.5914C14.274 18.0599 15.2104 19.5922 16.5975 20.833C18.0886 22.1668 19.3845 22.7305 20.0414 23.0163C20.1697 23.0721 20.2736 23.1173 20.3498 23.1556C20.8163 23.3899 21.0885 23.3507 21.3607 23.0384C21.6329 22.7262 22.5271 21.672 22.8381 21.2036C23.1491 20.7353 23.4603 20.8133 23.8879 20.9694C24.3156 21.1257 26.6097 22.2576 27.0762 22.4918C27.1673 22.5376 27.2525 22.5789 27.3314 22.6171Z" fill="#F4F8FC"/>
<path d="M27.0762 22.4918C26.6097 22.2576 24.3156 21.1257 23.8879 20.9694C23.4603 20.8133 23.1491 20.7353 22.8381 21.2036C22.5271 21.672 21.6329 22.7262 21.3607 23.0384C21.0885 23.3507 20.8163 23.3899 20.3498 23.1556C20.2736 23.1173 20.1697 23.0721 20.0414 23.0163C19.3845 22.7305 18.0886 22.1668 16.5975 20.833C15.2104 19.5922 14.274 18.0599 14.0018 17.5914C13.7296 17.1229 13.9728 16.8698 14.2064 16.6364C14.3462 16.4968 14.5067 16.3007 14.6672 16.1047C14.7478 16.0063 14.8283 15.9079 14.9063 15.8166C15.1046 15.5844 15.1905 15.4085 15.3073 15.1693C15.3279 15.1271 15.3495 15.0829 15.3729 15.036C15.5284 14.7236 15.4507 14.4504 15.334 14.2162C15.2559 14.0595 14.8123 12.9764 14.4109 11.9962L14.4106 11.9956C14.2122 11.511 14.024 11.0516 13.8954 10.7417C13.561 9.93613 13.222 9.93813 12.9501 9.93972C12.914 9.93994 12.8791 9.94014 12.8456 9.93845C12.5737 9.92476 12.2623 9.92188 11.9513 9.92188C11.6402 9.92188 11.1347 10.039 10.707 10.5075C10.6796 10.5375 10.649 10.5703 10.6157 10.6059C10.1297 11.1259 9.07397 12.2557 9.07397 14.4112C9.07397 16.7025 10.7285 18.9164 10.9754 19.2468L10.9792 19.2518C10.9945 19.2722 11.0219 19.3116 11.061 19.3679C11.6197 20.1715 14.5758 24.4233 18.95 26.3175C20.0633 26.7996 20.9323 27.0875 21.61 27.3032C22.7277 27.6594 23.745 27.6091 24.5489 27.4886C25.4454 27.3543 27.3095 26.3567 27.6984 25.2637C28.0871 24.1705 28.0871 23.2336 27.9705 23.0384C27.8766 22.8814 27.6569 22.7748 27.3314 22.6171C27.2525 22.5789 27.1673 22.5376 27.0762 22.4918Z" fill="#F4F8FC"/>
</g>
<defs>
<filter id="filter0_i" x="0.0325928" y="0.113281" width="36.9978" height="37.1758" filterUnits="userSpaceOnUse" color-interpolation-filters="sRGB">
<feFlood flood-opacity="0" result="BackgroundImageFix"/>
<feBlend mode="normal" in="SourceGraphic" in2="BackgroundImageFix" result="shape"/>
<feColorMatrix in="SourceAlpha" type="matrix" values="0 0 0 0 0 0 0 0 0 0 0 0 0 0 0 0 0 0 127 0" result="hardAlpha"/>
<feOffset/>
<feGaussianBlur stdDeviation="10"/>
<feComposite in2="hardAlpha" operator="arithmetic" k2="-1" k3="1"/>
<feColorMatrix type="matrix" values="0 0 0 0 0.00672299 0 0 0 0 0.394141 0 0 0 0 0.151448 0 0 0 0.6 0"/>
<feBlend mode="normal" in2="shape" result="effect1_innerShadow"/>
</filter>
<filter id="filter1_d" x="5.07397" y="6.92188" width="30.9644" height="29.6565" filterUnits="userSpaceOnUse" color-interpolation-filters="sRGB">
<feFlood flood-opacity="0" result="BackgroundImageFix"/>
<feColorMatrix in="SourceAlpha" type="matrix" values="0 0 0 0 0 0 0 0 0 0 0 0 0 0 0 0 0 0 127 0"/>
<feOffset dx="2" dy="3"/>
<feGaussianBlur stdDeviation="3"/>
<feColorMatrix type="matrix" values="0 0 0 0 0.00784314 0 0 0 0 0.396078 0 0 0 0 0.152941 0 0 0 0.6 0"/>
<feBlend mode="normal" in2="BackgroundImageFix" result="effect1_dropShadow"/>
<feBlend mode="normal" in="SourceGraphic" in2="effect1_dropShadow" result="shape"/>
</filter>
</defs>
</svg>
