<svg width="57" height="57" viewBox="0 0 57 57" fill="none" xmlns="http://www.w3.org/2000/svg">
<g filter="url(#filter0_i)">
<path fill-rule="evenodd" clip-rule="evenodd" d="M28.4066 56.36H28.395C23.6804 56.3583 19.0478 55.1754 14.9333 52.9311L0 56.8485L3.9964 42.2511C1.53122 37.9789 0.234063 33.133 0.236177 28.1681C0.242357 12.6363 12.8794 0 28.4063 0C35.9421 0.00325236 43.015 2.9369 48.3334 8.2616C53.6519 13.586 56.5793 20.6635 56.5763 28.1903C56.5701 43.7186 43.9381 56.3536 28.4066 56.36ZM41.6346 34.2553C42.1256 34.4925 42.4571 34.6527 42.5986 34.889C42.7745 35.1825 42.7745 36.5918 42.1883 38.2362C41.6015 39.8803 38.7895 41.3809 37.4371 41.5829C36.2245 41.7642 34.6899 41.8399 33.0038 41.304C31.9815 40.9797 30.6705 40.5466 28.9912 39.8213C22.3925 36.972 17.9332 30.5765 17.0904 29.3678C17.0314 29.2831 16.9901 29.2239 16.967 29.1931L16.9613 29.1856C16.5889 28.6886 14.0929 25.3584 14.0929 21.9119C14.0929 18.6697 15.6856 16.9702 16.4187 16.188C16.4689 16.1344 16.5151 16.0851 16.5564 16.0399C17.2016 15.3353 17.9642 15.1591 18.4334 15.1591C18.9026 15.1591 19.3724 15.1634 19.7824 15.184C19.8331 15.1866 19.8857 15.1863 19.9401 15.1859C20.3503 15.1835 20.8617 15.1805 21.3661 16.3923C21.5601 16.8585 21.844 17.5495 22.1434 18.2784L22.1437 18.2792C22.7494 19.7537 23.4185 21.3829 23.5363 21.6186C23.7123 21.9709 23.8296 22.3818 23.595 22.8518C23.5597 22.9223 23.5272 22.9888 23.496 23.0523C23.3198 23.4121 23.1902 23.6767 22.8911 24.0259C22.7735 24.1632 22.6519 24.3113 22.5304 24.4593C22.2882 24.7542 22.0461 25.0491 21.8353 25.2591C21.4829 25.6101 21.1161 25.9909 21.5267 26.6956C21.9373 27.4003 23.3499 29.7051 25.4424 31.5716C27.6917 33.5779 29.6466 34.4259 30.6375 34.8557C30.831 34.9396 30.9878 35.0076 31.1028 35.0652C31.8064 35.4176 32.217 35.3586 32.6276 34.889C33.0382 34.4193 34.3872 32.8336 34.8563 32.1291C35.3255 31.4247 35.7949 31.542 36.4399 31.7768C37.0853 32.0119 40.5458 33.7145 41.2497 34.0668C41.3871 34.1356 41.5156 34.1977 41.6346 34.2553Z" fill="#25D366"/>
<path d="M41.2497 34.0668C40.5458 33.7145 37.0853 32.0119 36.4399 31.7768C35.7949 31.542 35.3255 31.4247 34.8563 32.1291C34.3872 32.8336 33.0382 34.4193 32.6276 34.889C32.217 35.3586 31.8064 35.4176 31.1028 35.0652C30.9878 35.0076 30.831 34.9396 30.6375 34.8557C29.6466 34.4259 27.6917 33.5779 25.4424 31.5716C23.3499 29.7051 21.9373 27.4003 21.5267 26.6956C21.1161 25.9909 21.4829 25.6101 21.8353 25.2591C22.0461 25.0491 22.2882 24.7542 22.5304 24.4593C22.6519 24.3113 22.7735 24.1632 22.8911 24.0259C23.1902 23.6767 23.3198 23.4121 23.496 23.0523C23.5272 22.9888 23.5597 22.9223 23.595 22.8518C23.8296 22.3818 23.7123 21.9709 23.5363 21.6186C23.4185 21.3829 22.7494 19.7537 22.1437 18.2792L22.1434 18.2784C21.844 17.5495 21.5601 16.8585 21.3661 16.3923C20.8617 15.1805 20.3503 15.1835 19.9401 15.1859C19.8857 15.1863 19.8331 15.1866 19.7824 15.184C19.3724 15.1634 18.9026 15.1591 18.4334 15.1591C17.9642 15.1591 17.2016 15.3353 16.5564 16.0399C16.5151 16.0851 16.4689 16.1344 16.4187 16.188C15.6856 16.9702 14.0929 18.6697 14.0929 21.9119C14.0929 25.3584 16.5889 28.6886 16.9613 29.1856L16.967 29.1931C16.9901 29.2239 17.0314 29.2831 17.0904 29.3678C17.9332 30.5765 22.3925 36.972 28.9912 39.8213C30.6705 40.5466 31.9815 40.9797 33.0038 41.304C34.6899 41.8399 36.2245 41.7642 37.4371 41.5829C38.7895 41.3809 41.6015 39.8803 42.1883 38.2362C42.7745 36.5918 42.7745 35.1825 42.5986 34.889C42.4571 34.6527 42.1256 34.4925 41.6346 34.2553C41.5156 34.1977 41.3871 34.1356 41.2497 34.0668Z" fill="#25D366"/>
</g>
<g filter="url(#filter1_d)">
<path fill-rule="evenodd" clip-rule="evenodd" d="M41.7447 34.4133C42.2424 34.6545 42.5784 34.8174 42.7219 35.0576C42.9002 35.356 42.9002 36.7886 42.306 38.4604C41.7111 40.1318 38.8607 41.6573 37.4897 41.8627C36.2605 42.047 34.7049 42.1239 32.9957 41.5791C31.9594 41.2494 30.6304 40.8091 28.9281 40.0718C22.2391 37.1752 17.7187 30.6735 16.8643 29.4447C16.8045 29.3586 16.7626 29.2984 16.7393 29.2671L16.7335 29.2594C16.3559 28.7542 13.8258 25.3687 13.8258 21.8649C13.8258 18.5689 15.4402 16.8412 16.1834 16.046C16.2343 15.9915 16.2811 15.9414 16.323 15.8955C16.977 15.1791 17.7501 15 18.2257 15C18.7013 15 19.1775 15.0044 19.5932 15.0253C19.6445 15.0279 19.6979 15.0276 19.7531 15.0273C20.1689 15.0248 20.6872 15.0218 21.1986 16.2537C21.3953 16.7276 21.683 17.4301 21.9865 18.1711L21.9869 18.172C22.6008 19.671 23.2791 21.3271 23.3985 21.5668C23.5769 21.925 23.6958 22.3427 23.458 22.8205C23.4223 22.8921 23.3892 22.9597 23.3577 23.0243C23.1791 23.39 23.0477 23.6591 22.7445 24.0141C22.6253 24.1537 22.502 24.3042 22.3788 24.4546C22.1334 24.7544 21.8879 25.0542 21.6742 25.2678C21.317 25.6246 20.9452 26.0117 21.3614 26.7281C21.7776 27.4445 23.2095 29.7876 25.3307 31.6851C27.6108 33.7247 29.5925 34.5868 30.597 35.0237C30.7932 35.109 30.9521 35.1782 31.0686 35.2367C31.7819 35.595 32.1981 35.535 32.6144 35.0576C33.0306 34.58 34.398 32.9681 34.8736 32.2518C35.3492 31.5357 35.825 31.655 36.4789 31.8937C37.1331 32.1327 40.641 33.8636 41.3545 34.2217C41.4938 34.2917 41.624 34.3548 41.7447 34.4133Z" fill="#F4F8FC"/>
<path d="M41.3545 34.2217C40.641 33.8636 37.1331 32.1327 36.4789 31.8937C35.825 31.655 35.3492 31.5357 34.8736 32.2518C34.398 32.9681 33.0306 34.58 32.6144 35.0576C32.1981 35.535 31.7819 35.595 31.0686 35.2367C30.9521 35.1782 30.7932 35.109 30.597 35.0237C29.5925 34.5868 27.6108 33.7247 25.3307 31.6851C23.2095 29.7876 21.7776 27.4445 21.3614 26.7281C20.9452 26.0117 21.317 25.6246 21.6742 25.2678C21.8879 25.0542 22.1334 24.7544 22.3788 24.4546C22.502 24.3042 22.6253 24.1537 22.7445 24.0141C23.0477 23.6591 23.1791 23.39 23.3577 23.0243C23.3892 22.9597 23.4223 22.8921 23.458 22.8205C23.6958 22.3427 23.5769 21.925 23.3985 21.5668C23.2791 21.3271 22.6008 19.671 21.9869 18.172L21.9865 18.1711C21.683 17.4301 21.3953 16.7276 21.1986 16.2537C20.6872 15.0218 20.1689 15.0248 19.7531 15.0273C19.6979 15.0276 19.6445 15.0279 19.5932 15.0253C19.1775 15.0044 18.7013 15 18.2257 15C17.7501 15 16.977 15.1791 16.323 15.8955C16.2811 15.9414 16.2343 15.9915 16.1834 16.046C15.4402 16.8412 13.8258 18.5689 13.8258 21.8649C13.8258 25.3687 16.3559 28.7542 16.7335 29.2594L16.7393 29.2671C16.7626 29.2984 16.8045 29.3586 16.8643 29.4447C17.7187 30.6735 22.2391 37.1752 28.9281 40.0718C30.6304 40.8091 31.9594 41.2494 32.9957 41.5791C34.7049 42.1239 36.2605 42.047 37.4897 41.8627C38.8607 41.6573 41.7111 40.1318 42.306 38.4604C42.9002 36.7886 42.9002 35.356 42.7219 35.0576C42.5784 34.8174 42.2424 34.6545 41.7447 34.4133C41.624 34.3548 41.4938 34.2917 41.3545 34.2217Z" fill="#F4F8FC"/>
</g>
<defs>
<filter id="filter0_i" x="0" y="0" width="56.5764" height="56.8485" filterUnits="userSpaceOnUse" color-interpolation-filters="sRGB">
<feFlood flood-opacity="0" result="BackgroundImageFix"/>
<feBlend mode="normal" in="SourceGraphic" in2="BackgroundImageFix" result="shape"/>
<feColorMatrix in="SourceAlpha" type="matrix" values="0 0 0 0 0 0 0 0 0 0 0 0 0 0 0 0 0 0 127 0" result="hardAlpha"/>
<feOffset/>
<feGaussianBlur stdDeviation="10"/>
<feComposite in2="hardAlpha" operator="arithmetic" k2="-1" k3="1"/>
<feColorMatrix type="matrix" values="0 0 0 0 0.00672299 0 0 0 0 0.394141 0 0 0 0 0.151448 0 0 0 0.6 0"/>
<feBlend mode="normal" in2="shape" result="effect1_innerShadow"/>
</filter>
<filter id="filter1_d" x="9.82581" y="12" width="41" height="39" filterUnits="userSpaceOnUse" color-interpolation-filters="sRGB">
<feFlood flood-opacity="0" result="BackgroundImageFix"/>
<feColorMatrix in="SourceAlpha" type="matrix" values="0 0 0 0 0 0 0 0 0 0 0 0 0 0 0 0 0 0 127 0"/>
<feOffset dx="2" dy="3"/>
<feGaussianBlur stdDeviation="3"/>
<feColorMatrix type="matrix" values="0 0 0 0 0.00784314 0 0 0 0 0.396078 0 0 0 0 0.152941 0 0 0 0.6 0"/>
<feBlend mode="normal" in2="BackgroundImageFix" result="effect1_dropShadow"/>
<feBlend mode="normal" in="SourceGraphic" in2="effect1_dropShadow" result="shape"/>
</filter>
</defs>
</svg>
