<svg width="48" height="28" viewBox="0 0 48 28" fill="none" xmlns="http://www.w3.org/2000/svg">
<g filter="url(#filter0_i)">
<path fill-rule="evenodd" clip-rule="evenodd" d="M46.3047 2.10751C46.6505 1.02071 46.3047 0.230308 44.7733 0.230308H39.6851C38.4007 0.230308 37.8079 0.92191 37.4621 1.66291C37.4621 1.66291 34.8439 7.98613 31.1883 12.0863C30.0027 13.2719 29.4593 13.6671 28.8171 13.6671C28.4713 13.6671 28.0267 13.2719 28.0267 12.1851V2.05811C28.0267 0.773708 27.6315 0.180908 26.5447 0.180908H18.5419C17.7515 0.180908 17.2575 0.773707 17.2575 1.36651C17.2575 2.60151 19.0853 2.89792 19.2829 6.35593V13.8647C19.2829 15.4949 18.9865 15.7913 18.3443 15.7913C16.6153 15.7913 12.4162 9.41873 9.89684 2.15691C9.40284 0.72431 8.90884 0.180908 7.62443 0.180908H2.48682C1.00481 0.180908 0.757812 0.872507 0.757812 1.61351C0.757812 2.94731 2.48682 9.66573 8.81004 18.5578C13.009 24.634 18.9865 27.8944 24.3711 27.8944C27.6315 27.8944 28.0267 27.1534 28.0267 25.9184V21.3242C28.0267 19.8422 28.3231 19.5952 29.3605 19.5952C30.1015 19.5952 31.4353 19.9904 34.4487 22.905C37.9067 26.363 38.4995 27.9438 40.4261 27.9438H45.5143C46.9963 27.9438 47.6879 27.2028 47.2927 25.7702C46.8481 24.3376 45.1685 22.2628 42.9949 19.7928C41.8093 18.4096 40.0309 16.8782 39.4875 16.1372C38.7465 15.1492 38.9441 14.7539 39.4875 13.8647C39.4381 13.8647 45.6625 5.07152 46.3047 2.10751Z" fill="#4382CF"/>
</g>
<defs>
<filter id="filter0_i" x="0.757812" y="0.180908" width="50.6446" height="31.7629" filterUnits="userSpaceOnUse" color-interpolation-filters="sRGB">
<feFlood flood-opacity="0" result="BackgroundImageFix"/>
<feBlend mode="normal" in="SourceGraphic" in2="BackgroundImageFix" result="shape"/>
<feColorMatrix in="SourceAlpha" type="matrix" values="0 0 0 0 0 0 0 0 0 0 0 0 0 0 0 0 0 0 127 0" result="hardAlpha"/>
<feOffset dx="4" dy="4"/>
<feGaussianBlur stdDeviation="3"/>
<feComposite in2="hardAlpha" operator="arithmetic" k2="-1" k3="1"/>
<feColorMatrix type="matrix" values="0 0 0 0 0.144001 0 0 0 0 0.244011 0 0 0 0 0.365234 0 0 0 0.45 0"/>
<feBlend mode="normal" in2="shape" result="effect1_innerShadow"/>
</filter>
</defs>
</svg>
