<svg width="59" height="48" viewBox="0 0 59 48" fill="none" xmlns="http://www.w3.org/2000/svg">
<g filter="url(#filter0_i)">
<path d="M56.2139 15.517C57.2584 15.517 58.1053 14.6703 58.1053 13.6257V2.11425H46.5584C45.5159 2.11425 44.6707 2.95941 44.6707 4.00197C44.6707 5.04453 45.5159 5.88969 46.5584 5.88969H51.6488L46.2685 11.2604C42.8949 4.58868 35.9687 0 27.9853 0C16.6977 0 7.51466 9.16754 7.51466 20.436C7.51466 22.7166 7.89665 24.9084 8.59028 26.9584L1.3394 34.1967C0.600047 34.9347 0.600048 36.1327 1.3394 36.8708C2.07694 37.6071 3.27136 37.607 4.00889 36.8708L10.2569 30.6335C13.7992 36.7459 20.4165 40.8704 27.9851 40.8704C32.9494 40.8704 37.5057 39.0962 41.0541 36.1509L51.5896 46.6676C52.3272 47.4039 53.5216 47.4039 54.2591 46.6676C54.9985 45.9295 54.9984 44.7315 54.2591 43.9934L43.7282 33.4814C46.6787 29.9395 48.4563 25.3914 48.4563 20.4357C48.4563 18.5971 48.2079 16.8163 47.7495 15.1202L54.3227 8.55893V13.6257C54.3227 14.6702 55.1694 15.5169 56.2139 15.517ZM11.2965 20.436C11.2965 11.2493 18.7829 3.77545 27.9851 3.77545C34.943 3.77545 40.9171 8.04925 43.4188 14.1046L34.2638 23.2431L23.287 12.2861L11.6603 23.8933C11.4233 22.7775 11.2965 21.6215 11.2965 20.436ZM44.6745 20.436C44.6745 29.6219 37.1878 37.0953 27.9853 37.0953C21.4502 37.0953 15.7837 33.3243 13.0463 27.8494L23.2875 17.6255L34.2643 28.5821L44.5366 18.3285C44.6241 19.0192 44.6745 19.7217 44.6745 20.436Z" fill="white"/>
</g>
<g filter="url(#filter1_d)">
<circle cx="27.72" cy="20.52" r="16.92" fill="#F4F8FC"/>
</g>
<path d="M58.1053 2.11407V13.6255C58.1053 14.6701 57.2584 15.5168 56.2139 15.5168C55.1694 15.5167 54.3227 14.67 54.3227 13.6255V8.55876L47.7495 15.12L44.5366 18.3284L37.7966 25.0561C35.8447 27.0044 32.6839 27.0044 30.732 25.0561L24.7006 19.0358C23.9198 18.2564 22.6554 18.2565 21.8746 19.0359L13.0463 27.8493L10.2569 30.6333L4.00889 36.8706C3.27136 37.6069 2.07694 37.6069 1.3394 36.8706C0.600049 36.1326 0.600047 34.9346 1.3394 34.1965L8.59028 26.9583L11.6603 23.8931L19.7547 15.8123C21.7065 13.8637 24.8676 13.8636 26.8196 15.8121L32.8508 21.8326C33.6316 22.6119 34.896 22.6119 35.6767 21.8326L43.4188 14.1044L46.2685 11.2602L51.6488 5.88952H46.5584C45.5159 5.88952 44.6707 5.04436 44.6707 4.0018C44.6707 2.95924 45.5159 2.11407 46.5584 2.11407H58.1053Z" fill="#148AFF"/>
<defs>
<filter id="filter0_i" x="0.784889" y="0" width="61.3204" height="50.2198" filterUnits="userSpaceOnUse" color-interpolation-filters="sRGB">
<feFlood flood-opacity="0" result="BackgroundImageFix"/>
<feBlend mode="normal" in="SourceGraphic" in2="BackgroundImageFix" result="shape"/>
<feColorMatrix in="SourceAlpha" type="matrix" values="0 0 0 0 0 0 0 0 0 0 0 0 0 0 0 0 0 0 127 0" result="hardAlpha"/>
<feOffset dx="4" dy="3"/>
<feGaussianBlur stdDeviation="3"/>
<feComposite in2="hardAlpha" operator="arithmetic" k2="-1" k3="1"/>
<feColorMatrix type="matrix" values="0 0 0 0 0.578462 0 0 0 0 0.683882 0 0 0 0 0.764974 0 0 0 0.6 0"/>
<feBlend mode="normal" in2="shape" result="effect1_innerShadow"/>
</filter>
<filter id="filter1_d" x="10.8" y="3.59998" width="35.84" height="35.84" filterUnits="userSpaceOnUse" color-interpolation-filters="sRGB">
<feFlood flood-opacity="0" result="BackgroundImageFix"/>
<feColorMatrix in="SourceAlpha" type="matrix" values="0 0 0 0 0 0 0 0 0 0 0 0 0 0 0 0 0 0 127 0"/>
<feOffset dx="1" dy="1"/>
<feGaussianBlur stdDeviation="0.5"/>
<feColorMatrix type="matrix" values="0 0 0 0 0.760784 0 0 0 0 0.819608 0 0 0 0 0.866667 0 0 0 1 0"/>
<feBlend mode="normal" in2="BackgroundImageFix" result="effect1_dropShadow"/>
<feBlend mode="normal" in="SourceGraphic" in2="effect1_dropShadow" result="shape"/>
</filter>
</defs>
</svg>
