<svg width="61" height="51" viewBox="0 0 61 51" fill="none" xmlns="http://www.w3.org/2000/svg">
<path d="M50.6095 41.9596C51.3765 41.9596 51.9848 41.3365 51.9848 40.5808V20.6422C51.9848 19.8733 51.3633 19.2634 50.6095 19.2634C49.8425 19.2634 49.2342 19.8865 49.2342 20.6422V40.5808C49.2209 41.3497 49.8425 41.9596 50.6095 41.9596Z" fill="#148AFF"/>
<path d="M19.8364 42.5032C22.2697 42.5032 24.5972 41.7078 26.5412 40.223C26.8586 39.9844 27.4933 39.0696 26.6734 38.1549L19.929 31.3673V21.7824C19.8232 20.4832 18.7653 20.3639 18.3685 20.4169C12.8936 21.146 8.76764 25.8656 8.76764 31.407C8.76764 37.5185 13.74 42.5032 19.8364 42.5032ZM17.1651 23.5191V31.3938C17.1651 32.1097 17.4428 32.7858 17.9453 33.2895L23.4996 38.8575C22.3623 39.4276 21.1192 39.7192 19.8232 39.7192C15.2344 39.7192 11.5183 35.9807 11.5183 31.3938C11.5315 27.8011 13.859 24.6459 17.1651 23.5191Z" fill="#148AFF"/>
<g filter="url(#filter0_i)">
<path d="M28.4983 36.5757C29.4372 37.3976 30.3232 36.748 30.5613 36.4431C32.0556 34.4943 32.8359 32.1611 32.8359 29.7218C32.8359 24.1935 28.7099 19.4608 23.235 18.7316C22.6399 18.6521 21.7274 18.9968 21.6745 20.0971V29.1782C21.6745 29.5494 21.82 29.8941 22.0845 30.1592L28.4983 36.5757ZM24.4516 21.8338C27.7577 22.9606 30.0984 26.1026 30.0984 29.7085C30.0984 31.0077 29.8075 32.2539 29.2388 33.394L24.4648 28.6082V21.8338H24.4516Z" fill="white"/>
</g>
<g filter="url(#filter1_i)">
<path fill-rule="evenodd" clip-rule="evenodd" d="M54.286 0H6.46671C2.89614 0 0 2.91656 0 6.48271C0 8.9883 1.42823 11.1757 3.51768 12.2495V49.6213C3.51768 50.3902 4.13923 51 4.89302 51H29.0143H31.7649H55.8862C56.6532 51 57.2615 50.3769 57.2615 49.6213V12.2495C59.3377 11.1757 60.766 8.9883 60.766 6.48271C60.766 2.91656 57.8566 0 54.286 0ZM6.25513 48.2425H54.4976V12.9787H6.25513V48.2425ZM6.46671 10.208H54.286C56.3358 10.208 58.0021 8.53756 58.0153 6.48271C58.0153 4.42787 56.349 2.75747 54.2992 2.75747H6.46671C4.41694 2.75747 2.75067 4.42787 2.75067 6.48271C2.75067 8.53756 4.41694 10.208 6.46671 10.208Z" fill="white"/>
</g>
<g filter="url(#filter2_i)">
<path d="M44.6058 41.9592C45.3728 41.9592 45.9811 41.3361 45.9811 40.5805V25.4144C45.9811 24.6455 45.3596 24.0356 44.6058 24.0356C43.8388 24.0356 43.2305 24.6587 43.2305 25.4144V40.5805C43.2305 41.3494 43.852 41.9592 44.6058 41.9592Z" fill="white"/>
</g>
<path d="M38.6143 41.9606C39.3813 41.9606 39.9896 41.3375 39.9896 40.5818V29.0482C39.9896 28.2793 39.3681 27.6694 38.6143 27.6694C37.8473 27.6694 37.239 28.2925 37.239 29.0482V40.5818C37.239 41.3507 37.8605 41.9606 38.6143 41.9606Z" fill="#148AFF"/>
<defs>
<filter id="filter0_i" x="21.6745" y="18.7207" width="12.1614" height="19.2553" filterUnits="userSpaceOnUse" color-interpolation-filters="sRGB">
<feFlood flood-opacity="0" result="BackgroundImageFix"/>
<feBlend mode="normal" in="SourceGraphic" in2="BackgroundImageFix" result="shape"/>
<feColorMatrix in="SourceAlpha" type="matrix" values="0 0 0 0 0 0 0 0 0 0 0 0 0 0 0 0 0 0 127 0" result="hardAlpha"/>
<feOffset dx="1" dy="1"/>
<feGaussianBlur stdDeviation="1"/>
<feComposite in2="hardAlpha" operator="arithmetic" k2="-1" k3="1"/>
<feColorMatrix type="matrix" values="0 0 0 0 0.578462 0 0 0 0 0.683882 0 0 0 0 0.764974 0 0 0 0.7 0"/>
<feBlend mode="normal" in2="shape" result="effect1_innerShadow"/>
</filter>
<filter id="filter1_i" x="0" y="0" width="62.766" height="53" filterUnits="userSpaceOnUse" color-interpolation-filters="sRGB">
<feFlood flood-opacity="0" result="BackgroundImageFix"/>
<feBlend mode="normal" in="SourceGraphic" in2="BackgroundImageFix" result="shape"/>
<feColorMatrix in="SourceAlpha" type="matrix" values="0 0 0 0 0 0 0 0 0 0 0 0 0 0 0 0 0 0 127 0" result="hardAlpha"/>
<feOffset dx="2" dy="2"/>
<feGaussianBlur stdDeviation="2"/>
<feComposite in2="hardAlpha" operator="arithmetic" k2="-1" k3="1"/>
<feColorMatrix type="matrix" values="0 0 0 0 0.578462 0 0 0 0 0.683882 0 0 0 0 0.764974 0 0 0 0.6 0"/>
<feBlend mode="normal" in2="shape" result="effect1_innerShadow"/>
</filter>
<filter id="filter2_i" x="43.2305" y="24.0356" width="3.75067" height="18.9236" filterUnits="userSpaceOnUse" color-interpolation-filters="sRGB">
<feFlood flood-opacity="0" result="BackgroundImageFix"/>
<feBlend mode="normal" in="SourceGraphic" in2="BackgroundImageFix" result="shape"/>
<feColorMatrix in="SourceAlpha" type="matrix" values="0 0 0 0 0 0 0 0 0 0 0 0 0 0 0 0 0 0 127 0" result="hardAlpha"/>
<feOffset dx="1" dy="1"/>
<feGaussianBlur stdDeviation="1"/>
<feComposite in2="hardAlpha" operator="arithmetic" k2="-1" k3="1"/>
<feColorMatrix type="matrix" values="0 0 0 0 0.578462 0 0 0 0 0.683882 0 0 0 0 0.764974 0 0 0 0.7 0"/>
<feBlend mode="normal" in2="shape" result="effect1_innerShadow"/>
</filter>
</defs>
</svg>
