<svg width="64" height="48" viewBox="0 0 64 48" fill="none" xmlns="http://www.w3.org/2000/svg">
<g filter="url(#filter0_i)">
<path d="M3.86188 11.289V1.53969C3.86188 0.68932 4.56161 0 5.42483 0H58.329C59.192 0 59.8919 0.68932 59.8919 1.53969V38.766C59.8919 39.6164 59.192 40.3057 58.329 40.3057H39.4343H33.5087H5.42483C4.56161 40.3057 3.86188 39.6164 3.86188 38.766V10.8C3.86188 9.94962 4.56161 9.2603 5.42483 9.2603C6.28805 9.2603 6.98778 9.94962 6.98778 10.8V37.2263H33.5087H39.4343H56.766V3.07938H6.98778V11.2892C6.98778 12.1395 6.28805 12.8289 5.42483 12.8289C4.56161 12.8289 3.86188 12.1394 3.86188 11.289Z" fill="white"/>
</g>
<path d="M1.60592 18.2186H11.5502L15.8525 24.9451C16.1668 25.4365 16.7364 25.7111 17.3222 25.6572C17.9092 25.6024 18.415 25.2268 18.63 24.6859L22.9339 13.8633L27.8535 29.2969C28.0585 29.9403 28.6637 30.3753 29.3442 30.3753C29.3619 30.3753 29.3799 30.3749 29.3977 30.3743C30.0996 30.3509 30.6996 29.869 30.8642 29.1963L33.5501 18.2185H40.0776C40.9407 18.2185 41.6406 17.5292 41.6406 16.6788C41.6406 15.8284 40.9407 15.1391 40.0776 15.1391H32.3192C31.5971 15.1391 30.9689 15.6264 30.7997 16.318L29.1465 23.0745L24.5877 8.77232C24.3891 8.14936 23.8131 7.71732 23.1506 7.69484C22.4896 7.67467 21.8832 8.06375 21.6412 8.67208L16.848 20.7251L13.735 15.8583C13.4489 15.4108 12.9497 15.1394 12.4128 15.1394H1.60592C0.742702 15.1394 0.0429688 15.8287 0.0429688 16.6791C0.0429688 17.5295 0.742702 18.2186 1.60592 18.2186ZM62.1481 44.9204H1.68813C0.824913 44.9204 0.12518 45.6097 0.12518 46.4601C0.12518 47.3105 0.824913 47.9998 1.68813 47.9998H62.1481C63.0111 47.9998 63.711 47.3105 63.711 46.4601C63.711 45.6097 63.0111 44.9204 62.1481 44.9204Z" fill="#148AFF"/>
<defs>
<filter id="filter0_i" x="3.86188" y="0" width="60.0301" height="43.3057" filterUnits="userSpaceOnUse" color-interpolation-filters="sRGB">
<feFlood flood-opacity="0" result="BackgroundImageFix"/>
<feBlend mode="normal" in="SourceGraphic" in2="BackgroundImageFix" result="shape"/>
<feColorMatrix in="SourceAlpha" type="matrix" values="0 0 0 0 0 0 0 0 0 0 0 0 0 0 0 0 0 0 127 0" result="hardAlpha"/>
<feOffset dx="4" dy="3"/>
<feGaussianBlur stdDeviation="3.5"/>
<feComposite in2="hardAlpha" operator="arithmetic" k2="-1" k3="1"/>
<feColorMatrix type="matrix" values="0 0 0 0 0.578462 0 0 0 0 0.683882 0 0 0 0 0.764974 0 0 0 0.6 0"/>
<feBlend mode="normal" in2="shape" result="effect1_innerShadow"/>
</filter>
</defs>
</svg>
