<svg width="50" height="50" viewBox="0 0 50 50" fill="none" xmlns="http://www.w3.org/2000/svg">
<g filter="url(#filter0_i)">
<path d="M47.2755 25.7657C47.5632 25.2961 47.5631 24.7045 47.2755 24.2349C47.1969 24.1071 45.3109 21.0629 41.6469 18.0123C36.7736 13.9554 31.0325 11.8108 25.0438 11.8108C19.0566 11.8108 13.3014 13.9543 8.40028 18.0093C4.71529 21.0584 2.80794 24.1002 2.72859 24.2284C2.43533 24.7013 2.43533 25.2996 2.72859 25.7726C2.80794 25.9007 4.71529 28.9426 8.40028 31.9917C13.3014 36.0467 19.0566 38.1902 25.0438 38.1902C31.0325 38.1902 36.7736 36.0455 41.6469 31.9886C45.3109 28.938 47.1969 25.8939 47.2755 25.7657ZM39.6945 29.8013C35.3107 33.4237 30.3813 35.2601 25.0438 35.2601C19.7044 35.2601 14.759 33.4226 10.3454 29.7978C8.44655 28.2385 7.05636 26.6628 6.20621 25.5872C5.93366 25.2424 5.93363 24.7585 6.20616 24.4137C7.0565 23.3377 8.44672 21.7622 10.3454 20.2027C14.759 16.5784 19.704 14.7405 25.0438 14.7405C30.3813 14.7405 35.3103 16.5772 39.6945 20.1993C41.5869 21.7629 42.9674 23.3426 43.808 24.4179C44.0763 24.761 44.0762 25.2399 43.8079 25.5829C42.967 26.6584 41.5868 28.2382 39.6945 29.8013Z" fill="white"/>
</g>
<path d="M24.9998 16.1978C20.1464 16.1978 16.1978 20.1464 16.1978 24.9998C16.1978 29.8533 20.1464 33.8018 24.9998 33.8018C29.8533 33.8018 33.8018 29.8533 33.8018 24.9998C33.8018 20.1464 29.8533 16.1978 24.9998 16.1978ZM24.9998 30.8722C21.7619 30.8722 19.1275 28.2377 19.1275 24.9998C19.1275 21.7619 21.7619 19.1275 24.9998 19.1275C28.2377 19.1275 30.8722 21.7619 30.8722 24.9998C30.8722 28.2377 28.2377 30.8722 24.9998 30.8722Z" fill="#148AFF"/>
<g filter="url(#filter1_i)">
<path d="M2.92969 3.92969C2.92969 3.3774 3.3774 2.92969 3.92969 2.92969H7.58057C8.38958 2.92969 9.04541 2.27385 9.04541 1.46484C9.04541 0.655833 8.38958 0 7.58057 0H3C1.34315 0 0 1.34315 0 3V7.4707C0 8.27971 0.655833 8.93555 1.46484 8.93555C2.27385 8.93555 2.92969 8.27971 2.92969 7.4707V3.92969Z" fill="white"/>
</g>
<g filter="url(#filter2_i)">
<path d="M42.4199 0C41.6109 0 40.955 0.655833 40.955 1.46484C40.955 2.27385 41.6109 2.92969 42.4199 2.92969H46.0708C46.6231 2.92969 47.0708 3.3774 47.0708 3.92969V7.4707C47.0708 8.27971 47.7266 8.93555 48.5356 8.93555C49.3446 8.93555 50.0005 8.27971 50.0005 7.4707V3C50.0005 1.34315 48.6573 0 47.0005 0H42.4199Z" fill="white"/>
</g>
<g filter="url(#filter3_i)">
<path d="M2.92969 42.5293C2.92969 41.7203 2.27385 41.0645 1.46484 41.0645C0.655833 41.0645 0 41.7203 0 42.5293V47C0 48.6569 1.34315 50 3 50H7.58057C8.38958 50 9.04541 49.3442 9.04541 48.5352C9.04541 47.7261 8.38958 47.0703 7.58057 47.0703H3.92969C3.3774 47.0703 2.92969 46.6226 2.92969 46.0703V42.5293Z" fill="white"/>
</g>
<g filter="url(#filter4_i)">
<path d="M47.0708 46.0703C47.0708 46.6226 46.6231 47.0703 46.0708 47.0703H42.4199C41.6109 47.0703 40.955 47.7261 40.955 48.5352C40.955 49.3442 41.6109 50 42.4199 50H47.0005C48.6573 50 50.0005 48.6569 50.0005 47V42.5293C50.0005 41.7203 49.3446 41.0645 48.5356 41.0645C47.7266 41.0645 47.0708 41.7203 47.0708 42.5293V46.0703Z" fill="white"/>
</g>
<defs>
<filter id="filter0_i" x="2.50864" y="11.8108" width="46.9826" height="28.3794" filterUnits="userSpaceOnUse" color-interpolation-filters="sRGB">
<feFlood flood-opacity="0" result="BackgroundImageFix"/>
<feBlend mode="normal" in="SourceGraphic" in2="BackgroundImageFix" result="shape"/>
<feColorMatrix in="SourceAlpha" type="matrix" values="0 0 0 0 0 0 0 0 0 0 0 0 0 0 0 0 0 0 127 0" result="hardAlpha"/>
<feOffset dx="2" dy="2"/>
<feGaussianBlur stdDeviation="2"/>
<feComposite in2="hardAlpha" operator="arithmetic" k2="-1" k3="1"/>
<feColorMatrix type="matrix" values="0 0 0 0 0.578462 0 0 0 0 0.683882 0 0 0 0 0.764974 0 0 0 0.5 0"/>
<feBlend mode="normal" in2="shape" result="effect1_innerShadow"/>
</filter>
<filter id="filter1_i" x="0" y="0" width="11.0454" height="10.9355" filterUnits="userSpaceOnUse" color-interpolation-filters="sRGB">
<feFlood flood-opacity="0" result="BackgroundImageFix"/>
<feBlend mode="normal" in="SourceGraphic" in2="BackgroundImageFix" result="shape"/>
<feColorMatrix in="SourceAlpha" type="matrix" values="0 0 0 0 0 0 0 0 0 0 0 0 0 0 0 0 0 0 127 0" result="hardAlpha"/>
<feOffset dx="2" dy="2"/>
<feGaussianBlur stdDeviation="4"/>
<feComposite in2="hardAlpha" operator="arithmetic" k2="-1" k3="1"/>
<feColorMatrix type="matrix" values="0 0 0 0 0.578462 0 0 0 0 0.683882 0 0 0 0 0.764974 0 0 0 0.5 0"/>
<feBlend mode="normal" in2="shape" result="effect1_innerShadow"/>
</filter>
<filter id="filter2_i" x="40.955" y="0" width="11.0454" height="10.9355" filterUnits="userSpaceOnUse" color-interpolation-filters="sRGB">
<feFlood flood-opacity="0" result="BackgroundImageFix"/>
<feBlend mode="normal" in="SourceGraphic" in2="BackgroundImageFix" result="shape"/>
<feColorMatrix in="SourceAlpha" type="matrix" values="0 0 0 0 0 0 0 0 0 0 0 0 0 0 0 0 0 0 127 0" result="hardAlpha"/>
<feOffset dx="2" dy="2"/>
<feGaussianBlur stdDeviation="2"/>
<feComposite in2="hardAlpha" operator="arithmetic" k2="-1" k3="1"/>
<feColorMatrix type="matrix" values="0 0 0 0 0.578462 0 0 0 0 0.683882 0 0 0 0 0.764974 0 0 0 0.5 0"/>
<feBlend mode="normal" in2="shape" result="effect1_innerShadow"/>
</filter>
<filter id="filter3_i" x="0" y="41.0645" width="11.0454" height="10.9355" filterUnits="userSpaceOnUse" color-interpolation-filters="sRGB">
<feFlood flood-opacity="0" result="BackgroundImageFix"/>
<feBlend mode="normal" in="SourceGraphic" in2="BackgroundImageFix" result="shape"/>
<feColorMatrix in="SourceAlpha" type="matrix" values="0 0 0 0 0 0 0 0 0 0 0 0 0 0 0 0 0 0 127 0" result="hardAlpha"/>
<feOffset dx="2" dy="2"/>
<feGaussianBlur stdDeviation="4"/>
<feComposite in2="hardAlpha" operator="arithmetic" k2="-1" k3="1"/>
<feColorMatrix type="matrix" values="0 0 0 0 0.578462 0 0 0 0 0.683882 0 0 0 0 0.764974 0 0 0 0.5 0"/>
<feBlend mode="normal" in2="shape" result="effect1_innerShadow"/>
</filter>
<filter id="filter4_i" x="40.955" y="41.0645" width="11.0454" height="10.9355" filterUnits="userSpaceOnUse" color-interpolation-filters="sRGB">
<feFlood flood-opacity="0" result="BackgroundImageFix"/>
<feBlend mode="normal" in="SourceGraphic" in2="BackgroundImageFix" result="shape"/>
<feColorMatrix in="SourceAlpha" type="matrix" values="0 0 0 0 0 0 0 0 0 0 0 0 0 0 0 0 0 0 127 0" result="hardAlpha"/>
<feOffset dx="2" dy="2"/>
<feGaussianBlur stdDeviation="4"/>
<feComposite in2="hardAlpha" operator="arithmetic" k2="-1" k3="1"/>
<feColorMatrix type="matrix" values="0 0 0 0 0.578462 0 0 0 0 0.683882 0 0 0 0 0.764974 0 0 0 0.5 0"/>
<feBlend mode="normal" in2="shape" result="effect1_innerShadow"/>
</filter>
</defs>
</svg>
