<svg width="46" height="52" viewBox="0 0 46 52" fill="none" xmlns="http://www.w3.org/2000/svg">
<g filter="url(#filter0_i)">
<path d="M45.2561 41.2087C45.2561 41.1979 45.2561 41.187 45.2561 41.1761C45.2561 41.0892 45.245 41.0022 45.245 40.9044C45.1789 38.7528 45.0357 33.7213 40.2537 32.113C40.2206 32.1022 40.1765 32.0913 40.1435 32.0804C35.1741 30.8307 31.0422 28.0053 30.9981 27.9727C30.9568 27.944 30.9145 27.9176 30.8715 27.8937C30.2139 27.5273 29.3713 27.7091 28.9266 28.3313C28.4528 28.9942 28.6181 29.907 29.2902 30.3743C29.4775 30.5047 33.8629 33.5149 39.3501 34.9058C41.9174 35.8078 42.2039 38.5137 42.2811 40.9914C42.2811 41.0892 42.2811 41.1761 42.2921 41.2631C42.3031 42.2411 42.237 43.7516 42.0607 44.621C40.2757 45.6207 33.2789 49.0764 22.635 49.0764C12.0352 49.0764 4.99439 45.6099 3.19837 44.6101C3.02207 43.7407 2.94494 42.2302 2.96698 41.2522C2.96698 41.1653 2.978 41.0783 2.978 40.9805C3.05513 38.5028 3.34161 35.7969 5.90893 34.895C11.3961 33.504 15.7815 30.483 15.9688 30.3634C16.641 29.8961 16.8062 28.9833 16.3324 28.3204C15.9239 27.7489 15.1795 27.5489 14.5513 27.8042C14.451 27.845 14.3536 27.8974 14.261 27.9618C14.2169 27.9944 10.107 30.8198 5.11559 32.0696C5.07152 32.0804 5.03846 32.0913 5.00541 32.1022C0.223369 33.7213 0.0801288 38.7528 0.0140176 40.8936C0.0140176 40.9914 0.0140174 41.0783 0.00299885 41.1653C0.00299885 41.1761 0.00299885 41.187 0.00299885 41.1979C-0.00801967 41.7629 -0.019038 44.6644 0.564944 46.1206C0.675129 46.4032 0.873462 46.6422 1.13791 46.8052C1.46846 47.0226 9.39078 51.9997 22.6461 51.9997C35.9013 51.9997 43.8237 47.0117 44.1542 46.8052C44.4076 46.6422 44.617 46.4032 44.7272 46.1206C45.2781 44.6753 45.2671 41.7738 45.2561 41.2087Z" fill="white"/>
<path d="M28.9266 28.3313C29.3713 27.7091 30.2139 27.5273 30.8715 27.8937C28.2141 25.8843 21.4887 23.6521 14.5513 27.8042C15.1795 27.5489 15.9239 27.7489 16.3324 28.3204C16.8062 28.9833 16.641 29.8961 15.9688 30.3634C20.9465 26.9028 25.8202 27.9618 29.2902 30.3743C28.6181 29.907 28.4528 28.9942 28.9266 28.3313Z" fill="white"/>
</g>
<path d="M22.4365 28.276C22.4916 28.276 22.5467 28.276 22.6128 28.276C22.6349 28.276 22.6569 28.276 22.6789 28.276C22.712 28.276 22.7561 28.276 22.7891 28.276C26.0176 28.2216 28.6289 27.1023 30.5572 24.9615C34.7993 20.2453 34.0941 12.1602 34.017 11.3886C33.7415 5.59651 30.9649 2.82542 28.673 1.53225C26.9652 0.565085 24.9708 0.0434681 22.7451 0H22.6679C22.6569 0 22.6349 0 22.6239 0H22.5577C21.3347 0 18.9327 0.195606 16.6298 1.48878C14.3159 2.78196 11.4952 5.55305 11.2197 11.3886C11.1426 12.1602 10.4374 20.2453 14.6795 24.9615C16.5967 27.1023 19.2081 28.2216 22.4365 28.276ZM14.1616 11.6603C14.1616 11.6277 14.1727 11.5951 14.1727 11.5734C14.5363 3.78172 20.1447 2.94496 22.5467 2.94496H22.5908C22.6128 2.94496 22.6459 2.94496 22.6789 2.94496C25.6539 3.01016 30.7114 4.20554 31.053 11.5734C31.053 11.606 31.053 11.6386 31.064 11.6603C31.0751 11.7364 31.8464 19.126 28.3425 23.0163C26.9541 24.5595 25.103 25.3202 22.6679 25.3419C22.6459 25.3419 22.6349 25.3419 22.6128 25.3419C22.5908 25.3419 22.5798 25.3419 22.5577 25.3419C20.1337 25.3202 18.2715 24.5595 16.8942 23.0163C13.4014 19.1477 14.1506 11.7255 14.1616 11.6603Z" fill="#148AFF"/>
<defs>
<filter id="filter0_i" x="0" y="25.4612" width="47.2591" height="28.5385" filterUnits="userSpaceOnUse" color-interpolation-filters="sRGB">
<feFlood flood-opacity="0" result="BackgroundImageFix"/>
<feBlend mode="normal" in="SourceGraphic" in2="BackgroundImageFix" result="shape"/>
<feColorMatrix in="SourceAlpha" type="matrix" values="0 0 0 0 0 0 0 0 0 0 0 0 0 0 0 0 0 0 127 0" result="hardAlpha"/>
<feOffset dx="2" dy="2"/>
<feGaussianBlur stdDeviation="3"/>
<feComposite in2="hardAlpha" operator="arithmetic" k2="-1" k3="1"/>
<feColorMatrix type="matrix" values="0 0 0 0 0.578462 0 0 0 0 0.683882 0 0 0 0 0.764974 0 0 0 0.5 0"/>
<feBlend mode="normal" in2="shape" result="effect1_innerShadow"/>
</filter>
</defs>
</svg>
