<svg width="19" height="19" viewBox="0 0 19 19" fill="none" xmlns="http://www.w3.org/2000/svg">
<g filter="url(#filter0_i)">
<path fill-rule="evenodd" clip-rule="evenodd" d="M9.41569 0C6.85876 0 6.53787 0.0111802 5.53361 0.0568818C4.53132 0.102779 3.84717 0.26146 3.24854 0.494283C2.62931 0.734755 2.10404 1.05643 1.58072 1.57994C1.05702 2.10325 0.735344 2.62852 0.494087 3.24756C0.260675 3.84638 0.101799 4.53073 0.0566856 5.53263C0.0117686 6.53689 0 6.85798 0 9.41491C0 11.9718 0.0113763 12.2918 0.0568818 13.296C0.102976 14.2983 0.261656 14.9825 0.494283 15.5811C0.734951 16.2003 1.05663 16.7256 1.58014 17.2489C2.10325 17.7726 2.62853 18.0951 3.24736 18.3355C3.84638 18.5684 4.53073 18.727 5.53283 18.7729C6.53709 18.8186 6.85778 18.8298 9.41452 18.8298C11.9716 18.8298 12.2916 18.8186 13.2958 18.7729C14.2981 18.727 14.983 18.5684 15.5821 18.3355C16.2011 18.0951 16.7256 17.7726 17.2487 17.2489C17.7724 16.7256 18.0941 16.2003 18.3353 15.5813C18.5668 14.9825 18.7257 14.2981 18.7727 13.2962C18.8179 12.2919 18.8296 11.9718 18.8296 9.41491C18.8296 6.85798 18.8179 6.53709 18.7727 5.53283C18.7257 4.53053 18.5668 3.84638 18.3353 3.24775C18.0941 2.62852 17.7724 2.10325 17.2487 1.57994C16.725 1.05624 16.2013 0.734559 15.5815 0.494283C14.9813 0.26146 14.2967 0.102779 13.2944 0.0568818C12.2902 0.0111802 11.9705 0 9.41275 0H9.41569ZM9.10102 1.69664H9.10113L9.41492 1.69673C11.9287 1.69673 12.2266 1.70575 13.2193 1.75087C14.1373 1.79284 14.6355 1.94623 14.9674 2.07509C15.4067 2.24574 15.72 2.44973 16.0493 2.77925C16.3788 3.10877 16.5828 3.4226 16.7538 3.86196C16.8827 4.19345 17.0363 4.69165 17.0781 5.60961C17.1232 6.60209 17.133 6.90023 17.133 9.41284C17.133 11.9254 17.1232 12.2236 17.0781 13.2161C17.0361 14.134 16.8827 14.6322 16.7538 14.9637C16.5832 15.4031 16.3788 15.7159 16.0493 16.0452C15.7198 16.3748 15.4069 16.5788 14.9674 16.7494C14.6359 16.8789 14.1373 17.0318 13.2193 17.0738C12.2268 17.1189 11.9287 17.1287 9.41492 17.1287C6.90094 17.1287 6.603 17.1189 5.61051 17.0738C4.69256 17.0315 4.19435 16.8781 3.86228 16.7492C3.42292 16.5786 3.10909 16.3746 2.77957 16.0451C2.45004 15.7155 2.24605 15.4025 2.07502 14.9629C1.94615 14.6314 1.79257 14.1332 1.75079 13.2153C1.70568 12.2228 1.69666 11.9247 1.69666 9.41048C1.69666 6.89631 1.70568 6.59974 1.75079 5.60725C1.79277 4.6893 1.94615 4.19109 2.07502 3.85922C2.24566 3.41986 2.45004 3.10603 2.77957 2.7765C3.10909 2.44698 3.42292 2.24299 3.86228 2.07195C4.19416 1.9425 4.69256 1.78951 5.61051 1.74734C6.47904 1.70811 6.81562 1.69634 8.57032 1.69438V1.69673C8.73423 1.69648 8.91055 1.69655 9.10082 1.69664H9.10092H9.10102ZM13.3113 4.38934C13.3113 3.76541 13.8174 3.25995 14.4411 3.25995V3.25955C15.0649 3.25955 15.5709 3.76561 15.5709 4.38934C15.5709 5.01308 15.0649 5.51913 14.4411 5.51913C13.8174 5.51913 13.3113 5.01308 13.3113 4.38934ZM9.41501 4.57987C6.74499 4.57997 4.58026 6.74477 4.58026 9.41482C4.58026 12.0849 6.7451 14.2488 9.41521 14.2488C12.0853 14.2488 14.2494 12.0849 14.2494 9.41482C14.2494 6.74471 12.0851 4.57987 9.41501 4.57987ZM12.5541 9.41501C12.5541 7.68168 11.1489 6.2767 9.41577 6.2767C7.68245 6.2767 6.27747 7.68168 6.27747 9.41501C6.27747 11.1481 7.68245 12.5533 9.41577 12.5533C11.1489 12.5533 12.5541 11.1481 12.5541 9.41501Z" fill="white"/>
</g>
<defs>
<filter id="filter0_i" x="0" y="0" width="19.5296" height="19.3298" filterUnits="userSpaceOnUse" color-interpolation-filters="sRGB">
<feFlood flood-opacity="0" result="BackgroundImageFix"/>
<feBlend mode="normal" in="SourceGraphic" in2="BackgroundImageFix" result="shape"/>
<feColorMatrix in="SourceAlpha" type="matrix" values="0 0 0 0 0 0 0 0 0 0 0 0 0 0 0 0 0 0 127 0" result="hardAlpha"/>
<feOffset dx="0.7" dy="0.5"/>
<feGaussianBlur stdDeviation="0.9"/>
<feComposite in2="hardAlpha" operator="arithmetic" k2="-1" k3="1"/>
<feColorMatrix type="matrix" values="0 0 0 0 0.578462 0 0 0 0 0.683882 0 0 0 0 0.764974 0 0 0 0.5 0"/>
<feBlend mode="normal" in2="shape" result="effect1_innerShadow"/>
</filter>
</defs>
</svg>
