<svg width="15" height="20" viewBox="0 0 15 20" fill="none" xmlns="http://www.w3.org/2000/svg">
<path d="M12.9348 6.66667H12.0109V4.7619C12.0109 2.09524 9.97826 0 7.3913 0C4.80435 0 2.77174 2.09524 2.77174 4.7619V6.66667H1.84783C0.831522 6.66667 0 7.52381 0 8.57143V18.0952C0 19.1429 0.831522 20 1.84783 20H12.9348C13.9511 20 14.7826 19.1429 14.7826 18.0952V8.57143C14.7826 7.52381 13.9511 6.66667 12.9348 6.66667ZM7.3913 1.80952C8.96196 1.80952 10.2554 3.14286 10.2554 4.7619V6.66667H4.52717V4.85355V4.7619C4.52717 3.14286 5.82065 1.80952 7.3913 1.80952ZM12.9348 18.0952H1.84783V8.57143H12.9348V18.0952ZM7.3913 15.2381C8.40761 15.2381 9.23913 14.381 9.23913 13.3333C9.23913 12.2857 8.40761 11.4286 7.3913 11.4286C6.375 11.4286 5.54348 12.2857 5.54348 13.3333C5.54348 14.381 6.375 15.2381 7.3913 15.2381Z" fill="#C1C7CE"/>
</svg>
