<svg width="93" height="120" viewBox="0 0 93 120" fill="none" xmlns="http://www.w3.org/2000/svg">
<path fill-rule="evenodd" clip-rule="evenodd" d="M45.9843 0L92.9134 80H0L45.9843 0ZM46.0338 11.2223L9.73949 74.3645H83.0739L46.0338 11.2223Z" fill="#62709D"/>
<path d="M46.5721 63.6579C54.0419 63.6579 60.0974 57.6024 60.0974 50.1327C60.0974 49.2659 60.0158 48.4181 59.86 47.5967C59.86 47.5967 52.0087 49.8148 46.8539 49.8509C41.4821 49.8885 33.2842 47.5967 33.2842 47.5967C33.1284 48.4181 33.0469 49.2659 33.0469 50.1327C33.0469 57.6024 39.1023 63.6579 46.5721 63.6579Z" fill="#148AFF"/>
<path fill-rule="evenodd" clip-rule="evenodd" d="M36.0533 48.1177C35.9302 48.7669 35.8653 49.4388 35.8653 50.1285C35.8653 56.0421 40.6592 60.836 46.5728 60.836C52.4864 60.836 57.2803 56.0421 57.2803 50.1285C57.2803 49.4388 57.2155 48.7669 57.0923 48.1177L62.6291 47.0674C62.8176 48.0611 62.9158 49.0846 62.9158 50.1285C62.9158 59.1545 55.5988 66.4715 46.5728 66.4715C37.5468 66.4715 30.2298 59.1545 30.2298 50.1285C30.2298 49.0846 30.328 48.0611 30.5165 47.0674L36.0533 48.1177Z" fill="#62709D"/>
<path d="M51.0806 55.2008C51.0806 57.6907 49.0621 59.7092 46.5722 59.7092C44.0823 59.7092 42.0638 57.6907 42.0638 55.2008C42.0638 52.7109 44.0823 50.6924 46.5722 50.6924C49.0621 50.6924 51.0806 52.7109 51.0806 55.2008Z" fill="#F4F8FC"/>
<path fill-rule="evenodd" clip-rule="evenodd" d="M34.5043 44.8333C37.4592 46.6584 41.7187 47.8791 46.5723 47.8791C51.4259 47.8791 55.6854 46.6584 58.6403 44.8333C61.6393 42.9809 62.9153 40.792 62.9153 38.8623H68.5508C68.5508 43.4687 65.5375 47.197 61.6017 49.628C57.6217 52.0862 52.3009 53.5147 46.5723 53.5147C40.8437 53.5147 35.5228 52.0862 31.5429 49.628C27.6071 47.197 24.5938 43.4687 24.5938 38.8623H30.2293C30.2293 40.792 31.5052 42.9809 34.5043 44.8333Z" fill="#62709D"/>
<path fill-rule="evenodd" clip-rule="evenodd" d="M46.0087 72.6751C57.2133 72.6751 66.2965 63.5919 66.2965 52.3873C66.2965 41.1826 57.2133 32.0994 46.0087 32.0994C34.804 32.0994 25.7208 41.1826 25.7208 52.3873C25.7208 63.5919 34.804 72.6751 46.0087 72.6751ZM46.0087 78.3106C60.3258 78.3106 71.9321 66.7043 71.9321 52.3873C71.9321 38.0702 60.3258 26.4639 46.0087 26.4639C31.6916 26.4639 20.0853 38.0702 20.0853 52.3873C20.0853 66.7043 31.6916 78.3106 46.0087 78.3106Z" fill="#62709D"/>
<path d="M12.2188 112.484L15.3594 101.094H20.0781L14.375 118H10.0625L4.35938 101.094H9.07812L12.2188 112.484ZM26.8438 118H22.3125V101.094H26.8438V118ZM22.0469 96.7188C22.0469 96.0417 22.2708 95.4844 22.7188 95.0469C23.1771 94.6094 23.7969 94.3906 24.5781 94.3906C25.349 94.3906 25.9635 94.6094 26.4219 95.0469C26.8802 95.4844 27.1094 96.0417 27.1094 96.7188C27.1094 97.4062 26.875 97.9688 26.4062 98.4062C25.9479 98.8438 25.3385 99.0625 24.5781 99.0625C23.8177 99.0625 23.2031 98.8438 22.7344 98.4062C22.276 97.9688 22.0469 97.4062 22.0469 96.7188ZM39.7344 113.328C39.7344 112.776 39.4583 112.344 38.9062 112.031C38.3646 111.708 37.4896 111.422 36.2812 111.172C32.2604 110.328 30.25 108.62 30.25 106.047C30.25 104.547 30.8698 103.297 32.1094 102.297C33.3594 101.286 34.9896 100.781 37 100.781C39.1458 100.781 40.8594 101.286 42.1406 102.297C43.4323 103.307 44.0781 104.62 44.0781 106.234H39.5625C39.5625 105.589 39.3542 105.057 38.9375 104.641C38.5208 104.214 37.8698 104 36.9844 104C36.224 104 35.6354 104.172 35.2188 104.516C34.8021 104.859 34.5938 105.297 34.5938 105.828C34.5938 106.328 34.8281 106.734 35.2969 107.047C35.776 107.349 36.5781 107.615 37.7031 107.844C38.8281 108.062 39.776 108.312 40.5469 108.594C42.9323 109.469 44.125 110.984 44.125 113.141C44.125 114.682 43.4635 115.932 42.1406 116.891C40.8177 117.839 39.1094 118.312 37.0156 118.312C35.599 118.312 34.3385 118.062 33.2344 117.562C32.1406 117.052 31.2812 116.359 30.6562 115.484C30.0312 114.599 29.7188 113.646 29.7188 112.625H34C34.0417 113.427 34.3385 114.042 34.8906 114.469C35.4427 114.896 36.1823 115.109 37.1094 115.109C37.974 115.109 38.625 114.948 39.0625 114.625C39.5104 114.292 39.7344 113.859 39.7344 113.328ZM51.8125 118H47.2812V101.094H51.8125V118ZM47.0156 96.7188C47.0156 96.0417 47.2396 95.4844 47.6875 95.0469C48.1458 94.6094 48.7656 94.3906 49.5469 94.3906C50.3177 94.3906 50.9323 94.6094 51.3906 95.0469C51.849 95.4844 52.0781 96.0417 52.0781 96.7188C52.0781 97.4062 51.8438 97.9688 51.375 98.4062C50.9167 98.8438 50.3073 99.0625 49.5469 99.0625C48.7865 99.0625 48.1719 98.8438 47.7031 98.4062C47.2448 97.9688 47.0156 97.4062 47.0156 96.7188Z" fill="#62709D"/>
<path d="M54.8438 109.391C54.8438 107.714 55.1667 106.219 55.8125 104.906C56.4583 103.594 57.3854 102.578 58.5938 101.859C59.8125 101.141 61.224 100.781 62.8281 100.781C65.1094 100.781 66.9688 101.479 68.4062 102.875C69.8542 104.271 70.6615 106.167 70.8281 108.562L70.8594 109.719C70.8594 112.312 70.1354 114.396 68.6875 115.969C67.2396 117.531 65.2969 118.312 62.8594 118.312C60.4219 118.312 58.474 117.531 57.0156 115.969C55.5677 114.406 54.8438 112.281 54.8438 109.594V109.391ZM59.3594 109.719C59.3594 111.323 59.6615 112.552 60.2656 113.406C60.8698 114.25 61.7344 114.672 62.8594 114.672C63.9531 114.672 64.8073 114.255 65.4219 113.422C66.0365 112.578 66.3438 111.234 66.3438 109.391C66.3438 107.818 66.0365 106.599 65.4219 105.734C64.8073 104.87 63.9427 104.438 62.8281 104.438C61.724 104.438 60.8698 104.87 60.2656 105.734C59.6615 106.589 59.3594 107.917 59.3594 109.719ZM77.7969 101.094L77.9375 103.047C79.1458 101.536 80.7656 100.781 82.7969 100.781C84.5885 100.781 85.9219 101.307 86.7969 102.359C87.6719 103.411 88.1198 104.984 88.1406 107.078V118H83.625V107.188C83.625 106.229 83.4167 105.536 83 105.109C82.5833 104.672 81.8906 104.453 80.9219 104.453C79.651 104.453 78.6979 104.995 78.0625 106.078V118H73.5469V101.094H77.7969Z" fill="#148AFF"/>
</svg>
