<svg width="113" height="35" viewBox="0 0 113 35" fill="none" xmlns="http://www.w3.org/2000/svg">
<path fill-rule="evenodd" clip-rule="evenodd" d="M19.7966 0L40 34.4407H0L19.7966 0ZM19.8179 4.83129L4.19293 32.0145H35.764L19.8179 4.83129Z" fill="#62709D"/>
<path d="M20.0498 27.4047C23.2656 27.4047 25.8725 24.7978 25.8725 21.582C25.8725 21.2088 25.8374 20.8439 25.7703 20.4902C25.7703 20.4902 22.3903 21.4452 20.1711 21.4607C17.8585 21.4769 14.3292 20.4902 14.3292 20.4902C14.2622 20.8439 14.2271 21.2088 14.2271 21.582C14.2271 24.7978 16.834 27.4047 20.0498 27.4047Z" fill="#148AFF"/>
<path fill-rule="evenodd" clip-rule="evenodd" d="M15.5212 20.7163C15.4682 20.9958 15.4403 21.2851 15.4403 21.582C15.4403 24.1278 17.5041 26.1917 20.05 26.1917C22.5958 26.1917 24.6596 24.1278 24.6596 21.582C24.6596 21.2851 24.6317 20.9958 24.5787 20.7163L26.9623 20.2642C27.0435 20.692 27.0858 21.1326 27.0858 21.582C27.0858 25.4678 23.9357 28.6178 20.05 28.6178C16.1642 28.6178 13.0142 25.4678 13.0142 21.582C13.0142 21.1326 13.0564 20.692 13.1376 20.2642L15.5212 20.7163Z" fill="#62709D"/>
<path d="M21.9907 23.7656C21.9907 24.8376 21.1217 25.7065 20.0498 25.7065C18.9779 25.7065 18.1089 24.8376 18.1089 23.7656C18.1089 22.6937 18.9779 21.8247 20.0498 21.8247C21.1217 21.8247 21.9907 22.6937 21.9907 23.7656Z" fill="white"/>
<path fill-rule="evenodd" clip-rule="evenodd" d="M14.8545 19.3005C16.1266 20.0862 17.9603 20.6118 20.0498 20.6118C22.1393 20.6118 23.9731 20.0862 25.2452 19.3005C26.5363 18.5031 27.0856 17.5607 27.0856 16.73H29.5118C29.5118 18.7131 28.2145 20.3182 26.5201 21.3647C24.8067 22.423 22.516 23.0379 20.0498 23.0379C17.5836 23.0379 15.2929 22.423 13.5795 21.3647C11.8851 20.3182 10.5879 18.7131 10.5879 16.73H13.014C13.014 17.5607 13.5633 18.5031 14.8545 19.3005Z" fill="#62709D"/>
<path fill-rule="evenodd" clip-rule="evenodd" d="M19.8072 31.2869C24.6309 31.2869 28.5413 27.3765 28.5413 22.5528C28.5413 17.7291 24.6309 13.8187 19.8072 13.8187C14.9835 13.8187 11.0731 17.7291 11.0731 22.5528C11.0731 27.3765 14.9835 31.2869 19.8072 31.2869ZM19.8072 33.7131C25.9708 33.7131 30.9674 28.7164 30.9674 22.5528C30.9674 16.3892 25.9708 11.3926 19.8072 11.3926C13.6436 11.3926 8.64697 16.3892 8.64697 22.5528C8.64697 28.7164 13.6436 33.7131 19.8072 33.7131Z" fill="#62709D"/>
<path d="M54.0469 22.8633L56.4023 14.3203H59.9414L55.6641 27H52.4297L48.1523 14.3203H51.6914L54.0469 22.8633ZM65.0156 27H61.6172V14.3203H65.0156V27ZM61.418 11.0391C61.418 10.5312 61.5859 10.1133 61.9219 9.78516C62.2656 9.45703 62.7305 9.29297 63.3164 9.29297C63.8945 9.29297 64.3555 9.45703 64.6992 9.78516C65.043 10.1133 65.2148 10.5312 65.2148 11.0391C65.2148 11.5547 65.0391 11.9766 64.6875 12.3047C64.3438 12.6328 63.8867 12.7969 63.3164 12.7969C62.7461 12.7969 62.2852 12.6328 61.9336 12.3047C61.5898 11.9766 61.418 11.5547 61.418 11.0391ZM74.6836 23.4961C74.6836 23.082 74.4766 22.7578 74.0625 22.5234C73.6562 22.2812 73 22.0664 72.0938 21.8789C69.0781 21.2461 67.5703 19.9648 67.5703 18.0352C67.5703 16.9102 68.0352 15.9727 68.9648 15.2227C69.9023 14.4648 71.125 14.0859 72.6328 14.0859C74.2422 14.0859 75.5273 14.4648 76.4883 15.2227C77.457 15.9805 77.9414 16.9648 77.9414 18.1758H74.5547C74.5547 17.6914 74.3984 17.293 74.0859 16.9805C73.7734 16.6602 73.2852 16.5 72.6211 16.5C72.0508 16.5 71.6094 16.6289 71.2969 16.8867C70.9844 17.1445 70.8281 17.4727 70.8281 17.8711C70.8281 18.2461 71.0039 18.5508 71.3555 18.7852C71.7148 19.0117 72.3164 19.2109 73.1602 19.3828C74.0039 19.5469 74.7148 19.7344 75.293 19.9453C77.082 20.6016 77.9766 21.7383 77.9766 23.3555C77.9766 24.5117 77.4805 25.4492 76.4883 26.168C75.4961 26.8789 74.2148 27.2344 72.6445 27.2344C71.582 27.2344 70.6367 27.0469 69.8086 26.6719C68.9883 26.2891 68.3438 25.7695 67.875 25.1133C67.4062 24.4492 67.1719 23.7344 67.1719 22.9688H70.3828C70.4141 23.5703 70.6367 24.0312 71.0508 24.3516C71.4648 24.6719 72.0195 24.832 72.7148 24.832C73.3633 24.832 73.8516 24.7109 74.1797 24.4688C74.5156 24.2188 74.6836 23.8945 74.6836 23.4961ZM83.7422 27H80.3438V14.3203H83.7422V27ZM80.1445 11.0391C80.1445 10.5312 80.3125 10.1133 80.6484 9.78516C80.9922 9.45703 81.457 9.29297 82.043 9.29297C82.6211 9.29297 83.082 9.45703 83.4258 9.78516C83.7695 10.1133 83.9414 10.5312 83.9414 11.0391C83.9414 11.5547 83.7656 11.9766 83.4141 12.3047C83.0703 12.6328 82.6133 12.7969 82.043 12.7969C81.4727 12.7969 81.0117 12.6328 80.6602 12.3047C80.3164 11.9766 80.1445 11.5547 80.1445 11.0391Z" fill="#62709D"/>
<path d="M86.0156 20.543C86.0156 19.2852 86.2578 18.1641 86.7422 17.1797C87.2266 16.1953 87.9219 15.4336 88.8281 14.8945C89.7422 14.3555 90.8008 14.0859 92.0039 14.0859C93.7148 14.0859 95.1094 14.6094 96.1875 15.6562C97.2734 16.7031 97.8789 18.125 98.0039 19.9219L98.0273 20.7891C98.0273 22.7344 97.4844 24.2969 96.3984 25.4766C95.3125 26.6484 93.8555 27.2344 92.0273 27.2344C90.1992 27.2344 88.7383 26.6484 87.6445 25.4766C86.5586 24.3047 86.0156 22.7109 86.0156 20.6953V20.543ZM89.4023 20.7891C89.4023 21.9922 89.6289 22.9141 90.082 23.5547C90.5352 24.1875 91.1836 24.5039 92.0273 24.5039C92.8477 24.5039 93.4883 24.1914 93.9492 23.5664C94.4102 22.9336 94.6406 21.9258 94.6406 20.543C94.6406 19.3633 94.4102 18.4492 93.9492 17.8008C93.4883 17.1523 92.8398 16.8281 92.0039 16.8281C91.1758 16.8281 90.5352 17.1523 90.082 17.8008C89.6289 18.4414 89.4023 19.4375 89.4023 20.7891ZM103.23 14.3203L103.336 15.7852C104.242 14.6523 105.457 14.0859 106.98 14.0859C108.324 14.0859 109.324 14.4805 109.98 15.2695C110.637 16.0586 110.973 17.2383 110.988 18.8086V27H107.602V18.8906C107.602 18.1719 107.445 17.6523 107.133 17.332C106.82 17.0039 106.301 16.8398 105.574 16.8398C104.621 16.8398 103.906 17.2461 103.43 18.0586V27H100.043V14.3203H103.23Z" fill="#148AFF"/>
</svg>
