<svg width="28" height="28" viewBox="0 0 28 28" fill="none" xmlns="http://www.w3.org/2000/svg">
<g filter="url(#filter0_i)">
<path fill-rule="evenodd" clip-rule="evenodd" d="M13.5939 0.14209C9.94118 0.14209 9.48276 0.158062 8.04811 0.22335C6.61626 0.288918 5.6389 0.515604 4.78371 0.848208C3.8991 1.19174 3.14871 1.65128 2.40112 2.39915C1.65297 3.14673 1.19344 3.89713 0.848782 4.78145C0.515338 5.63692 0.288371 6.61456 0.223924 8.04585C0.159757 9.4805 0.142944 9.9392 0.142944 13.592C0.142944 17.2447 0.159196 17.7017 0.224204 19.1364C0.290052 20.5682 0.516739 21.5456 0.849063 22.4008C1.19287 23.2854 1.65241 24.0358 2.40028 24.7834C3.14759 25.5315 3.89798 25.9922 4.78203 26.3357C5.63778 26.6683 6.61542 26.895 8.04699 26.9606C9.48164 27.0259 9.93977 27.0418 13.5923 27.0418C17.2453 27.0418 17.7023 27.0259 19.137 26.9606C20.5688 26.895 21.5473 26.6683 22.403 26.3357C23.2874 25.9922 24.0366 25.5315 24.7839 24.7834C25.5321 24.0358 25.9916 23.2854 26.3363 22.4011C26.6669 21.5456 26.8939 20.568 26.9611 19.1367C27.0256 17.702 27.0424 17.2447 27.0424 13.592C27.0424 9.9392 27.0256 9.48078 26.9611 8.04613C26.8939 6.61428 26.6669 5.63692 26.3363 4.78173C25.9916 3.89713 25.5321 3.14673 24.7839 2.39915C24.0358 1.651 23.2877 1.19146 22.4022 0.848208C21.5448 0.515604 20.5669 0.288918 19.135 0.22335C17.7003 0.158062 17.2436 0.14209 13.5897 0.14209H13.5939ZM13.1444 2.56586H13.1446L13.5928 2.56599C17.1839 2.56599 17.6096 2.57888 19.0277 2.64333C20.3391 2.70329 21.0508 2.92241 21.5249 3.10651C22.1526 3.35029 22.6 3.6417 23.0705 4.11245C23.5412 4.58319 23.8327 5.03152 24.077 5.65918C24.2611 6.13273 24.4805 6.84445 24.5402 8.15581C24.6046 9.57365 24.6186 9.99957 24.6186 13.589C24.6186 17.1784 24.6046 17.6043 24.5402 19.0222C24.4802 20.3335 24.2611 21.0453 24.077 21.5188C23.8332 22.1465 23.5412 22.5934 23.0705 23.0639C22.5998 23.5346 22.1528 23.826 21.5249 24.0698C21.0513 24.2547 20.3391 24.4733 19.0277 24.5333C17.6099 24.5977 17.1839 24.6117 13.5928 24.6117C10.0014 24.6117 9.5758 24.5977 8.15796 24.5333C6.8466 24.4727 6.13488 24.2536 5.66049 24.0695C5.03283 23.8258 4.5845 23.5343 4.11375 23.0636C3.64301 22.5928 3.35159 22.1456 3.10725 21.5177C2.92316 21.0441 2.70376 20.3324 2.64407 19.0211C2.57963 17.6032 2.56674 17.1773 2.56674 13.5856C2.56674 9.99396 2.57963 9.57029 2.64407 8.15245C2.70404 6.84109 2.92316 6.12937 3.10725 5.65526C3.35103 5.0276 3.64301 4.57927 4.11375 4.10852C4.5845 3.63778 5.03283 3.34636 5.66049 3.10203C6.1346 2.91709 6.8466 2.69853 8.15796 2.63829C9.39871 2.58224 9.87954 2.56543 12.3863 2.56263V2.56599C12.6204 2.56563 12.8723 2.56574 13.1441 2.56586H13.1443H13.1444ZM19.1591 6.41258C19.1591 5.52125 19.8821 4.79916 20.7731 4.79916V4.79859C21.6642 4.79859 22.3871 5.52153 22.3871 6.41258C22.3871 7.30363 21.6642 8.02656 20.7731 8.02656C19.8821 8.02656 19.1591 7.30363 19.1591 6.41258ZM13.593 6.68476C9.77865 6.68491 6.68617 9.77748 6.68617 13.5918C6.68617 17.4063 9.7788 20.4975 13.5932 20.4975C17.4077 20.4975 20.4992 17.4063 20.4992 13.5918C20.4992 9.77739 17.4074 6.68476 13.593 6.68476ZM18.0773 13.5921C18.0773 11.1159 16.0699 9.10881 13.594 9.10881C11.1179 9.10881 9.11075 11.1159 9.11075 13.5921C9.11075 16.068 11.1179 18.0754 13.594 18.0754C16.0699 18.0754 18.0773 16.068 18.0773 13.5921Z" fill="white"/>
</g>
<defs>
<filter id="filter0_i" x="0.142944" y="0.14209" width="27.5995" height="27.3997" filterUnits="userSpaceOnUse" color-interpolation-filters="sRGB">
<feFlood flood-opacity="0" result="BackgroundImageFix"/>
<feBlend mode="normal" in="SourceGraphic" in2="BackgroundImageFix" result="shape"/>
<feColorMatrix in="SourceAlpha" type="matrix" values="0 0 0 0 0 0 0 0 0 0 0 0 0 0 0 0 0 0 127 0" result="hardAlpha"/>
<feOffset dx="0.7" dy="0.5"/>
<feGaussianBlur stdDeviation="0.9"/>
<feComposite in2="hardAlpha" operator="arithmetic" k2="-1" k3="1"/>
<feColorMatrix type="matrix" values="0 0 0 0 0.578462 0 0 0 0 0.683882 0 0 0 0 0.764974 0 0 0 0.5 0"/>
<feBlend mode="normal" in2="shape" result="effect1_innerShadow"/>
</filter>
</defs>
</svg>
