<svg width="26" height="16" viewBox="0 0 26 16" fill="none" xmlns="http://www.w3.org/2000/svg">
<g filter="url(#filter0_i)">
<path d="M14.0198 15.0839C14.0198 15.0839 14.476 15.0337 14.7096 14.7851C14.9235 14.5573 14.9161 14.1274 14.9161 14.1274C14.9161 14.1274 14.8876 12.12 15.8284 11.8236C16.7555 11.5322 17.9459 13.7649 19.2093 14.6234C20.1637 15.2725 20.8881 15.1305 20.8881 15.1305L24.2641 15.0839C24.2641 15.0839 26.0294 14.9761 25.1925 13.6008C25.1233 13.4881 24.7042 12.583 22.683 10.7238C20.5654 8.77771 20.8498 9.09247 23.3988 5.72565C24.9514 3.67543 25.572 2.42375 25.3779 1.88853C25.1937 1.37659 24.0515 1.51254 24.0515 1.51254L20.2514 1.53581C20.2514 1.53581 19.9696 1.49784 19.7607 1.62154C19.5567 1.74279 19.4244 2.02571 19.4244 2.02571C19.4244 2.02571 18.8236 3.61175 18.0214 4.96141C16.329 7.80772 15.6528 7.95836 15.3759 7.782C14.7319 7.36926 14.8926 6.12614 14.8926 5.2431C14.8926 2.48376 15.3153 1.33373 14.0705 1.03611C13.6576 0.936909 13.3535 0.871997 12.2966 0.860975C10.9405 0.847502 9.79329 0.865874 9.14306 1.18063C8.71039 1.39006 8.37662 1.85792 8.58059 1.88486C8.83154 1.91793 9.40018 2.03673 9.70181 2.44334C10.0912 2.96876 10.0776 4.14696 10.0776 4.14696C10.0776 4.14696 10.3014 7.39498 9.55471 7.79792C9.04293 8.07471 8.34077 7.5101 6.83139 4.92712C6.05877 3.6044 5.47529 2.14206 5.47529 2.14206C5.47529 2.14206 5.36279 1.86894 5.1613 1.72197C4.91777 1.54438 4.57782 1.48927 4.57782 1.48927L0.966911 1.51254C0.966911 1.51254 0.424224 1.52723 0.225198 1.76116C0.0484234 1.96814 0.2116 2.39803 0.2116 2.39803C0.2116 2.39803 3.03876 8.95163 6.24049 12.2548C9.17643 15.2823 12.5092 15.0839 12.5092 15.0839H14.0198Z" fill="white"/>
</g>
<defs>
<filter id="filter0_i" x="0.142944" y="0.85791" width="26.7747" height="15.7857" filterUnits="userSpaceOnUse" color-interpolation-filters="sRGB">
<feFlood flood-opacity="0" result="BackgroundImageFix"/>
<feBlend mode="normal" in="SourceGraphic" in2="BackgroundImageFix" result="shape"/>
<feColorMatrix in="SourceAlpha" type="matrix" values="0 0 0 0 0 0 0 0 0 0 0 0 0 0 0 0 0 0 127 0" result="hardAlpha"/>
<feOffset dx="1.5" dy="1.5"/>
<feGaussianBlur stdDeviation="1.25"/>
<feComposite in2="hardAlpha" operator="arithmetic" k2="-1" k3="1"/>
<feColorMatrix type="matrix" values="0 0 0 0 0.578462 0 0 0 0 0.683882 0 0 0 0 0.764974 0 0 0 0.5 0"/>
<feBlend mode="normal" in2="shape" result="effect1_innerShadow"/>
</filter>
</defs>
</svg>
