<svg width="42" height="31" viewBox="0 0 42 31" fill="none" xmlns="http://www.w3.org/2000/svg">
<path d="M4.64661 26.2539C4.51385 25.8556 4.31471 25.0259 3.11986 25.0259C2.45606 25.0259 1.42717 25.5237 1.42717 27.4488C1.42717 28.6768 1.92502 29.8053 3.11986 29.8053C3.49451 29.8159 3.85945 29.6853 4.14227 29.4394C4.42509 29.1934 4.60511 28.8502 4.64661 28.4777H6.07378C5.77507 29.9712 4.81256 31.0001 3.11986 31.0001C1.42717 31.0001 0 29.7721 0 27.4488C0 25.1255 1.36079 23.8311 3.11986 23.8311C4.87894 23.8311 5.97421 25.2582 6.07378 26.2539H4.64661Z" fill="#C1C7CE"/>
<path d="M7.79977 27.6809L9.45927 25.7891H11.0856L9.32651 27.7473L11.1188 30.8339H9.55884L8.364 28.6766L7.79977 29.2408V30.8339H6.47217V25.7891H7.79977V27.6809Z" fill="#C1C7CE"/>
<path d="M15.9642 28.3117C15.9642 30.104 14.7693 30.9669 13.4085 30.9669C12.0477 30.9669 10.8197 30.1372 10.8197 28.3117C10.8197 26.4862 12.0477 25.6565 13.4085 25.6565C14.7693 25.6565 15.9642 26.4862 15.9642 28.3117ZM12.1805 28.3117C12.1805 28.9423 12.3796 29.8384 13.4085 29.8384C14.4374 29.8384 14.6034 28.9423 14.6034 28.3117C14.6034 27.6811 14.4374 26.7518 13.4085 26.7518C12.3796 26.7518 12.1805 27.6479 12.1805 28.3117Z" fill="#C1C7CE"/>
<path d="M20.9427 25.7883V30.8332H19.6151V26.8504H18.2211V28.4103C18.2211 30.3354 17.6237 30.9328 16.6944 30.9328C16.4257 30.9344 16.1579 30.9009 15.8978 30.8332V29.8375H16.2961C16.6944 29.8375 16.8935 29.6384 16.8935 28.1116V25.7551L20.9427 25.7883Z" fill="#C1C7CE"/>
<path d="M22.9347 27.6809L24.6274 25.7891H26.2537L24.4614 27.7473L26.2869 30.8339H24.6937L23.4989 28.6766L22.9347 29.2408V30.8339H21.6403V25.7891H22.9347V27.6809Z" fill="#C1C7CE"/>
<path d="M31.1323 28.3117C31.1323 30.104 29.9042 30.9669 28.5766 30.9669C27.249 30.9669 25.9878 30.1372 25.9878 28.3117C25.9878 26.4862 27.2158 25.6565 28.5766 25.6565C29.9374 25.6565 31.1323 26.4862 31.1323 28.3117ZM27.3486 28.3117C27.3486 28.9423 27.5477 29.8384 28.5766 29.8384C29.6055 29.8384 29.7715 28.9423 29.7715 28.3117C29.7715 27.6811 29.5723 26.7518 28.5766 26.7518C27.5809 26.7518 27.3486 27.6479 27.3486 28.3117Z" fill="#C1C7CE"/>
<path d="M31.5637 25.7891H33.8538C34.9491 25.7891 35.7789 26.2537 35.7789 27.0835C35.7819 27.3474 35.6896 27.6035 35.5188 27.8047C35.3481 28.006 35.1104 28.1388 34.8495 28.1787C35.3806 28.3115 35.9448 28.6102 35.9448 29.44C35.9448 30.2697 35.2478 30.8339 34.0862 30.8339H31.5637V25.7891ZM32.8913 27.8137H33.7543C34.1857 27.8137 34.4844 27.6477 34.4844 27.2494C34.4844 26.8511 34.1857 26.6852 33.7543 26.6852H32.8913V27.8137ZM32.8913 29.9046H33.8538C34.3517 29.9046 34.6504 29.7719 34.6504 29.274C34.6504 28.7762 34.3185 28.6102 33.8538 28.6102H32.8913V29.9046Z" fill="#C1C7CE"/>
<path d="M41.2555 28.3117C41.2555 30.104 40.0275 30.9669 38.6667 30.9669C37.3059 30.9669 36.0779 30.1372 36.0779 28.3117C36.0779 26.4862 37.3059 25.6565 38.6667 25.6565C40.0275 25.6565 41.2555 26.4862 41.2555 28.3117ZM37.4387 28.3117C37.4387 28.9423 37.6378 29.8384 38.6667 29.8384C39.6956 29.8384 39.8947 28.9423 39.8947 28.3117C39.8947 27.6811 39.6956 26.7518 38.6667 26.7518C37.6378 26.7518 37.4387 27.6479 37.4387 28.3117Z" fill="#C1C7CE"/>
<g filter="url(#filter0_i)">
<path d="M9.62527 22.702C10.7537 22.702 13.5085 22.5029 15.5995 20.9761V22.1378H19.7814V17.0929L21.5405 15.2674L25.3574 22.1378H30.3691L24.594 12.3135L30.2363 6.14016H25.0918L19.7814 12.2139V0.564231H15.5995V2.38968C14.3383 1.02889 12.2473 0 9.02785 0C2.05794 0 0.730338 4.24833 0.730338 6.60482C0.730338 9.89064 2.48941 11.7161 5.5429 12.4463L9.89079 13.5084C12.1809 14.0726 13.8072 14.5041 13.8072 16.1967C13.8072 18.4537 11.4507 18.9847 9.29337 18.9847C5.37695 18.9847 4.71314 16.6946 4.71314 15.4666H0.398438C0.398438 18.155 1.75923 22.702 9.62527 22.702ZM12.4796 9.82426L7.2024 8.56303C6.33946 8.3307 4.91229 7.9988 4.91229 6.30611C4.91229 4.61342 6.97007 3.71729 8.69595 3.71729C12.6124 3.71729 12.9775 6.0074 13.1102 6.96991H15.5995V10.9859C14.614 10.4657 13.5653 10.0752 12.4796 9.82426Z" fill="white"/>
</g>
<defs>
<filter id="filter0_i" x="0.398438" y="0" width="32.9706" height="25.702" filterUnits="userSpaceOnUse" color-interpolation-filters="sRGB">
<feFlood flood-opacity="0" result="BackgroundImageFix"/>
<feBlend mode="normal" in="SourceGraphic" in2="BackgroundImageFix" result="shape"/>
<feColorMatrix in="SourceAlpha" type="matrix" values="0 0 0 0 0 0 0 0 0 0 0 0 0 0 0 0 0 0 127 0" result="hardAlpha"/>
<feOffset dx="3" dy="3"/>
<feGaussianBlur stdDeviation="3"/>
<feComposite in2="hardAlpha" operator="arithmetic" k2="-1" k3="1"/>
<feColorMatrix type="matrix" values="0 0 0 0 0.578462 0 0 0 0 0.683882 0 0 0 0 0.764974 0 0 0 0.8 0"/>
<feBlend mode="normal" in2="shape" result="effect1_innerShadow"/>
</filter>
</defs>
</svg>
