<svg width="62" height="68" viewBox="0 0 62 68" fill="none" xmlns="http://www.w3.org/2000/svg">
<g filter="url(#filter0_dii)">
<path d="M49.965 3H9.318C5.8903 3 3.09961 5.75693 3.09961 9.17313V49.6881C3.09961 53.1043 5.8903 55.8612 9.318 55.8612H43.7163L42.1086 50.3174L45.9913 53.8834L49.6617 57.2397L56.1834 62.9333V9.17313C56.1834 5.75693 53.3927 3 49.965 3Z" fill="#F4F8FC"/>
</g>
<g filter="url(#filter1_dii)">
<path d="M38.2579 42.1364C38.2579 42.1364 37.1659 40.8478 36.2559 39.7091C40.2296 38.6003 41.7463 36.143 41.7463 36.143C40.5026 36.9521 39.3196 37.5215 38.2579 37.9111C36.7412 38.5404 35.2852 38.9599 33.8595 39.1996C30.9475 39.739 28.2782 39.5892 26.0031 39.1697C24.2741 38.84 22.7878 38.3606 21.5441 37.8811C20.8464 37.6114 20.0881 37.2818 19.3298 36.8622C19.2387 36.8023 19.1477 36.7723 19.0567 36.7124C18.9961 36.6824 18.9657 36.6525 18.9354 36.6225C18.3894 36.3228 18.0861 36.1131 18.0861 36.1131C18.0861 36.1131 19.5421 38.5104 23.3945 39.6491C22.4844 40.7879 21.3621 42.1364 21.3621 42.1364C14.6584 41.9266 12.1104 37.5814 12.1104 37.5814C12.1104 27.9322 16.4784 20.1109 16.4784 20.1109C20.8464 16.8745 25.0021 16.9644 25.0021 16.9644L25.3055 17.324C19.8454 18.8822 17.3277 21.2496 17.3277 21.2496C17.3277 21.2496 17.9951 20.89 19.1174 20.3806C22.3631 18.9721 24.9415 18.5826 26.0031 18.4927C26.1851 18.4627 26.3368 18.4327 26.5188 18.4327C28.3692 18.193 30.4622 18.1331 32.6462 18.3728C35.5279 18.7024 38.6219 19.5415 41.7766 21.2496C41.7766 21.2496 39.3803 19.0021 34.2236 17.4438L34.6482 16.9644C34.6482 16.9644 38.8039 16.8745 43.172 20.1109C43.172 20.1109 47.54 27.9322 47.54 37.5814C47.54 37.5814 44.9616 41.9266 38.2579 42.1364Z" fill="#F4F8FC"/>
</g>
<g filter="url(#filter2_i)">
<path fill-rule="evenodd" clip-rule="evenodd" d="M20.9355 33.1106C20.9355 31.2285 22.2898 29.6858 24.0052 29.6858C25.7206 29.6858 27.1049 31.2285 27.0748 33.1106C27.0748 34.9926 25.7206 36.5353 24.0052 36.5353C22.3199 36.5353 20.9355 34.9926 20.9355 33.1106ZM31.9209 33.1106C31.9209 31.2285 33.2752 29.6858 34.9905 29.6858C36.7059 29.6858 38.0602 31.2285 38.0602 33.1106C38.0602 34.9926 36.7059 36.5353 34.9905 36.5353C33.3052 36.5353 31.9209 34.9926 31.9209 33.1106Z" fill="#E2EAF1"/>
</g>
<defs>
<filter id="filter0_dii" x="-1.90039" y="-2" width="63.0838" height="69.9333" filterUnits="userSpaceOnUse" color-interpolation-filters="sRGB">
<feFlood flood-opacity="0" result="BackgroundImageFix"/>
<feColorMatrix in="SourceAlpha" type="matrix" values="0 0 0 0 0 0 0 0 0 0 0 0 0 0 0 0 0 0 127 0"/>
<feOffset dx="1" dy="1"/>
<feGaussianBlur stdDeviation="2"/>
<feColorMatrix type="matrix" values="0 0 0 0 0.85098 0 0 0 0 0.890196 0 0 0 0 0.937255 0 0 0 0.5 0"/>
<feBlend mode="normal" in2="BackgroundImageFix" result="effect1_dropShadow"/>
<feBlend mode="normal" in="SourceGraphic" in2="effect1_dropShadow" result="shape"/>
<feColorMatrix in="SourceAlpha" type="matrix" values="0 0 0 0 0 0 0 0 0 0 0 0 0 0 0 0 0 0 127 0" result="hardAlpha"/>
<feOffset dx="3" dy="3"/>
<feGaussianBlur stdDeviation="5"/>
<feComposite in2="hardAlpha" operator="arithmetic" k2="-1" k3="1"/>
<feColorMatrix type="matrix" values="0 0 0 0 0.682353 0 0 0 0 0.756863 0 0 0 0 0.831373 0 0 0 0.7 0"/>
<feBlend mode="normal" in2="shape" result="effect2_innerShadow"/>
<feColorMatrix in="SourceAlpha" type="matrix" values="0 0 0 0 0 0 0 0 0 0 0 0 0 0 0 0 0 0 127 0" result="hardAlpha"/>
<feOffset dx="-6" dy="-6"/>
<feGaussianBlur stdDeviation="2.5"/>
<feComposite in2="hardAlpha" operator="arithmetic" k2="-1" k3="1"/>
<feColorMatrix type="matrix" values="0 0 0 0 1 0 0 0 0 1 0 0 0 0 1 0 0 0 1 0"/>
<feBlend mode="normal" in2="effect2_innerShadow" result="effect3_innerShadow"/>
</filter>
<filter id="filter1_dii" x="7.11035" y="11.9641" width="45.4297" height="35.1723" filterUnits="userSpaceOnUse" color-interpolation-filters="sRGB">
<feFlood flood-opacity="0" result="BackgroundImageFix"/>
<feColorMatrix in="SourceAlpha" type="matrix" values="0 0 0 0 0 0 0 0 0 0 0 0 0 0 0 0 0 0 127 0"/>
<feOffset dx="1" dy="1"/>
<feGaussianBlur stdDeviation="2"/>
<feColorMatrix type="matrix" values="0 0 0 0 0.85098 0 0 0 0 0.890196 0 0 0 0 0.937255 0 0 0 0.5 0"/>
<feBlend mode="normal" in2="BackgroundImageFix" result="effect1_dropShadow"/>
<feBlend mode="normal" in="SourceGraphic" in2="effect1_dropShadow" result="shape"/>
<feColorMatrix in="SourceAlpha" type="matrix" values="0 0 0 0 0 0 0 0 0 0 0 0 0 0 0 0 0 0 127 0" result="hardAlpha"/>
<feOffset dx="2" dy="2"/>
<feGaussianBlur stdDeviation="5"/>
<feComposite in2="hardAlpha" operator="arithmetic" k2="-1" k3="1"/>
<feColorMatrix type="matrix" values="0 0 0 0 0.682353 0 0 0 0 0.756863 0 0 0 0 0.831373 0 0 0 0.7 0"/>
<feBlend mode="normal" in2="shape" result="effect2_innerShadow"/>
<feColorMatrix in="SourceAlpha" type="matrix" values="0 0 0 0 0 0 0 0 0 0 0 0 0 0 0 0 0 0 127 0" result="hardAlpha"/>
<feOffset dx="-6" dy="-6"/>
<feGaussianBlur stdDeviation="2.5"/>
<feComposite in2="hardAlpha" operator="arithmetic" k2="-1" k3="1"/>
<feColorMatrix type="matrix" values="0 0 0 0 1 0 0 0 0 1 0 0 0 0 1 0 0 0 1 0"/>
<feBlend mode="normal" in2="effect2_innerShadow" result="effect3_innerShadow"/>
</filter>
<filter id="filter2_i" x="20.9355" y="29.6858" width="18.1246" height="7.84952" filterUnits="userSpaceOnUse" color-interpolation-filters="sRGB">
<feFlood flood-opacity="0" result="BackgroundImageFix"/>
<feBlend mode="normal" in="SourceGraphic" in2="BackgroundImageFix" result="shape"/>
<feColorMatrix in="SourceAlpha" type="matrix" values="0 0 0 0 0 0 0 0 0 0 0 0 0 0 0 0 0 0 127 0" result="hardAlpha"/>
<feOffset dx="1" dy="1"/>
<feGaussianBlur stdDeviation="0.5"/>
<feComposite in2="hardAlpha" operator="arithmetic" k2="-1" k3="1"/>
<feColorMatrix type="matrix" values="0 0 0 0 0.787494 0 0 0 0 0.845863 0 0 0 0 0.904232 0 0 0 1 0"/>
<feBlend mode="normal" in2="shape" result="effect1_innerShadow"/>
</filter>
</defs>
</svg>
