<svg width="67" height="67" viewBox="0 0 67 67" fill="none" xmlns="http://www.w3.org/2000/svg">
<g filter="url(#filter0_dii)">
<path d="M47.2312 25.1084C46.9957 23.1954 46.4077 21.6933 45.3635 20.3628C44.0076 18.6495 42.2749 17.6236 39.7095 17.0151C38.0377 16.6094 37.3622 16.656 36.7576 17.2083C36.1944 17.7258 36.0844 18.7631 36.5148 19.4349C36.8175 19.9225 37.1667 20.0972 38.1379 20.2878C39.4312 20.5257 40.3249 20.8346 41.138 21.2994C42.8636 22.2958 43.6672 23.8551 43.7533 26.3794C43.7935 27.5646 43.8959 27.929 44.3099 28.3494C45.0771 29.1178 46.4426 28.9684 47.0219 28.0488C47.2344 27.7022 47.2668 27.5514 47.2893 26.7465C47.3041 26.2483 47.2827 25.5066 47.2312 25.1084Z" fill="#C1C7CE"/>
</g>
<g filter="url(#filter1_dii)">
<path d="M53.9904 27.2654C53.6496 21.4044 51.3572 16.689 47.2545 13.3714C44.9429 11.5072 42.1488 10.2253 39.086 9.60189C37.9641 9.37893 35.8985 9.19821 35.5441 9.30159C35.2097 9.39731 34.7367 9.7594 34.5259 10.0868C34.303 10.4419 34.2527 11.2347 34.4429 11.6933C34.7498 12.4599 35.3209 12.7308 36.92 12.8707C39.3854 13.0864 41.9282 13.9525 43.8494 15.2348C46.0429 16.6948 47.7865 18.6916 48.9145 21.0382C49.8891 23.0543 50.4886 25.9598 50.4719 28.5617C50.4664 29.5027 50.6117 30.0341 50.9901 30.4227C51.5614 31.0201 52.394 31.1507 53.1289 30.7539C53.9433 30.3256 54.1338 29.5738 53.9904 27.2654Z" fill="#C1C7CE"/>
</g>
<g filter="url(#filter2_dii)">
<path d="M61.4695 49.8361C61.3549 49.5011 61.0874 48.9843 60.8963 48.6876C59.6923 46.8695 53.2235 41.8071 49.9938 40.1515C48.1496 39.2042 46.7832 38.8884 45.7704 39.1849C44.6811 39.4913 44.1077 39.9983 42.2827 42.2664C41.547 43.1756 40.7921 44.0273 40.5914 44.1612C40.0945 44.5057 39.1199 44.7833 38.432 44.7833C36.8362 44.7736 33.941 43.7402 31.7146 42.3812C29.9851 41.3287 27.7684 39.4435 26.0675 37.5773C24.0608 35.3859 22.6946 33.4528 21.6147 31.2709C20.2197 28.467 19.8662 26.754 20.449 25.5003C20.5923 25.1845 20.7835 24.8497 20.8694 24.7442C20.9554 24.6487 21.8537 23.9117 22.8473 23.1079C24.7967 21.5577 25.1119 21.2036 25.475 20.1413C25.9337 18.7919 25.8095 17.4139 25.1024 16.0264C24.5577 14.9736 23.134 12.6769 22.1021 11.1937C20.7357 9.24153 17.334 5.06914 16.6555 4.50437C15.4325 3.50922 13.8655 3.33686 12.1359 4.00687C10.311 4.71505 6.89012 7.47108 5.42813 9.39462C4.10951 11.1363 3.60325 12.3707 3.52673 13.9976C3.45989 15.3373 3.57451 15.8923 4.28161 17.6054C9.81409 31.0412 18.0697 41.7688 29.4118 50.2859C35.3361 54.7357 41.48 58.1235 47.8534 60.4394C51.5703 61.7886 53.1852 61.8556 55.0866 60.7456C55.8892 60.267 57.8768 58.2287 58.9851 56.7454C60.8198 54.2764 61.4982 53.1376 61.6893 52.2285C61.8231 51.6065 61.718 50.5252 61.4695 49.8361Z" fill="#F4F8FC"/>
</g>
<g filter="url(#filter3_dii)">
<path d="M60.8712 28.6116C60.7488 25.2963 60.1907 22.577 59.0267 19.5451C57.8776 16.5628 56.7147 14.6167 54.5183 11.9845C52.4418 9.51652 50.8289 8.10736 48.2709 6.53875C44.7021 4.35324 40.359 2.90696 35.4917 2.29871C33.8318 2.08613 33.4563 2.10131 32.947 2.4411C31.9602 3.08479 31.9734 4.69029 32.9633 5.32433C33.291 5.52602 33.5818 5.59949 34.9095 5.77328C36.9477 6.04769 38.2583 6.3063 39.8135 6.73061C45.9117 8.39765 50.6013 11.8051 53.7366 16.8634C56.3602 21.0795 57.4494 25.2959 57.2947 30.6809C57.241 32.5015 57.28 32.8219 57.5583 33.2592C58.0913 34.0745 59.4967 34.2358 60.2177 33.5593C60.6663 33.147 60.7509 32.8374 60.8392 31.2793C60.8816 30.4664 60.8907 29.2665 60.8712 28.6116Z" fill="#C1C7CE"/>
</g>
<defs>
<filter id="filter0_dii" x="32.4144" y="14.5936" width="18.696" height="18.3952" filterUnits="userSpaceOnUse" color-interpolation-filters="sRGB">
<feFlood flood-opacity="0" result="BackgroundImageFix"/>
<feColorMatrix in="SourceAlpha" type="matrix" values="0 0 0 0 0 0 0 0 0 0 0 0 0 0 0 0 0 0 127 0"/>
<feOffset dx="1" dy="2"/>
<feGaussianBlur stdDeviation="1"/>
<feColorMatrix type="matrix" values="0 0 0 0 0.85098 0 0 0 0 0.890196 0 0 0 0 0.937255 0 0 0 0.6 0"/>
<feBlend mode="normal" in2="BackgroundImageFix" result="effect1_dropShadow"/>
<feBlend mode="normal" in="SourceGraphic" in2="effect1_dropShadow" result="shape"/>
<feColorMatrix in="SourceAlpha" type="matrix" values="0 0 0 0 0 0 0 0 0 0 0 0 0 0 0 0 0 0 127 0" result="hardAlpha"/>
<feOffset dx="11" dy="-20"/>
<feGaussianBlur stdDeviation="2"/>
<feComposite in2="hardAlpha" operator="arithmetic" k2="-1" k3="1"/>
<feColorMatrix type="matrix" values="0 0 0 0 0.682353 0 0 0 0 0.756863 0 0 0 0 0.831373 0 0 0 0.9 0"/>
<feBlend mode="normal" in2="shape" result="effect2_innerShadow"/>
<feColorMatrix in="SourceAlpha" type="matrix" values="0 0 0 0 0 0 0 0 0 0 0 0 0 0 0 0 0 0 127 0" result="hardAlpha"/>
<feOffset dx="-4" dy="-2"/>
<feGaussianBlur stdDeviation="1.5"/>
<feComposite in2="hardAlpha" operator="arithmetic" k2="-1" k3="1"/>
<feColorMatrix type="matrix" values="0 0 0 0 1 0 0 0 0 1 0 0 0 0 1 0 0 0 1 0"/>
<feBlend mode="normal" in2="effect2_innerShadow" result="effect3_innerShadow"/>
</filter>
<filter id="filter1_dii" x="29.7161" y="5.10657" width="29.8835" height="30.0191" filterUnits="userSpaceOnUse" color-interpolation-filters="sRGB">
<feFlood flood-opacity="0" result="BackgroundImageFix"/>
<feColorMatrix in="SourceAlpha" type="matrix" values="0 0 0 0 0 0 0 0 0 0 0 0 0 0 0 0 0 0 127 0"/>
<feOffset dx="1" dy="2"/>
<feGaussianBlur stdDeviation="1"/>
<feColorMatrix type="matrix" values="0 0 0 0 0.85098 0 0 0 0 0.890196 0 0 0 0 0.937255 0 0 0 0.6 0"/>
<feBlend mode="normal" in2="BackgroundImageFix" result="effect1_dropShadow"/>
<feBlend mode="normal" in="SourceGraphic" in2="effect1_dropShadow" result="shape"/>
<feColorMatrix in="SourceAlpha" type="matrix" values="0 0 0 0 0 0 0 0 0 0 0 0 0 0 0 0 0 0 127 0" result="hardAlpha"/>
<feOffset dx="11" dy="-20"/>
<feGaussianBlur stdDeviation="2"/>
<feComposite in2="hardAlpha" operator="arithmetic" k2="-1" k3="1"/>
<feColorMatrix type="matrix" values="0 0 0 0 0.682353 0 0 0 0 0.756863 0 0 0 0 0.831373 0 0 0 0.9 0"/>
<feBlend mode="normal" in2="shape" result="effect2_innerShadow"/>
<feColorMatrix in="SourceAlpha" type="matrix" values="0 0 0 0 0 0 0 0 0 0 0 0 0 0 0 0 0 0 127 0" result="hardAlpha"/>
<feOffset dx="-4" dy="-2"/>
<feGaussianBlur stdDeviation="1.5"/>
<feComposite in2="hardAlpha" operator="arithmetic" k2="-1" k3="1"/>
<feColorMatrix type="matrix" values="0 0 0 0 1 0 0 0 0 1 0 0 0 0 1 0 0 0 1 0"/>
<feBlend mode="normal" in2="effect2_innerShadow" result="effect3_innerShadow"/>
</filter>
<filter id="filter2_dii" x="-1.48975" y="-1.39404" width="68.2375" height="67.9141" filterUnits="userSpaceOnUse" color-interpolation-filters="sRGB">
<feFlood flood-opacity="0" result="BackgroundImageFix"/>
<feColorMatrix in="SourceAlpha" type="matrix" values="0 0 0 0 0 0 0 0 0 0 0 0 0 0 0 0 0 0 127 0"/>
<feOffset dx="1" dy="1"/>
<feGaussianBlur stdDeviation="2"/>
<feColorMatrix type="matrix" values="0 0 0 0 0.85098 0 0 0 0 0.890196 0 0 0 0 0.937255 0 0 0 0.5 0"/>
<feBlend mode="normal" in2="BackgroundImageFix" result="effect1_dropShadow"/>
<feBlend mode="normal" in="SourceGraphic" in2="effect1_dropShadow" result="shape"/>
<feColorMatrix in="SourceAlpha" type="matrix" values="0 0 0 0 0 0 0 0 0 0 0 0 0 0 0 0 0 0 127 0" result="hardAlpha"/>
<feOffset dx="3" dy="3"/>
<feGaussianBlur stdDeviation="3.5"/>
<feComposite in2="hardAlpha" operator="arithmetic" k2="-1" k3="1"/>
<feColorMatrix type="matrix" values="0 0 0 0 0.682353 0 0 0 0 0.756863 0 0 0 0 0.831373 0 0 0 0.8 0"/>
<feBlend mode="normal" in2="shape" result="effect2_innerShadow"/>
<feColorMatrix in="SourceAlpha" type="matrix" values="0 0 0 0 0 0 0 0 0 0 0 0 0 0 0 0 0 0 127 0" result="hardAlpha"/>
<feOffset dx="-5" dy="-5"/>
<feGaussianBlur stdDeviation="2.5"/>
<feComposite in2="hardAlpha" operator="arithmetic" k2="-1" k3="1"/>
<feColorMatrix type="matrix" values="0 0 0 0 1 0 0 0 0 1 0 0 0 0 1 0 0 0 1 0"/>
<feBlend mode="normal" in2="effect2_innerShadow" result="effect3_innerShadow"/>
</filter>
<filter id="filter3_dii" x="26.7957" y="-1.99988" width="40.3836" height="40.1256" filterUnits="userSpaceOnUse" color-interpolation-filters="sRGB">
<feFlood flood-opacity="0" result="BackgroundImageFix"/>
<feColorMatrix in="SourceAlpha" type="matrix" values="0 0 0 0 0 0 0 0 0 0 0 0 0 0 0 0 0 0 127 0"/>
<feOffset dx="1" dy="2"/>
<feGaussianBlur stdDeviation="1"/>
<feColorMatrix type="matrix" values="0 0 0 0 0.85098 0 0 0 0 0.890196 0 0 0 0 0.937255 0 0 0 0.6 0"/>
<feBlend mode="normal" in2="BackgroundImageFix" result="effect1_dropShadow"/>
<feBlend mode="normal" in="SourceGraphic" in2="effect1_dropShadow" result="shape"/>
<feColorMatrix in="SourceAlpha" type="matrix" values="0 0 0 0 0 0 0 0 0 0 0 0 0 0 0 0 0 0 127 0" result="hardAlpha"/>
<feOffset dx="11" dy="-20"/>
<feGaussianBlur stdDeviation="2"/>
<feComposite in2="hardAlpha" operator="arithmetic" k2="-1" k3="1"/>
<feColorMatrix type="matrix" values="0 0 0 0 0.682353 0 0 0 0 0.756863 0 0 0 0 0.831373 0 0 0 0.9 0"/>
<feBlend mode="normal" in2="shape" result="effect2_innerShadow"/>
<feColorMatrix in="SourceAlpha" type="matrix" values="0 0 0 0 0 0 0 0 0 0 0 0 0 0 0 0 0 0 127 0" result="hardAlpha"/>
<feOffset dx="-4" dy="-2"/>
<feGaussianBlur stdDeviation="1.5"/>
<feComposite in2="hardAlpha" operator="arithmetic" k2="-1" k3="1"/>
<feColorMatrix type="matrix" values="0 0 0 0 1 0 0 0 0 1 0 0 0 0 1 0 0 0 1 0"/>
<feBlend mode="normal" in2="effect2_innerShadow" result="effect3_innerShadow"/>
</filter>
</defs>
</svg>
