<svg width="67" height="66" viewBox="0 0 67 66" fill="none" xmlns="http://www.w3.org/2000/svg">
<g filter="url(#filter0_dii)">
<rect x="3.51025" y="3" width="58" height="58" rx="10" fill="#F4F8FC"/>
</g>
<g filter="url(#filter1_i)">
<path d="M32.8732 44.9183H33.0126C37.5055 44.9183 41.1607 41.2632 41.1607 36.7703V21.148C41.1607 16.6551 37.5055 13 33.0126 13H32.8732C28.3803 13 24.7252 16.6551 24.7252 21.148C24.7252 21.8373 25.2842 22.3963 25.9735 22.3963C26.6627 22.3963 27.2217 21.8373 27.2217 21.148C27.2217 18.032 29.7569 15.4965 32.8732 15.4965H33.0126C36.1289 15.4965 38.6641 18.032 38.6641 21.148V36.7703C38.6641 39.8866 36.1287 42.4218 33.0126 42.4218H32.8732C29.7569 42.4218 27.2217 39.8864 27.2217 36.7703V21.148C27.2217 20.4588 26.6627 19.8998 25.9735 19.8998C25.2842 19.8998 24.7252 20.4588 24.7252 21.148V36.7703C24.7252 41.2632 28.3803 44.9183 32.8732 44.9183Z" fill="#F4F8FC"/>
</g>
<g filter="url(#filter2_i)">
<path d="M45.1275 36.8574C44.4383 36.8574 43.8793 37.4164 43.8793 38.1057C43.8793 44.0689 39.0281 48.9202 33.0649 48.9202H32.8211C26.858 48.9202 22.0068 44.0689 22.0068 38.1057C22.0068 37.4164 21.4478 36.8574 20.7585 36.8574C20.0693 36.8574 19.5103 37.4164 19.5103 38.1057C19.5103 45.4455 25.4815 51.4168 32.8211 51.4168H33.0649C40.4045 51.4168 46.3758 45.4455 46.3758 38.1057C46.3758 37.4162 45.817 36.8574 45.1275 36.8574Z" fill="#F4F8FC"/>
</g>
<g filter="url(#filter3_i)">
<path d="M31.5103 54H34.5103V61H31.5103L31.5103 54Z" fill="#F4F8FC"/>
</g>
<defs>
<filter id="filter0_dii" x="-1.48975" y="-2" width="68" height="68" filterUnits="userSpaceOnUse" color-interpolation-filters="sRGB">
<feFlood flood-opacity="0" result="BackgroundImageFix"/>
<feColorMatrix in="SourceAlpha" type="matrix" values="0 0 0 0 0 0 0 0 0 0 0 0 0 0 0 0 0 0 127 0"/>
<feOffset dx="1" dy="1"/>
<feGaussianBlur stdDeviation="2"/>
<feColorMatrix type="matrix" values="0 0 0 0 0.85098 0 0 0 0 0.890196 0 0 0 0 0.937255 0 0 0 0.5 0"/>
<feBlend mode="normal" in2="BackgroundImageFix" result="effect1_dropShadow"/>
<feBlend mode="normal" in="SourceGraphic" in2="effect1_dropShadow" result="shape"/>
<feColorMatrix in="SourceAlpha" type="matrix" values="0 0 0 0 0 0 0 0 0 0 0 0 0 0 0 0 0 0 127 0" result="hardAlpha"/>
<feOffset dx="3" dy="3"/>
<feGaussianBlur stdDeviation="5"/>
<feComposite in2="hardAlpha" operator="arithmetic" k2="-1" k3="1"/>
<feColorMatrix type="matrix" values="0 0 0 0 0.682353 0 0 0 0 0.756863 0 0 0 0 0.831373 0 0 0 0.7 0"/>
<feBlend mode="normal" in2="shape" result="effect2_innerShadow"/>
<feColorMatrix in="SourceAlpha" type="matrix" values="0 0 0 0 0 0 0 0 0 0 0 0 0 0 0 0 0 0 127 0" result="hardAlpha"/>
<feOffset dx="-6" dy="-6"/>
<feGaussianBlur stdDeviation="2.5"/>
<feComposite in2="hardAlpha" operator="arithmetic" k2="-1" k3="1"/>
<feColorMatrix type="matrix" values="0 0 0 0 1 0 0 0 0 1 0 0 0 0 1 0 0 0 1 0"/>
<feBlend mode="normal" in2="effect2_innerShadow" result="effect3_innerShadow"/>
</filter>
<filter id="filter1_i" x="24.7252" y="13" width="18.4355" height="33.9183" filterUnits="userSpaceOnUse" color-interpolation-filters="sRGB">
<feFlood flood-opacity="0" result="BackgroundImageFix"/>
<feBlend mode="normal" in="SourceGraphic" in2="BackgroundImageFix" result="shape"/>
<feColorMatrix in="SourceAlpha" type="matrix" values="0 0 0 0 0 0 0 0 0 0 0 0 0 0 0 0 0 0 127 0" result="hardAlpha"/>
<feOffset dx="2" dy="2"/>
<feGaussianBlur stdDeviation="1"/>
<feComposite in2="hardAlpha" operator="arithmetic" k2="-1" k3="1"/>
<feColorMatrix type="matrix" values="0 0 0 0 0.752941 0 0 0 0 0.811765 0 0 0 0 0.87451 0 0 0 1 0"/>
<feBlend mode="normal" in2="shape" result="effect1_innerShadow"/>
</filter>
<filter id="filter2_i" x="19.5103" y="36.8574" width="28.8656" height="16.5593" filterUnits="userSpaceOnUse" color-interpolation-filters="sRGB">
<feFlood flood-opacity="0" result="BackgroundImageFix"/>
<feBlend mode="normal" in="SourceGraphic" in2="BackgroundImageFix" result="shape"/>
<feColorMatrix in="SourceAlpha" type="matrix" values="0 0 0 0 0 0 0 0 0 0 0 0 0 0 0 0 0 0 127 0" result="hardAlpha"/>
<feOffset dx="2" dy="2"/>
<feGaussianBlur stdDeviation="1"/>
<feComposite in2="hardAlpha" operator="arithmetic" k2="-1" k3="1"/>
<feColorMatrix type="matrix" values="0 0 0 0 0.752941 0 0 0 0 0.811765 0 0 0 0 0.87451 0 0 0 1 0"/>
<feBlend mode="normal" in2="shape" result="effect1_innerShadow"/>
</filter>
<filter id="filter3_i" x="31.5103" y="54" width="5" height="9" filterUnits="userSpaceOnUse" color-interpolation-filters="sRGB">
<feFlood flood-opacity="0" result="BackgroundImageFix"/>
<feBlend mode="normal" in="SourceGraphic" in2="BackgroundImageFix" result="shape"/>
<feColorMatrix in="SourceAlpha" type="matrix" values="0 0 0 0 0 0 0 0 0 0 0 0 0 0 0 0 0 0 127 0" result="hardAlpha"/>
<feOffset dx="2" dy="2"/>
<feGaussianBlur stdDeviation="1"/>
<feComposite in2="hardAlpha" operator="arithmetic" k2="-1" k3="1"/>
<feColorMatrix type="matrix" values="0 0 0 0 0.81724 0 0 0 0 0.869036 0 0 0 0 0.920833 0 0 0 1 0"/>
<feBlend mode="normal" in2="shape" result="effect1_innerShadow"/>
</filter>
</defs>
</svg>
