<svg width="52" height="52" viewBox="0 0 52 52" fill="none" xmlns="http://www.w3.org/2000/svg">
<g filter="url(#filter0_dii)">
<path d="M35.8274 19.549C35.6506 18.1126 35.2092 16.9848 34.4251 15.9858C33.4071 14.6995 32.1061 13.9292 30.18 13.4723C28.9247 13.1677 28.4176 13.2027 27.9636 13.6174C27.5407 14.0059 27.4581 14.7848 27.7813 15.2891C28.0085 15.6552 28.2707 15.7864 28.9999 15.9295C29.971 16.1082 30.642 16.34 31.2525 16.6891C32.5482 17.4372 33.1515 18.6079 33.2161 20.5033C33.2463 21.3932 33.3232 21.6668 33.634 21.9824C34.2101 22.5594 35.2354 22.4471 35.6703 21.7567C35.8299 21.4965 35.8542 21.3832 35.8711 20.7789C35.8822 20.4048 35.8661 19.848 35.8274 19.549Z" fill="#C1C7CE"/>
</g>
<g filter="url(#filter1_dii)">
<path d="M40.9021 21.17C40.6462 16.7695 38.925 13.229 35.8445 10.738C34.109 9.33834 32.011 8.37588 29.7115 7.90781C28.8691 7.7404 27.3182 7.60471 27.0521 7.68233C26.801 7.7542 26.4459 8.02607 26.2876 8.27191C26.1202 8.53852 26.0825 9.13378 26.2253 9.4781C26.4557 10.0537 26.8845 10.2571 28.0852 10.3621C29.9362 10.5241 31.8454 11.1744 33.288 12.1371C34.9349 13.2333 36.244 14.7327 37.091 16.4945C37.8227 18.0083 38.2728 20.1898 38.2603 22.1434C38.2562 22.8499 38.3653 23.2489 38.6494 23.5406C39.0783 23.9892 39.7035 24.0873 40.2552 23.7894C40.8667 23.4678 41.0097 22.9033 40.9021 21.17Z" fill="#C1C7CE"/>
</g>
<g filter="url(#filter2_dii)">
<path d="M46.5175 38.1165C46.4314 37.865 46.2306 37.477 46.087 37.2542C45.183 35.8892 40.3261 32.0881 37.9011 30.845C36.5165 30.1338 35.4906 29.8967 34.7301 30.1193C33.9122 30.3494 33.4817 30.7301 32.1114 32.433C31.5591 33.1156 30.9923 33.7551 30.8416 33.8557C30.4685 34.1143 29.7368 34.3228 29.2202 34.3228C28.0221 34.3155 25.8483 33.5395 24.1766 32.5192C22.8781 31.7289 21.2137 30.3135 19.9366 28.9123C18.4299 27.2669 17.4041 25.8155 16.5934 24.1773C15.546 22.072 15.2805 20.7858 15.7181 19.8445C15.8257 19.6074 15.9692 19.356 16.0337 19.2769C16.0983 19.2051 16.7728 18.6518 17.5188 18.0482C18.9824 16.8843 19.2192 16.6184 19.4918 15.8209C19.8361 14.8077 19.7429 13.773 19.212 12.7312C18.803 11.9408 17.7341 10.2164 16.9593 9.10271C15.9333 7.63699 13.3793 4.50425 12.8698 4.0802C11.9515 3.33301 10.775 3.2036 9.47636 3.70667C8.10619 4.23838 5.5377 6.30769 4.44 7.75194C3.44994 9.05961 3.06982 9.98646 3.01237 11.208C2.96218 12.2138 3.04824 12.6306 3.57916 13.9168C7.7331 24.0048 13.9316 32.0594 22.4476 38.4543C26.8957 41.7953 31.5088 44.3389 36.2941 46.0778C39.0848 47.0908 40.2973 47.1411 41.725 46.3077C42.3276 45.9484 43.8199 44.418 44.6521 43.3043C46.0296 41.4504 46.539 40.5954 46.6825 39.9128C46.7829 39.4458 46.704 38.6339 46.5175 38.1165Z" fill="#F4F8FC"/>
</g>
<g filter="url(#filter3_dii)">
<path d="M46.0687 22.179C45.9768 19.6898 45.5578 17.6481 44.6839 15.3717C43.8211 13.1325 42.9479 11.6713 41.2988 9.69496C39.7397 7.84193 38.5287 6.78388 36.6081 5.60613C33.9285 3.96519 30.6676 2.87928 27.013 2.42259C25.7668 2.26298 25.4848 2.27438 25.1025 2.5295C24.3615 3.0128 24.3714 4.21825 25.1147 4.69431C25.3607 4.84574 25.579 4.90091 26.5759 5.03139C28.1063 5.23743 29.0903 5.4316 30.258 5.75018C34.8367 7.00184 38.3578 9.56028 40.7118 13.3582C42.6818 16.5237 43.4995 19.6895 43.3834 23.7328C43.343 25.0997 43.3723 25.3402 43.5813 25.6686C43.9815 26.2808 45.0367 26.4018 45.5781 25.8939C45.9149 25.5844 45.9784 25.3519 46.0447 24.182C46.0765 23.5717 46.0833 22.6708 46.0687 22.179Z" fill="#C1C7CE"/>
</g>
<defs>
<filter id="filter0_dii" x="23.9551" y="11.1558" width="15.5325" height="15.3067" filterUnits="userSpaceOnUse" color-interpolation-filters="sRGB">
<feFlood flood-opacity="0" result="BackgroundImageFix"/>
<feColorMatrix in="SourceAlpha" type="matrix" values="0 0 0 0 0 0 0 0 0 0 0 0 0 0 0 0 0 0 127 0"/>
<feOffset dx="1" dy="2"/>
<feGaussianBlur stdDeviation="1"/>
<feColorMatrix type="matrix" values="0 0 0 0 0.85098 0 0 0 0 0.890196 0 0 0 0 0.937255 0 0 0 0.6 0"/>
<feBlend mode="normal" in2="BackgroundImageFix" result="effect1_dropShadow"/>
<feBlend mode="normal" in="SourceGraphic" in2="effect1_dropShadow" result="shape"/>
<feColorMatrix in="SourceAlpha" type="matrix" values="0 0 0 0 0 0 0 0 0 0 0 0 0 0 0 0 0 0 127 0" result="hardAlpha"/>
<feOffset dx="11" dy="-20"/>
<feGaussianBlur stdDeviation="2"/>
<feComposite in2="hardAlpha" operator="arithmetic" k2="-1" k3="1"/>
<feColorMatrix type="matrix" values="0 0 0 0 0.682353 0 0 0 0 0.756863 0 0 0 0 0.831373 0 0 0 0.9 0"/>
<feBlend mode="normal" in2="shape" result="effect2_innerShadow"/>
<feColorMatrix in="SourceAlpha" type="matrix" values="0 0 0 0 0 0 0 0 0 0 0 0 0 0 0 0 0 0 127 0" result="hardAlpha"/>
<feOffset dx="-4" dy="-2"/>
<feGaussianBlur stdDeviation="1.5"/>
<feComposite in2="hardAlpha" operator="arithmetic" k2="-1" k3="1"/>
<feColorMatrix type="matrix" values="0 0 0 0 1 0 0 0 0 1 0 0 0 0 1 0 0 0 1 0"/>
<feBlend mode="normal" in2="effect2_innerShadow" result="effect3_innerShadow"/>
</filter>
<filter id="filter1_dii" x="21.9287" y="3.53613" width="24.1816" height="24.5325" filterUnits="userSpaceOnUse" color-interpolation-filters="sRGB">
<feFlood flood-opacity="0" result="BackgroundImageFix"/>
<feColorMatrix in="SourceAlpha" type="matrix" values="0 0 0 0 0 0 0 0 0 0 0 0 0 0 0 0 0 0 127 0"/>
<feOffset dx="1" dy="2"/>
<feGaussianBlur stdDeviation="1"/>
<feColorMatrix type="matrix" values="0 0 0 0 0.85098 0 0 0 0 0.890196 0 0 0 0 0.937255 0 0 0 0.6 0"/>
<feBlend mode="normal" in2="BackgroundImageFix" result="effect1_dropShadow"/>
<feBlend mode="normal" in="SourceGraphic" in2="effect1_dropShadow" result="shape"/>
<feColorMatrix in="SourceAlpha" type="matrix" values="0 0 0 0 0 0 0 0 0 0 0 0 0 0 0 0 0 0 127 0" result="hardAlpha"/>
<feOffset dx="11" dy="-20"/>
<feGaussianBlur stdDeviation="2"/>
<feComposite in2="hardAlpha" operator="arithmetic" k2="-1" k3="1"/>
<feColorMatrix type="matrix" values="0 0 0 0 0.682353 0 0 0 0 0.756863 0 0 0 0 0.831373 0 0 0 0.9 0"/>
<feBlend mode="normal" in2="shape" result="effect2_innerShadow"/>
<feColorMatrix in="SourceAlpha" type="matrix" values="0 0 0 0 0 0 0 0 0 0 0 0 0 0 0 0 0 0 127 0" result="hardAlpha"/>
<feOffset dx="-4" dy="-2"/>
<feGaussianBlur stdDeviation="1.5"/>
<feComposite in2="hardAlpha" operator="arithmetic" k2="-1" k3="1"/>
<feColorMatrix type="matrix" values="0 0 0 0 1 0 0 0 0 1 0 0 0 0 1 0 0 0 1 0"/>
<feBlend mode="normal" in2="effect2_innerShadow" result="effect3_innerShadow"/>
</filter>
<filter id="filter2_dii" x="-2" y="-1.59424" width="53.7264" height="53.4835" filterUnits="userSpaceOnUse" color-interpolation-filters="sRGB">
<feFlood flood-opacity="0" result="BackgroundImageFix"/>
<feColorMatrix in="SourceAlpha" type="matrix" values="0 0 0 0 0 0 0 0 0 0 0 0 0 0 0 0 0 0 127 0"/>
<feOffset dx="1" dy="1"/>
<feGaussianBlur stdDeviation="2"/>
<feColorMatrix type="matrix" values="0 0 0 0 0.85098 0 0 0 0 0.890196 0 0 0 0 0.937255 0 0 0 0.5 0"/>
<feBlend mode="normal" in2="BackgroundImageFix" result="effect1_dropShadow"/>
<feBlend mode="normal" in="SourceGraphic" in2="effect1_dropShadow" result="shape"/>
<feColorMatrix in="SourceAlpha" type="matrix" values="0 0 0 0 0 0 0 0 0 0 0 0 0 0 0 0 0 0 127 0" result="hardAlpha"/>
<feOffset dx="3" dy="3"/>
<feGaussianBlur stdDeviation="3.5"/>
<feComposite in2="hardAlpha" operator="arithmetic" k2="-1" k3="1"/>
<feColorMatrix type="matrix" values="0 0 0 0 0.682353 0 0 0 0 0.756863 0 0 0 0 0.831373 0 0 0 0.8 0"/>
<feBlend mode="normal" in2="shape" result="effect2_innerShadow"/>
<feColorMatrix in="SourceAlpha" type="matrix" values="0 0 0 0 0 0 0 0 0 0 0 0 0 0 0 0 0 0 127 0" result="hardAlpha"/>
<feOffset dx="-5" dy="-5"/>
<feGaussianBlur stdDeviation="2.5"/>
<feComposite in2="hardAlpha" operator="arithmetic" k2="-1" k3="1"/>
<feColorMatrix type="matrix" values="0 0 0 0 1 0 0 0 0 1 0 0 0 0 1 0 0 0 1 0"/>
<feBlend mode="normal" in2="effect2_innerShadow" result="effect3_innerShadow"/>
</filter>
<filter id="filter3_dii" x="19.7363" y="-1.80176" width="32.0653" height="32.1208" filterUnits="userSpaceOnUse" color-interpolation-filters="sRGB">
<feFlood flood-opacity="0" result="BackgroundImageFix"/>
<feColorMatrix in="SourceAlpha" type="matrix" values="0 0 0 0 0 0 0 0 0 0 0 0 0 0 0 0 0 0 127 0"/>
<feOffset dx="1" dy="2"/>
<feGaussianBlur stdDeviation="1"/>
<feColorMatrix type="matrix" values="0 0 0 0 0.85098 0 0 0 0 0.890196 0 0 0 0 0.937255 0 0 0 0.6 0"/>
<feBlend mode="normal" in2="BackgroundImageFix" result="effect1_dropShadow"/>
<feBlend mode="normal" in="SourceGraphic" in2="effect1_dropShadow" result="shape"/>
<feColorMatrix in="SourceAlpha" type="matrix" values="0 0 0 0 0 0 0 0 0 0 0 0 0 0 0 0 0 0 127 0" result="hardAlpha"/>
<feOffset dx="11" dy="-20"/>
<feGaussianBlur stdDeviation="2"/>
<feComposite in2="hardAlpha" operator="arithmetic" k2="-1" k3="1"/>
<feColorMatrix type="matrix" values="0 0 0 0 0.682353 0 0 0 0 0.756863 0 0 0 0 0.831373 0 0 0 0.9 0"/>
<feBlend mode="normal" in2="shape" result="effect2_innerShadow"/>
<feColorMatrix in="SourceAlpha" type="matrix" values="0 0 0 0 0 0 0 0 0 0 0 0 0 0 0 0 0 0 127 0" result="hardAlpha"/>
<feOffset dx="-4" dy="-2"/>
<feGaussianBlur stdDeviation="1.5"/>
<feComposite in2="hardAlpha" operator="arithmetic" k2="-1" k3="1"/>
<feColorMatrix type="matrix" values="0 0 0 0 1 0 0 0 0 1 0 0 0 0 1 0 0 0 1 0"/>
<feBlend mode="normal" in2="effect2_innerShadow" result="effect3_innerShadow"/>
</filter>
</defs>
</svg>
