<svg width="19" height="19" viewBox="0 0 19 19" fill="none" xmlns="http://www.w3.org/2000/svg">
<path d="M19 9.52169C19 10.468 18.2329 11.2352 17.2865 11.2352H11.2812V17.2187C11.2812 18.2025 10.4838 19 9.5 19C8.51624 19 7.71875 18.2025 7.71875 17.2188V11.2352H1.71347C0.767147 11.2352 0 10.468 0 9.52169C0 8.57537 0.767147 7.80822 1.71347 7.80822H7.71875V1.78125C7.71875 0.797494 8.51624 0 9.5 0C10.4838 0 11.2812 0.797493 11.2812 1.78125V7.80822H17.2865C18.2329 7.80822 19 8.57537 19 9.52169Z" fill="#148AFF"/>
</svg>
