<svg width="84" height="35" viewBox="0 0 84 35" fill="none" xmlns="http://www.w3.org/2000/svg">
<path d="M65.4762 0C56.1756 0 46.131 8.82878 41.6667 13.2504C37.2024 8.82878 27.1577 0 17.8572 0C6.67569 0 0 6.54216 0 17.5C0 28.4578 6.67569 35 17.8572 35C27.1577 35 37.2024 26.1712 41.6667 21.7496C46.131 26.1712 56.1756 35 65.4762 35C76.6578 35 83.3333 28.4578 83.3333 17.5C83.3333 6.54216 76.6577 0 65.4762 0ZM17.857 29.1667C9.95816 29.1667 5.95216 25.2408 5.95216 17.5C5.95216 9.75915 9.95816 5.83328 17.857 5.83328C24.4047 5.83328 33.0951 13.0636 37.5832 17.5C33.1041 21.9422 24.4314 29.1667 17.857 29.1667ZM65.4762 29.1667C58.9285 29.1667 50.2381 21.9364 45.7499 17.5C50.2142 13.0609 58.9018 5.83328 65.4762 5.83328C73.375 5.83328 77.381 9.75915 77.381 17.5C77.381 25.2408 73.375 29.1667 65.4762 29.1667Z" fill="url(#paint0_linear)"/>
<defs>
<linearGradient id="paint0_linear" x1="-6.20882e-07" y1="35" x2="89.26" y2="24.4077" gradientUnits="userSpaceOnUse">
<stop stop-color="#23B5FF"/>
<stop offset="0.755208" stop-color="#1B7CFF"/>
</linearGradient>
</defs>
</svg>
