<svg width="100" height="43" viewBox="0 0 100 43" fill="none" xmlns="http://www.w3.org/2000/svg">
<path d="M78.5714 -0.000976562C67.4107 -0.000976562 55.3572 10.8098 50 16.2241C44.6428 10.8098 32.5893 -0.000976562 21.4286 -0.000976562C8.01082 -0.000976562 0 8.00984 0 21.4276C0 34.8454 8.01082 42.8562 21.4286 42.8562C32.5893 42.8562 44.6428 32.0455 50 26.6312C55.3572 32.0455 67.4107 42.8562 78.5714 42.8562C91.9894 42.8562 100 34.8454 100 21.4276C100 8.00984 91.9892 -0.000976562 78.5714 -0.000976562ZM21.4284 35.7134C11.9498 35.7134 7.14259 30.9062 7.14259 21.4276C7.14259 11.949 11.9498 7.14182 21.4284 7.14182C29.2856 7.14182 39.7141 15.9953 45.0999 21.4276C39.7249 26.867 29.3176 35.7134 21.4284 35.7134ZM78.5714 35.7134C70.7142 35.7134 60.2857 26.8599 54.8999 21.4276C60.2571 15.992 70.6822 7.14182 78.5714 7.14182C88.05 7.14182 92.8572 11.949 92.8572 21.4276C92.8572 30.9062 88.05 35.7134 78.5714 35.7134Z" fill="url(#paint0_linear)"/>
<defs>
<linearGradient id="paint0_linear" x1="-7.45058e-07" y1="42.8562" x2="107.171" y2="30.3928" gradientUnits="userSpaceOnUse">
<stop stop-color="#23B5FF"/>
<stop offset="0.755208" stop-color="#1B7CFF"/>
</linearGradient>
</defs>
</svg>
