<svg width="29" height="22" viewBox="0 0 29 22" fill="none" xmlns="http://www.w3.org/2000/svg">
<g filter="url(#filter0_i)">
<path d="M9.40824 22C10.4625 22 13.0361 21.807 14.9896 20.3275V21.4532H18.8966V16.5643L20.54 14.7953L24.1059 21.4532H28.7881L23.3927 11.9327L28.6641 5.95029H23.8579L18.8966 11.8363V0.546784H14.9896V2.31579C13.8113 0.997076 11.8579 0 8.8501 0C2.33847 0 1.09816 4.11696 1.09816 6.40058C1.09816 9.58479 2.74157 11.3538 5.59429 12.0614L9.6563 13.0906C11.7958 13.6374 13.3152 14.0556 13.3152 15.6959C13.3152 17.883 11.1137 18.3977 9.09817 18.3977C5.43925 18.3977 4.81909 16.1784 4.81909 14.9883H0.788086C0.788086 17.5936 2.0594 22 9.40824 22ZM12.0749 9.52047L7.14468 8.29825C6.33847 8.0731 5.00514 7.75146 5.00514 6.11111C5.00514 4.47076 6.92762 3.60234 8.54002 3.60234C12.1989 3.60234 12.54 5.82164 12.6641 6.75439H14.9896V10.6462C14.069 10.1421 13.0892 9.76366 12.0749 9.52047Z" fill="white"/>
</g>
<defs>
<filter id="filter0_i" x="0.788086" y="0" width="31" height="25" filterUnits="userSpaceOnUse" color-interpolation-filters="sRGB">
<feFlood flood-opacity="0" result="BackgroundImageFix"/>
<feBlend mode="normal" in="SourceGraphic" in2="BackgroundImageFix" result="shape"/>
<feColorMatrix in="SourceAlpha" type="matrix" values="0 0 0 0 0 0 0 0 0 0 0 0 0 0 0 0 0 0 127 0" result="hardAlpha"/>
<feOffset dx="3" dy="3"/>
<feGaussianBlur stdDeviation="3"/>
<feComposite in2="hardAlpha" operator="arithmetic" k2="-1" k3="1"/>
<feColorMatrix type="matrix" values="0 0 0 0 0.578462 0 0 0 0 0.683882 0 0 0 0 0.764974 0 0 0 0.8 0"/>
<feBlend mode="normal" in2="shape" result="effect1_innerShadow"/>
</filter>
</defs>
</svg>
