<svg width="18" height="10" viewBox="0 0 18 10" fill="none" xmlns="http://www.w3.org/2000/svg">
<g filter="url(#filter0_i)">
<path d="M9.71381 9.9582C9.71381 9.9582 10.0331 9.92305 10.1967 9.74902C10.3464 9.58956 10.3412 9.28864 10.3412 9.28864C10.3412 9.28864 10.3213 7.88349 10.9798 7.67602C11.6288 7.47198 12.4621 9.03487 13.3465 9.63585C14.0145 10.0902 14.5216 9.99078 14.5216 9.99078L16.8848 9.9582C16.8848 9.9582 18.1205 9.88276 17.5347 8.91999C17.4862 8.84111 17.1929 8.20755 15.7781 6.90614C14.2957 5.54386 14.4948 5.76419 16.2791 3.40742C17.3659 1.97227 17.8003 1.09609 17.6645 0.721437C17.5355 0.363077 16.736 0.458239 16.736 0.458239L14.0759 0.474528C14.0759 0.474528 13.8787 0.447952 13.7324 0.534541C13.5896 0.619416 13.497 0.817456 13.497 0.817456C13.497 0.817456 13.0765 1.92769 12.5149 2.87245C11.3302 4.86486 10.8569 4.97031 10.6631 4.84686C10.2122 4.55794 10.3247 3.68776 10.3247 3.06964C10.3247 1.13809 10.6207 0.333071 9.74929 0.124742C9.46027 0.0552989 9.2474 0.00986095 8.50754 0.00214504C7.55827 -0.00728548 6.75524 0.00557435 6.30008 0.225906C5.99721 0.372507 5.76357 0.700004 5.90635 0.718865C6.08202 0.742012 6.48007 0.825172 6.69121 1.1098C6.96379 1.47759 6.95427 2.30233 6.95427 2.30233C6.95427 2.30233 7.11089 4.57595 6.58823 4.85801C6.22999 5.05176 5.73848 4.65654 4.68191 2.84845C4.14108 1.92254 3.73264 0.898902 3.73264 0.898902C3.73264 0.898902 3.6539 0.707719 3.51285 0.604841C3.34238 0.48053 3.10441 0.44195 3.10441 0.44195L0.576777 0.458239C0.576777 0.458239 0.196896 0.468527 0.0575778 0.632275C-0.0661647 0.777162 0.0480591 1.07808 0.0480591 1.07808C0.0480591 1.07808 2.02707 5.6656 4.26828 7.97779C6.32344 10.0971 8.65638 9.9582 8.65638 9.9582H9.71381Z" fill="white"/>
</g>
<defs>
<filter id="filter0_i" x="0" y="0" width="19.1923" height="11.5" filterUnits="userSpaceOnUse" color-interpolation-filters="sRGB">
<feFlood flood-opacity="0" result="BackgroundImageFix"/>
<feBlend mode="normal" in="SourceGraphic" in2="BackgroundImageFix" result="shape"/>
<feColorMatrix in="SourceAlpha" type="matrix" values="0 0 0 0 0 0 0 0 0 0 0 0 0 0 0 0 0 0 127 0" result="hardAlpha"/>
<feOffset dx="1.5" dy="1.5"/>
<feGaussianBlur stdDeviation="1.25"/>
<feComposite in2="hardAlpha" operator="arithmetic" k2="-1" k3="1"/>
<feColorMatrix type="matrix" values="0 0 0 0 0.578462 0 0 0 0 0.683882 0 0 0 0 0.764974 0 0 0 0.5 0"/>
<feBlend mode="normal" in2="shape" result="effect1_innerShadow"/>
</filter>
</defs>
</svg>
