<svg width="38" height="38" viewBox="0 0 38 38" fill="none" xmlns="http://www.w3.org/2000/svg"><g filter="url(#filter0_i)" fill="#25D366"><path fill-rule="evenodd" clip-rule="evenodd" d="M18.609 36.97h-.008a18.406 18.406 0 01-8.803-2.243L.033 37.29l2.613-9.546a18.389 18.389 0 01-2.459-9.21C.191 8.378 8.455.114 18.609.114A18.302 18.302 0 0131.64 5.516a18.31 18.31 0 015.39 13.032c-.004 10.155-8.264 18.418-18.421 18.422zm8.65-14.456c.321.155.538.26.63.415.116.192.116 1.113-.268 2.189-.383 1.075-2.222 2.056-3.107 2.188-.793.119-1.796.168-2.899-.182a26.427 26.427 0 01-2.624-.97c-4.315-1.863-7.231-6.045-7.782-6.836a5.238 5.238 0 00-.08-.114l-.005-.005c-.243-.325-1.875-2.503-1.875-4.757 0-2.12 1.041-3.231 1.52-3.743l.09-.097c.422-.46.921-.575 1.228-.575.307 0 .614.002.882.016.033.002.068.001.103.001.269-.002.603-.004.933.789.127.305.312.757.508 1.233.396.965.834 2.03.911 2.185.115.23.192.499.038.806l-.064.131c-.115.236-.2.409-.396.637-.077.09-.156.187-.236.283a7.626 7.626 0 01-.454.523c-.23.23-.47.479-.202.94.268.46 1.192 1.968 2.56 3.188a11.893 11.893 0 003.398 2.148c.126.055.229.1.304.137.46.23.729.192.997-.115.269-.307 1.15-1.344 1.458-1.805.306-.46.613-.384 1.035-.23.422.153 2.685 1.267 3.146 1.497l.251.123z"/><path d="M27.008 22.391c-.46-.23-2.724-1.344-3.146-1.497-.421-.154-.728-.23-1.035.23-.307.46-1.19 1.498-1.458 1.805-.268.307-.537.346-.997.115-.075-.038-.178-.082-.304-.137a11.893 11.893 0 01-3.398-2.148c-1.368-1.22-2.292-2.727-2.56-3.188-.269-.461-.029-.71.202-.94.138-.137.296-.33.454-.523l.236-.283c.196-.228.28-.401.396-.637l.064-.13c.154-.308.077-.577-.038-.807-.077-.154-.515-1.22-.91-2.184-.197-.477-.382-.93-.51-1.234-.329-.793-.663-.79-.932-.789l-.103-.001a18.243 18.243 0 00-.882-.016c-.307 0-.806.115-1.227.575l-.09.097c-.48.512-1.521 1.623-1.521 3.743 0 2.254 1.632 4.432 1.875 4.757l.004.005.08.114c.552.79 3.468 4.973 7.783 6.836 1.098.474 1.956.758 2.624.97 1.103.35 2.106.3 2.9.182.884-.132 2.723-1.113 3.106-2.188.384-1.076.384-1.997.269-2.19-.093-.154-.31-.259-.63-.414a19.05 19.05 0 01-.252-.123z"/></g><g filter="url(#filter1_d)" fill="#F4F8FC"><path fill-rule="evenodd" clip-rule="evenodd" d="M27.331 22.617c.326.158.546.264.64.421.116.196.116 1.133-.273 2.226s-2.253 2.09-3.15 2.225c-.803.12-1.82.17-2.938-.186a26.79 26.79 0 01-2.66-.986c-4.374-1.894-7.33-6.145-7.889-6.95a5.221 5.221 0 00-.082-.115l-.004-.005c-.246-.33-1.901-2.544-1.901-4.836 0-2.155 1.056-3.285 1.542-3.805l.091-.098c.428-.469.933-.586 1.244-.586.311 0 .623.003.895.016.033.002.068.002.104.002.272-.002.611-.004.945.802.129.31.317.769.516 1.254.401.98.845 2.063.923 2.22.117.234.194.508.039.82l-.066.133c-.117.24-.202.415-.4.648-.079.09-.16.19-.24.288-.16.196-.32.392-.46.531-.234.234-.477.487-.205.955.272.469 1.208 2.001 2.595 3.242a12.032 12.032 0 003.444 2.183c.129.056.233.101.309.14.466.234.738.195 1.01-.118.273-.312 1.167-1.366 1.478-1.834.311-.469.622-.39 1.05-.235.428.157 2.722 1.289 3.188 1.523.091.046.177.087.255.125z"/><path d="M27.076 22.492c-.466-.234-2.76-1.366-3.188-1.523-.428-.156-.739-.234-1.05.235-.31.468-1.205 1.522-1.477 1.834-.273.313-.545.352-1.011.118a6.842 6.842 0 00-.309-.14 12.055 12.055 0 01-3.444-2.183c-1.387-1.24-2.323-2.773-2.595-3.242-.272-.468-.03-.721.204-.955.14-.14.3-.335.461-.531.08-.099.161-.197.24-.288.198-.233.284-.409.4-.648l.066-.133c.155-.312.078-.586-.039-.82-.078-.156-.522-1.24-.923-2.22-.199-.485-.387-.944-.516-1.254-.334-.806-.673-.804-.945-.802-.036 0-.07 0-.104-.002a18.487 18.487 0 00-.895-.016c-.31 0-.816.117-1.244.585l-.091.099c-.486.52-1.542 1.65-1.542 3.805 0 2.292 1.655 4.505 1.901 4.836l.004.005c.016.02.043.06.082.116.559.804 3.515 5.055 7.889 6.95a26.79 26.79 0 002.66.985c1.118.356 2.135.306 2.939.186.896-.135 2.76-1.132 3.15-2.225.388-1.093.388-2.03.271-2.226-.093-.157-.313-.263-.639-.42-.078-.04-.164-.08-.255-.126z"/></g><defs><filter id="filter0_i" x=".033" y=".113" width="36.998" height="37.176" filterUnits="userSpaceOnUse" color-interpolation-filters="sRGB"><feFlood flood-opacity="0" result="BackgroundImageFix"/><feBlend in="SourceGraphic" in2="BackgroundImageFix" result="shape"/><feColorMatrix in="SourceAlpha" values="0 0 0 0 0 0 0 0 0 0 0 0 0 0 0 0 0 0 127 0" result="hardAlpha"/><feOffset/><feGaussianBlur stdDeviation="10"/><feComposite in2="hardAlpha" operator="arithmetic" k2="-1" k3="1"/><feColorMatrix values="0 0 0 0 0.00672299 0 0 0 0 0.394141 0 0 0 0 0.151448 0 0 0 0.6 0"/><feBlend in2="shape" result="effect1_innerShadow"/></filter><filter id="filter1_d" x="5.074" y="6.922" width="30.964" height="29.657" filterUnits="userSpaceOnUse" color-interpolation-filters="sRGB"><feFlood flood-opacity="0" result="BackgroundImageFix"/><feColorMatrix in="SourceAlpha" values="0 0 0 0 0 0 0 0 0 0 0 0 0 0 0 0 0 0 127 0"/><feOffset dx="2" dy="3"/><feGaussianBlur stdDeviation="3"/><feColorMatrix values="0 0 0 0 0.00784314 0 0 0 0 0.396078 0 0 0 0 0.152941 0 0 0 0.6 0"/><feBlend in2="BackgroundImageFix" result="effect1_dropShadow"/><feBlend in="SourceGraphic" in2="effect1_dropShadow" result="shape"/></filter></defs></svg>