<svg width="62" height="51" viewBox="0 0 62 51" fill="none" xmlns="http://www.w3.org/2000/svg"><g filter="url(#filter0_i)"><path d="M.923 23.56c6.257-3.446 13.241-6.322 19.767-9.213C31.916 9.61 43.187 4.958 54.572.627c2.215-.739 6.195-1.46 6.586 1.822-.214 4.646-1.093 9.266-1.696 13.885-1.53 10.158-3.3 20.282-5.025 30.407-.594 3.372-4.819 5.118-7.522 2.96-6.496-4.388-13.043-8.734-19.457-13.224-2.1-2.135-.152-5.2 1.724-6.725C34.532 24.48 40.207 20 45.279 14.453c1.367-3.303-2.674-.52-4.008.334-7.325 5.048-14.47 10.404-22.194 14.84-3.945 2.172-8.543.316-12.486-.896-3.536-1.463-8.716-2.939-5.668-5.17z" fill="#009FEF"/></g><defs><filter id="filter0_i" x="0" y="0" width="61.158" height="54.651" filterUnits="userSpaceOnUse" color-interpolation-filters="sRGB"><feFlood flood-opacity="0" result="BackgroundImageFix"/><feBlend in="SourceGraphic" in2="BackgroundImageFix" result="shape"/><feColorMatrix in="SourceAlpha" values="0 0 0 0 0 0 0 0 0 0 0 0 0 0 0 0 0 0 127 0" result="hardAlpha"/><feOffset dy="4"/><feGaussianBlur stdDeviation="2.5"/><feComposite in2="hardAlpha" operator="arithmetic" k2="-1" k3="1"/><feColorMatrix values="0 0 0 0 0.580392 0 0 0 0 0.682353 0 0 0 0 0.764706 0 0 0 0.2 0"/><feBlend in2="shape" result="effect1_innerShadow"/></filter></defs></svg>