<svg width="73" height="43" viewBox="0 0 73 43" fill="none" xmlns="http://www.w3.org/2000/svg"><g filter="url(#filter0_i)"><path fill-rule="evenodd" clip-rule="evenodd" d="M70.629 3.07c.529-1.662 0-2.87-2.342-2.87h-7.78c-1.965 0-2.871 1.057-3.4 2.19 0 0-4.004 9.67-9.594 15.94-1.813 1.812-2.644 2.417-3.626 2.417-.529 0-1.208-.605-1.208-2.267V2.994c0-1.964-.605-2.87-2.267-2.87H28.175c-1.21 0-1.965.906-1.965 1.813 0 1.888 2.796 2.342 3.098 7.63v11.482c0 2.493-.454 2.946-1.436 2.946-2.644 0-9.065-9.745-12.917-20.85C14.199.955 13.444.124 11.48.124H3.624C1.357.124.98 1.18.98 2.314c0 2.04 2.644 12.314 12.313 25.911 6.42 9.292 15.561 14.278 23.796 14.278 4.985 0 5.59-1.133 5.59-3.022v-7.025c0-2.267.453-2.644 2.04-2.644 1.132 0 3.172.604 7.78 5.061 5.288 5.288 6.194 7.705 9.14 7.705h7.781c2.267 0 3.324-1.133 2.72-3.324-.68-2.19-3.248-5.363-6.572-9.14-1.813-2.115-4.533-4.457-5.364-5.59-1.133-1.511-.83-2.115 0-3.475-.075 0 9.443-13.447 10.425-17.98z" fill="#4382CF"/></g><defs><filter id="filter0_i" x=".98" y=".124" width="75.328" height="46.454" filterUnits="userSpaceOnUse" color-interpolation-filters="sRGB"><feFlood flood-opacity="0" result="BackgroundImageFix"/><feBlend in="SourceGraphic" in2="BackgroundImageFix" result="shape"/><feColorMatrix in="SourceAlpha" values="0 0 0 0 0 0 0 0 0 0 0 0 0 0 0 0 0 0 127 0" result="hardAlpha"/><feOffset dx="4" dy="4"/><feGaussianBlur stdDeviation="3"/><feComposite in2="hardAlpha" operator="arithmetic" k2="-1" k3="1"/><feColorMatrix values="0 0 0 0 0.144001 0 0 0 0 0.244011 0 0 0 0 0.365234 0 0 0 0.45 0"/><feBlend in2="shape" result="effect1_innerShadow"/></filter></defs></svg>