<svg width="41" height="35" viewBox="0 0 41 35" fill="none" xmlns="http://www.w3.org/2000/svg"><g filter="url(#filter0_i)"><path d="M.645 16.372c4.091-2.254 8.658-4.135 12.926-6.025 7.341-3.097 14.712-6.14 22.157-8.973 1.449-.482 4.051-.954 4.306 1.192-.14 3.039-.714 6.06-1.108 9.08-1.001 6.643-2.158 13.264-3.286 19.885-.389 2.205-3.151 3.347-4.92 1.936-4.248-2.87-8.529-5.712-12.723-8.648-1.374-1.396-.1-3.401 1.127-4.398 3.5-3.448 7.21-6.378 10.526-10.005.895-2.16-1.748-.34-2.62.219-4.79 3.3-9.463 6.803-14.514 9.705-2.58 1.42-5.587.206-8.165-.586-2.312-.958-5.7-1.922-3.706-3.382z" fill="#009FEF"/></g><defs><filter id="filter0_i" x=".041" y=".965" width="39.994" height="37.123" filterUnits="userSpaceOnUse" color-interpolation-filters="sRGB"><feFlood flood-opacity="0" result="BackgroundImageFix"/><feBlend in="SourceGraphic" in2="BackgroundImageFix" result="shape"/><feColorMatrix in="SourceAlpha" values="0 0 0 0 0 0 0 0 0 0 0 0 0 0 0 0 0 0 127 0" result="hardAlpha"/><feOffset dy="4"/><feGaussianBlur stdDeviation="2.5"/><feComposite in2="hardAlpha" operator="arithmetic" k2="-1" k3="1"/><feColorMatrix values="0 0 0 0 0.580392 0 0 0 0 0.682353 0 0 0 0 0.764706 0 0 0 0.2 0"/><feBlend in2="shape" result="effect1_innerShadow"/></filter></defs></svg>