<svg width="59" height="48" viewBox="0 0 59 48" fill="none" xmlns="http://www.w3.org/2000/svg"><g filter="url(#filter0_i)"><path d="M56.214 15.517a1.891 1.891 0 001.891-1.891V2.114H46.558a1.888 1.888 0 000 3.776h5.09l-5.38 5.37C42.896 4.59 35.969 0 27.986 0 16.698 0 7.515 9.168 7.515 20.436c0 2.28.382 4.472 1.075 6.522l-7.25 7.239a1.89 1.89 0 102.669 2.674l6.248-6.238c3.542 6.113 10.16 10.237 17.728 10.237a20.4 20.4 0 0013.07-4.72L51.59 46.669a1.89 1.89 0 102.67-2.675L43.727 33.481a20.319 20.319 0 004.728-13.045c0-1.839-.248-3.62-.707-5.316l6.574-6.561v5.067c0 1.044.846 1.89 1.89 1.891zm-44.917 4.919c0-9.187 7.486-16.66 16.688-16.66 6.958 0 12.932 4.273 15.434 10.329l-9.155 9.138-10.977-10.957L11.66 23.893a16.622 16.622 0 01-.364-3.457zm33.377 0c0 9.186-7.486 16.66-16.689 16.66-6.535 0-12.201-3.772-14.939-9.247l10.242-10.224 10.976 10.957 10.273-10.254c.087.691.138 1.394.138 2.108z" fill="#fff"/></g><g filter="url(#filter1_d)"><circle cx="27.72" cy="20.52" r="16.92" fill="#F4F8FC"/></g><path d="M58.105 2.114v11.512a1.891 1.891 0 01-3.782 0V8.559l-6.574 6.561-3.212 3.208-6.74 6.728a5 5 0 01-7.065 0l-6.031-6.02a2 2 0 00-2.826 0l-8.829 8.813-2.79 2.784-6.247 6.238a1.89 1.89 0 11-2.67-2.675l7.251-7.238 3.07-3.065 8.095-8.08a5 5 0 017.065 0l6.03 6.02a2 2 0 002.827 0l7.742-7.729 2.85-2.844 5.38-5.37h-5.09a1.888 1.888 0 010-3.776h11.546z" fill="#148AFF"/><defs><filter id="filter0_i" x=".785" y="0" width="61.32" height="50.22" filterUnits="userSpaceOnUse" color-interpolation-filters="sRGB"><feFlood flood-opacity="0" result="BackgroundImageFix"/><feBlend in="SourceGraphic" in2="BackgroundImageFix" result="shape"/><feColorMatrix in="SourceAlpha" values="0 0 0 0 0 0 0 0 0 0 0 0 0 0 0 0 0 0 127 0" result="hardAlpha"/><feOffset dx="4" dy="3"/><feGaussianBlur stdDeviation="3"/><feComposite in2="hardAlpha" operator="arithmetic" k2="-1" k3="1"/><feColorMatrix values="0 0 0 0 0.578462 0 0 0 0 0.683882 0 0 0 0 0.764974 0 0 0 0.6 0"/><feBlend in2="shape" result="effect1_innerShadow"/></filter><filter id="filter1_d" x="10.8" y="3.6" width="35.84" height="35.84" filterUnits="userSpaceOnUse" color-interpolation-filters="sRGB"><feFlood flood-opacity="0" result="BackgroundImageFix"/><feColorMatrix in="SourceAlpha" values="0 0 0 0 0 0 0 0 0 0 0 0 0 0 0 0 0 0 127 0"/><feOffset dx="1" dy="1"/><feGaussianBlur stdDeviation=".5"/><feColorMatrix values="0 0 0 0 0.760784 0 0 0 0 0.819608 0 0 0 0 0.866667 0 0 0 1 0"/><feBlend in2="BackgroundImageFix" result="effect1_dropShadow"/><feBlend in="SourceGraphic" in2="effect1_dropShadow" result="shape"/></filter></defs></svg>