<svg width="93" height="120" viewBox="0 0 93 120" fill="none" xmlns="http://www.w3.org/2000/svg"><path fill-rule="evenodd" clip-rule="evenodd" d="M45.984 0l46.93 80H0L45.984 0zm.05 11.222L9.739 74.365h73.335l-37.04-63.143z" fill="#62709D"/><path d="M46.572 63.658c7.47 0 13.525-6.056 13.525-13.525a13.6 13.6 0 00-.237-2.536s-7.851 2.218-13.006 2.254c-5.372.038-13.57-2.254-13.57-2.254a13.6 13.6 0 00-.237 2.536c0 7.47 6.055 13.525 13.525 13.525z" fill="#148AFF"/><path fill-rule="evenodd" clip-rule="evenodd" d="M36.053 48.118a10.78 10.78 0 00-.188 2.01c0 5.914 4.794 10.708 10.708 10.708 5.913 0 10.707-4.794 10.707-10.707 0-.69-.065-1.362-.188-2.011l5.537-1.05c.189.993.287 2.017.287 3.06 0 9.026-7.317 16.344-16.343 16.344S30.23 59.155 30.23 50.129c0-1.044.098-2.068.287-3.062l5.536 1.05z" fill="#62709D"/><path d="M51.08 55.2a4.508 4.508 0 11-9.016 0 4.508 4.508 0 019.017 0z" fill="#F4F8FC"/><path fill-rule="evenodd" clip-rule="evenodd" d="M34.504 44.833c2.955 1.825 7.215 3.046 12.068 3.046 4.854 0 9.113-1.22 12.068-3.046 3-1.852 4.275-4.041 4.275-5.97h5.636c0 4.606-3.014 8.334-6.95 10.765-3.98 2.458-9.3 3.887-15.029 3.887-5.728 0-11.05-1.429-15.03-3.887-3.935-2.431-6.948-6.16-6.948-10.766h5.635c0 1.93 1.276 4.119 4.275 5.971z" fill="#62709D"/><path fill-rule="evenodd" clip-rule="evenodd" d="M46.009 72.675c11.204 0 20.287-9.083 20.287-20.288 0-11.204-9.083-20.288-20.287-20.288-11.205 0-20.288 9.084-20.288 20.288 0 11.205 9.083 20.288 20.288 20.288zm0 5.636c14.317 0 25.923-11.607 25.923-25.924S60.326 26.464 46.01 26.464c-14.317 0-25.924 11.606-25.924 25.923 0 14.317 11.607 25.924 25.924 25.924z" fill="#62709D"/><path d="M12.219 112.484l3.14-11.39h4.72L14.374 118h-4.313L4.36 101.094h4.72l3.14 11.39zM26.844 118h-4.532v-16.906h4.532V118zm-4.797-21.281c0-.677.224-1.235.672-1.672.458-.438 1.078-.656 1.86-.656.77 0 1.384.218 1.843.656.458.437.687.995.687 1.672 0 .687-.234 1.25-.703 1.687-.458.438-1.067.656-1.828.656-.76 0-1.375-.218-1.844-.656-.458-.437-.687-1-.687-1.687zm17.687 16.609c0-.552-.276-.984-.828-1.297-.541-.323-1.416-.609-2.625-.859-4.02-.844-6.031-2.552-6.031-5.125 0-1.5.62-2.75 1.86-3.75 1.25-1.011 2.88-1.516 4.89-1.516 2.146 0 3.86.505 5.14 1.516 1.292 1.01 1.938 2.323 1.938 3.937h-4.516c0-.645-.208-1.177-.624-1.593-.417-.427-1.068-.641-1.954-.641-.76 0-1.349.172-1.765.516a1.626 1.626 0 00-.625 1.312c0 .5.234.906.703 1.219.479.302 1.281.568 2.406.797 1.125.218 2.073.468 2.844.75 2.385.875 3.578 2.39 3.578 4.547 0 1.541-.661 2.791-1.984 3.75-1.323.948-3.032 1.421-5.125 1.421-1.417 0-2.677-.25-3.782-.75-1.093-.51-1.953-1.203-2.578-2.078-.625-.885-.937-1.838-.937-2.859H34c.042.802.339 1.417.89 1.844.553.427 1.292.64 2.22.64.864 0 1.515-.161 1.953-.484.447-.333.671-.766.671-1.297zM51.812 118h-4.53v-16.906h4.53V118zm-4.796-21.281c0-.677.224-1.235.672-1.672.458-.438 1.078-.656 1.859-.656.77 0 1.385.218 1.844.656.458.437.687.995.687 1.672 0 .687-.234 1.25-.703 1.687-.458.438-1.068.656-1.828.656s-1.375-.218-1.844-.656c-.458-.437-.687-1-.687-1.687z" fill="#62709D"/><path d="M54.844 109.391c0-1.677.323-3.172.968-4.485.646-1.312 1.573-2.328 2.782-3.047 1.218-.718 2.63-1.078 4.234-1.078 2.281 0 4.14.698 5.578 2.094 1.448 1.396 2.255 3.292 2.422 5.687l.031 1.157c0 2.593-.724 4.677-2.171 6.25-1.448 1.562-3.391 2.343-5.829 2.343-2.437 0-4.385-.781-5.843-2.343-1.448-1.563-2.172-3.688-2.172-6.375v-.203zm4.515.328c0 1.604.302 2.833.907 3.687.604.844 1.468 1.266 2.593 1.266 1.094 0 1.948-.417 2.563-1.25.615-.844.922-2.188.922-4.031 0-1.573-.307-2.792-.922-3.657-.615-.864-1.48-1.296-2.594-1.296-1.104 0-1.958.432-2.562 1.296-.605.855-.907 2.183-.907 3.985zm18.438-8.625l.14 1.953c1.209-1.511 2.829-2.266 4.86-2.266 1.791 0 3.125.526 4 1.578s1.323 2.625 1.344 4.719V118h-4.516v-10.812c0-.959-.208-1.652-.625-2.079-.417-.437-1.11-.656-2.078-.656-1.271 0-2.224.542-2.86 1.625V118h-4.515v-16.906h4.25z" fill="#148AFF"/></svg>