<svg width="26" height="16" viewBox="0 0 26 16" fill="none" xmlns="http://www.w3.org/2000/svg"><g filter="url(#filter0_i)"><path d="M14.02 15.084s.456-.05.69-.299c.213-.228.206-.658.206-.658s-.028-2.007.912-2.303c.928-.292 2.118 1.94 3.381 2.8.955.649 1.68.506 1.68.506l3.375-.046s1.765-.108.928-1.483c-.069-.113-.488-1.018-2.509-2.877-2.118-1.946-1.833-1.632.716-4.998 1.552-2.05 2.173-3.302 1.979-3.837-.184-.512-1.326-.376-1.326-.376l-3.8.023s-.282-.038-.491.086c-.204.12-.337.404-.337.404s-.6 1.586-1.403 2.935c-1.692 2.847-2.368 2.997-2.645 2.821-.644-.413-.483-1.656-.483-2.539 0-2.76.422-3.91-.823-4.207-.412-.1-.716-.164-1.773-.175-1.357-.013-2.504.005-3.154.32-.433.21-.766.677-.562.704.25.033.82.152 1.12.558.39.526.377 1.704.377 1.704s.223 3.248-.523 3.65c-.512.278-1.214-.287-2.724-2.87a23.916 23.916 0 01-1.356-2.785s-.112-.273-.314-.42c-.243-.178-.583-.233-.583-.233l-3.611.024s-.543.014-.742.248c-.177.207-.013.637-.013.637s2.827 6.554 6.028 9.857c2.936 3.027 6.27 2.829 6.27 2.829h1.51z" fill="#fff"/></g><defs><filter id="filter0_i" x=".143" y=".858" width="26.775" height="15.786" filterUnits="userSpaceOnUse" color-interpolation-filters="sRGB"><feFlood flood-opacity="0" result="BackgroundImageFix"/><feBlend in="SourceGraphic" in2="BackgroundImageFix" result="shape"/><feColorMatrix in="SourceAlpha" values="0 0 0 0 0 0 0 0 0 0 0 0 0 0 0 0 0 0 127 0" result="hardAlpha"/><feOffset dx="1.5" dy="1.5"/><feGaussianBlur stdDeviation="1.25"/><feComposite in2="hardAlpha" operator="arithmetic" k2="-1" k3="1"/><feColorMatrix values="0 0 0 0 0.578462 0 0 0 0 0.683882 0 0 0 0 0.764974 0 0 0 0.5 0"/><feBlend in2="shape" result="effect1_innerShadow"/></filter></defs></svg>