<svg width="81" height="58" viewBox="0 0 81 58" fill="none" xmlns="http://www.w3.org/2000/svg"><path d="M78.828 9.103c-.926-3.557-3.654-6.358-7.119-7.309C65.431.067 40.255.067 40.255.067S15.08.067 8.8 1.794c-3.464.95-6.192 3.752-7.118 7.309C0 15.549 0 29 0 29s0 13.45 1.682 19.897c.926 3.557 3.654 6.358 7.118 7.31 6.279 1.726 31.455 1.726 31.455 1.726s25.176 0 31.454-1.727c3.465-.95 6.193-3.752 7.119-7.309C80.51 42.45 80.51 29 80.51 29s0-13.45-1.682-19.897" fill="#F4F8FC"/><path d="M32.706 42.838v-25.16l20.127 12.58-20.127 12.58z" fill="#F4F8FC"/></svg>