<svg width="69" height="52" viewBox="0 0 69 52" fill="none" xmlns="http://www.w3.org/2000/svg"><g filter="url(#filter0_dii)"><path d="M62.186 9.785c-.695-2.671-2.743-4.774-5.345-5.488C52.128 3 33.225 3 33.225 3S14.32 3 9.608 4.297c-2.602.714-4.65 2.817-5.345 5.488C3 14.625 3 24.724 3 24.724s0 10.099 1.263 14.94c.695 2.67 2.743 4.773 5.345 5.487 4.713 1.297 23.617 1.297 23.617 1.297s18.903 0 23.616-1.297c2.602-.714 4.65-2.817 5.345-5.488 1.263-4.84 1.263-14.939 1.263-14.939s0-10.1-1.263-14.94z" fill="#F4F8FC"/></g><g filter="url(#filter1_i)"><path d="M27.556 35.113v-18.89l15.113 9.445-15.113 9.445z" fill="#F4F8FC"/></g><defs><filter id="filter0_dii" x="-2" y="-2" width="70.449" height="53.448" filterUnits="userSpaceOnUse" color-interpolation-filters="sRGB"><feFlood flood-opacity="0" result="BackgroundImageFix"/><feColorMatrix in="SourceAlpha" values="0 0 0 0 0 0 0 0 0 0 0 0 0 0 0 0 0 0 127 0"/><feOffset dx="1" dy="1"/><feGaussianBlur stdDeviation="2"/><feColorMatrix values="0 0 0 0 0.85098 0 0 0 0 0.890196 0 0 0 0 0.937255 0 0 0 0.5 0"/><feBlend in2="BackgroundImageFix" result="effect1_dropShadow"/><feBlend in="SourceGraphic" in2="effect1_dropShadow" result="shape"/><feColorMatrix in="SourceAlpha" values="0 0 0 0 0 0 0 0 0 0 0 0 0 0 0 0 0 0 127 0" result="hardAlpha"/><feOffset dx="3" dy="3"/><feGaussianBlur stdDeviation="5"/><feComposite in2="hardAlpha" operator="arithmetic" k2="-1" k3="1"/><feColorMatrix values="0 0 0 0 0.682353 0 0 0 0 0.756863 0 0 0 0 0.831373 0 0 0 0.7 0"/><feBlend in2="shape" result="effect2_innerShadow"/><feColorMatrix in="SourceAlpha" values="0 0 0 0 0 0 0 0 0 0 0 0 0 0 0 0 0 0 127 0" result="hardAlpha"/><feOffset dx="-6" dy="-6"/><feGaussianBlur stdDeviation="2.5"/><feComposite in2="hardAlpha" operator="arithmetic" k2="-1" k3="1"/><feColorMatrix values="0 0 0 0 1 0 0 0 0 1 0 0 0 0 1 0 0 0 1 0"/><feBlend in2="effect2_innerShadow" result="effect3_innerShadow"/></filter><filter id="filter1_i" x="27.556" y="16.223" width="18.112" height="21.89" filterUnits="userSpaceOnUse" color-interpolation-filters="sRGB"><feFlood flood-opacity="0" result="BackgroundImageFix"/><feBlend in="SourceGraphic" in2="BackgroundImageFix" result="shape"/><feColorMatrix in="SourceAlpha" values="0 0 0 0 0 0 0 0 0 0 0 0 0 0 0 0 0 0 127 0" result="hardAlpha"/><feOffset dx="3" dy="3"/><feGaussianBlur stdDeviation="1.5"/><feComposite in2="hardAlpha" operator="arithmetic" k2="-1" k3="1"/><feColorMatrix values="0 0 0 0 0.751098 0 0 0 0 0.813081 0 0 0 0 0.875065 0 0 0 0.7 0"/><feBlend in2="shape" result="effect1_innerShadow"/></filter></defs></svg>