<svg width="67" height="67" viewBox="0 0 67 67" fill="none" xmlns="http://www.w3.org/2000/svg"><g filter="url(#filter0_dii)"><path d="M47.231 25.108c-.235-1.913-.823-3.415-1.867-4.745-1.356-1.713-3.09-2.74-5.654-3.348-1.672-.406-2.348-.359-2.952.193-.564.518-.674 1.555-.243 2.227.303.488.652.662 1.623.853 1.293.238 2.187.547 3 1.011 1.726.997 2.53 2.556 2.615 5.08.04 1.186.143 1.55.557 1.97.767.769 2.133.62 2.712-.3.212-.347.245-.498.267-1.302.015-.499-.006-1.24-.058-1.639z" fill="#C1C7CE"/></g><g filter="url(#filter1_dii)"><path d="M53.99 27.265c-.34-5.86-2.633-10.576-6.736-13.894-2.311-1.864-5.105-3.146-8.168-3.77-1.122-.222-3.188-.403-3.542-.3-.334.096-.807.458-1.018.786-.223.355-.273 1.148-.083 1.606.307.767.878 1.038 2.477 1.178 2.465.215 5.008 1.082 6.93 2.364a14.532 14.532 0 015.064 5.803c.975 2.016 1.575 4.922 1.558 7.524-.006.94.14 1.472.518 1.86.571.598 1.404.729 2.139.332.814-.428 1.005-1.18.861-3.489z" fill="#C1C7CE"/></g><g filter="url(#filter2_dii)"><path d="M61.47 49.836a6.436 6.436 0 00-.574-1.148c-1.204-1.819-7.672-6.88-10.902-8.537-1.844-.947-3.21-1.263-4.224-.966-1.089.306-1.662.813-3.487 3.081-.736.91-1.49 1.761-1.692 1.895-.497.345-1.471.622-2.159.622-1.596-.01-4.491-1.043-6.717-2.402-1.73-1.052-3.947-2.938-5.648-4.804-2.006-2.191-3.372-4.124-4.452-6.306-1.395-2.804-1.749-4.517-1.166-5.77.143-.317.334-.651.42-.757.086-.095.985-.832 1.978-1.636 1.95-1.55 2.265-1.904 2.628-2.967.459-1.35.334-2.727-.373-4.115-.544-1.052-1.968-3.35-3-4.832-1.366-1.952-4.768-6.125-5.447-6.69-1.223-.995-2.79-1.167-4.52-.497-1.824.708-5.245 3.464-6.707 5.388-1.318 1.741-1.825 2.976-1.901 4.603-.067 1.34.048 1.894.755 3.607 5.532 13.436 13.788 24.164 25.13 32.68 5.924 4.45 12.068 7.839 18.441 10.154 3.717 1.35 5.332 1.417 7.234.307.802-.479 2.79-2.517 3.898-4 1.835-2.47 2.513-3.608 2.704-4.518.134-.622.029-1.703-.22-2.392z" fill="#F4F8FC"/></g><g filter="url(#filter3_dii)"><path d="M60.871 28.612c-.122-3.316-.68-6.035-1.844-9.067-1.15-2.982-2.312-4.928-4.509-7.56-2.076-2.468-3.69-3.878-6.247-5.446-3.569-2.186-7.912-3.632-12.78-4.24-1.66-.213-2.035-.198-2.544.142-.987.644-.974 2.25.016 2.883.328.202.619.275 1.947.45 2.038.274 3.348.532 4.904.957 6.098 1.667 10.787 5.074 13.923 10.132 2.623 4.216 3.712 8.433 3.558 13.818-.054 1.82-.015 2.14.263 2.578.533.816 1.939.977 2.66.3.448-.412.533-.722.621-2.28.043-.813.052-2.012.032-2.667z" fill="#C1C7CE"/></g><defs><filter id="filter0_dii" x="32.414" y="14.594" width="18.696" height="18.395" filterUnits="userSpaceOnUse" color-interpolation-filters="sRGB"><feFlood flood-opacity="0" result="BackgroundImageFix"/><feColorMatrix in="SourceAlpha" values="0 0 0 0 0 0 0 0 0 0 0 0 0 0 0 0 0 0 127 0"/><feOffset dx="1" dy="2"/><feGaussianBlur stdDeviation="1"/><feColorMatrix values="0 0 0 0 0.85098 0 0 0 0 0.890196 0 0 0 0 0.937255 0 0 0 0.6 0"/><feBlend in2="BackgroundImageFix" result="effect1_dropShadow"/><feBlend in="SourceGraphic" in2="effect1_dropShadow" result="shape"/><feColorMatrix in="SourceAlpha" values="0 0 0 0 0 0 0 0 0 0 0 0 0 0 0 0 0 0 127 0" result="hardAlpha"/><feOffset dx="11" dy="-20"/><feGaussianBlur stdDeviation="2"/><feComposite in2="hardAlpha" operator="arithmetic" k2="-1" k3="1"/><feColorMatrix values="0 0 0 0 0.682353 0 0 0 0 0.756863 0 0 0 0 0.831373 0 0 0 0.9 0"/><feBlend in2="shape" result="effect2_innerShadow"/><feColorMatrix in="SourceAlpha" values="0 0 0 0 0 0 0 0 0 0 0 0 0 0 0 0 0 0 127 0" result="hardAlpha"/><feOffset dx="-4" dy="-2"/><feGaussianBlur stdDeviation="1.5"/><feComposite in2="hardAlpha" operator="arithmetic" k2="-1" k3="1"/><feColorMatrix values="0 0 0 0 1 0 0 0 0 1 0 0 0 0 1 0 0 0 1 0"/><feBlend in2="effect2_innerShadow" result="effect3_innerShadow"/></filter><filter id="filter1_dii" x="29.716" y="5.107" width="29.884" height="30.019" filterUnits="userSpaceOnUse" color-interpolation-filters="sRGB"><feFlood flood-opacity="0" result="BackgroundImageFix"/><feColorMatrix in="SourceAlpha" values="0 0 0 0 0 0 0 0 0 0 0 0 0 0 0 0 0 0 127 0"/><feOffset dx="1" dy="2"/><feGaussianBlur stdDeviation="1"/><feColorMatrix values="0 0 0 0 0.85098 0 0 0 0 0.890196 0 0 0 0 0.937255 0 0 0 0.6 0"/><feBlend in2="BackgroundImageFix" result="effect1_dropShadow"/><feBlend in="SourceGraphic" in2="effect1_dropShadow" result="shape"/><feColorMatrix in="SourceAlpha" values="0 0 0 0 0 0 0 0 0 0 0 0 0 0 0 0 0 0 127 0" result="hardAlpha"/><feOffset dx="11" dy="-20"/><feGaussianBlur stdDeviation="2"/><feComposite in2="hardAlpha" operator="arithmetic" k2="-1" k3="1"/><feColorMatrix values="0 0 0 0 0.682353 0 0 0 0 0.756863 0 0 0 0 0.831373 0 0 0 0.9 0"/><feBlend in2="shape" result="effect2_innerShadow"/><feColorMatrix in="SourceAlpha" values="0 0 0 0 0 0 0 0 0 0 0 0 0 0 0 0 0 0 127 0" result="hardAlpha"/><feOffset dx="-4" dy="-2"/><feGaussianBlur stdDeviation="1.5"/><feComposite in2="hardAlpha" operator="arithmetic" k2="-1" k3="1"/><feColorMatrix values="0 0 0 0 1 0 0 0 0 1 0 0 0 0 1 0 0 0 1 0"/><feBlend in2="effect2_innerShadow" result="effect3_innerShadow"/></filter><filter id="filter2_dii" x="-1.49" y="-1.394" width="68.237" height="67.914" filterUnits="userSpaceOnUse" color-interpolation-filters="sRGB"><feFlood flood-opacity="0" result="BackgroundImageFix"/><feColorMatrix in="SourceAlpha" values="0 0 0 0 0 0 0 0 0 0 0 0 0 0 0 0 0 0 127 0"/><feOffset dx="1" dy="1"/><feGaussianBlur stdDeviation="2"/><feColorMatrix values="0 0 0 0 0.85098 0 0 0 0 0.890196 0 0 0 0 0.937255 0 0 0 0.5 0"/><feBlend in2="BackgroundImageFix" result="effect1_dropShadow"/><feBlend in="SourceGraphic" in2="effect1_dropShadow" result="shape"/><feColorMatrix in="SourceAlpha" values="0 0 0 0 0 0 0 0 0 0 0 0 0 0 0 0 0 0 127 0" result="hardAlpha"/><feOffset dx="3" dy="3"/><feGaussianBlur stdDeviation="3.5"/><feComposite in2="hardAlpha" operator="arithmetic" k2="-1" k3="1"/><feColorMatrix values="0 0 0 0 0.682353 0 0 0 0 0.756863 0 0 0 0 0.831373 0 0 0 0.8 0"/><feBlend in2="shape" result="effect2_innerShadow"/><feColorMatrix in="SourceAlpha" values="0 0 0 0 0 0 0 0 0 0 0 0 0 0 0 0 0 0 127 0" result="hardAlpha"/><feOffset dx="-5" dy="-5"/><feGaussianBlur stdDeviation="2.5"/><feComposite in2="hardAlpha" operator="arithmetic" k2="-1" k3="1"/><feColorMatrix values="0 0 0 0 1 0 0 0 0 1 0 0 0 0 1 0 0 0 1 0"/><feBlend in2="effect2_innerShadow" result="effect3_innerShadow"/></filter><filter id="filter3_dii" x="26.796" y="-2" width="40.384" height="40.126" filterUnits="userSpaceOnUse" color-interpolation-filters="sRGB"><feFlood flood-opacity="0" result="BackgroundImageFix"/><feColorMatrix in="SourceAlpha" values="0 0 0 0 0 0 0 0 0 0 0 0 0 0 0 0 0 0 127 0"/><feOffset dx="1" dy="2"/><feGaussianBlur stdDeviation="1"/><feColorMatrix values="0 0 0 0 0.85098 0 0 0 0 0.890196 0 0 0 0 0.937255 0 0 0 0.6 0"/><feBlend in2="BackgroundImageFix" result="effect1_dropShadow"/><feBlend in="SourceGraphic" in2="effect1_dropShadow" result="shape"/><feColorMatrix in="SourceAlpha" values="0 0 0 0 0 0 0 0 0 0 0 0 0 0 0 0 0 0 127 0" result="hardAlpha"/><feOffset dx="11" dy="-20"/><feGaussianBlur stdDeviation="2"/><feComposite in2="hardAlpha" operator="arithmetic" k2="-1" k3="1"/><feColorMatrix values="0 0 0 0 0.682353 0 0 0 0 0.756863 0 0 0 0 0.831373 0 0 0 0.9 0"/><feBlend in2="shape" result="effect2_innerShadow"/><feColorMatrix in="SourceAlpha" values="0 0 0 0 0 0 0 0 0 0 0 0 0 0 0 0 0 0 127 0" result="hardAlpha"/><feOffset dx="-4" dy="-2"/><feGaussianBlur stdDeviation="1.5"/><feComposite in2="hardAlpha" operator="arithmetic" k2="-1" k3="1"/><feColorMatrix values="0 0 0 0 1 0 0 0 0 1 0 0 0 0 1 0 0 0 1 0"/><feBlend in2="effect2_innerShadow" result="effect3_innerShadow"/></filter></defs></svg>