<svg width="62" height="69" viewBox="0 0 62 69" fill="none" xmlns="http://www.w3.org/2000/svg"><g filter="url(#filter0_dii)"><path d="M49.918 3.802H9.225C5.794 3.802 3 6.562 3 9.982v40.56c0 3.42 2.794 6.18 6.225 6.18h34.437l-1.61-5.55 3.887 3.57 3.675 3.36 6.529 5.7V9.982c0-3.42-2.794-6.18-6.225-6.18z" fill="#F4F8FC"/></g><g filter="url(#filter1_dii)"><path d="M38.197 42.981s-1.093-1.29-2.004-2.43c3.978-1.11 5.496-3.57 5.496-3.57a17.452 17.452 0 01-3.492 1.77 20.172 20.172 0 01-4.403 1.29c-2.915.54-5.588.39-7.865-.03a25.725 25.725 0 01-4.464-1.29c-.699-.27-1.458-.6-2.217-1.02-.091-.06-.182-.09-.273-.15a.418.418 0 01-.122-.09c-.547-.3-.85-.51-.85-.51s1.457 2.4 5.314 3.54c-.91 1.14-2.035 2.49-2.035 2.49-6.71-.21-9.261-4.56-9.261-4.56 0-9.66 4.372-17.49 4.372-17.49 4.373-3.24 8.534-3.15 8.534-3.15l.303.36c-5.466 1.56-7.986 3.93-7.986 3.93s.668-.36 1.791-.87c3.25-1.41 5.83-1.8 6.894-1.89.182-.03.334-.06.516-.06 1.852-.24 3.948-.3 6.134-.06 2.885.33 5.983 1.17 9.14 2.88 0 0-2.398-2.25-7.56-3.81l.424-.48s4.16-.09 8.534 3.15c0 0 4.373 7.83 4.373 17.49 0 0-2.582 4.35-9.293 4.56z" fill="#F4F8FC"/></g><g filter="url(#filter2_i)"><path fill-rule="evenodd" clip-rule="evenodd" d="M20.856 33.946c0-1.884 1.356-3.429 3.073-3.429 1.717 0 3.103 1.545 3.073 3.429 0 1.884-1.356 3.428-3.073 3.428-1.687 0-3.073-1.544-3.073-3.428zm10.997 0c0-1.884 1.356-3.429 3.073-3.429 1.718 0 3.073 1.545 3.073 3.429s-1.355 3.428-3.073 3.428c-1.687 0-3.073-1.544-3.073-3.428z" fill="#E2EAF1"/></g><defs><filter id="filter0_dii" x="-2" y="-1.198" width="63.143" height="70" filterUnits="userSpaceOnUse" color-interpolation-filters="sRGB"><feFlood flood-opacity="0" result="BackgroundImageFix"/><feColorMatrix in="SourceAlpha" values="0 0 0 0 0 0 0 0 0 0 0 0 0 0 0 0 0 0 127 0"/><feOffset dx="1" dy="1"/><feGaussianBlur stdDeviation="2"/><feColorMatrix values="0 0 0 0 0.85098 0 0 0 0 0.890196 0 0 0 0 0.937255 0 0 0 0.5 0"/><feBlend in2="BackgroundImageFix" result="effect1_dropShadow"/><feBlend in="SourceGraphic" in2="effect1_dropShadow" result="shape"/><feColorMatrix in="SourceAlpha" values="0 0 0 0 0 0 0 0 0 0 0 0 0 0 0 0 0 0 127 0" result="hardAlpha"/><feOffset dx="3" dy="3"/><feGaussianBlur stdDeviation="5"/><feComposite in2="hardAlpha" operator="arithmetic" k2="-1" k3="1"/><feColorMatrix values="0 0 0 0 0.682353 0 0 0 0 0.756863 0 0 0 0 0.831373 0 0 0 0.7 0"/><feBlend in2="shape" result="effect2_innerShadow"/><feColorMatrix in="SourceAlpha" values="0 0 0 0 0 0 0 0 0 0 0 0 0 0 0 0 0 0 127 0" result="hardAlpha"/><feOffset dx="-6" dy="-6"/><feGaussianBlur stdDeviation="2.5"/><feComposite in2="hardAlpha" operator="arithmetic" k2="-1" k3="1"/><feColorMatrix values="0 0 0 0 1 0 0 0 0 1 0 0 0 0 1 0 0 0 1 0"/><feBlend in2="effect2_innerShadow" result="effect3_innerShadow"/></filter><filter id="filter1_dii" x="7.021" y="12.781" width="45.469" height="35.2" filterUnits="userSpaceOnUse" color-interpolation-filters="sRGB"><feFlood flood-opacity="0" result="BackgroundImageFix"/><feColorMatrix in="SourceAlpha" values="0 0 0 0 0 0 0 0 0 0 0 0 0 0 0 0 0 0 127 0"/><feOffset dx="1" dy="1"/><feGaussianBlur stdDeviation="2"/><feColorMatrix values="0 0 0 0 0.85098 0 0 0 0 0.890196 0 0 0 0 0.937255 0 0 0 0.5 0"/><feBlend in2="BackgroundImageFix" result="effect1_dropShadow"/><feBlend in="SourceGraphic" in2="effect1_dropShadow" result="shape"/><feColorMatrix in="SourceAlpha" values="0 0 0 0 0 0 0 0 0 0 0 0 0 0 0 0 0 0 127 0" result="hardAlpha"/><feOffset dx="2" dy="2"/><feGaussianBlur stdDeviation="5"/><feComposite in2="hardAlpha" operator="arithmetic" k2="-1" k3="1"/><feColorMatrix values="0 0 0 0 0.682353 0 0 0 0 0.756863 0 0 0 0 0.831373 0 0 0 0.7 0"/><feBlend in2="shape" result="effect2_innerShadow"/><feColorMatrix in="SourceAlpha" values="0 0 0 0 0 0 0 0 0 0 0 0 0 0 0 0 0 0 127 0" result="hardAlpha"/><feOffset dx="-6" dy="-6"/><feGaussianBlur stdDeviation="2.5"/><feComposite in2="hardAlpha" operator="arithmetic" k2="-1" k3="1"/><feColorMatrix values="0 0 0 0 1 0 0 0 0 1 0 0 0 0 1 0 0 0 1 0"/><feBlend in2="effect2_innerShadow" result="effect3_innerShadow"/></filter><filter id="filter2_i" x="20.856" y="30.517" width="18.143" height="7.857" filterUnits="userSpaceOnUse" color-interpolation-filters="sRGB"><feFlood flood-opacity="0" result="BackgroundImageFix"/><feBlend in="SourceGraphic" in2="BackgroundImageFix" result="shape"/><feColorMatrix in="SourceAlpha" values="0 0 0 0 0 0 0 0 0 0 0 0 0 0 0 0 0 0 127 0" result="hardAlpha"/><feOffset dx="1" dy="1"/><feGaussianBlur stdDeviation=".5"/><feComposite in2="hardAlpha" operator="arithmetic" k2="-1" k3="1"/><feColorMatrix values="0 0 0 0 0.787494 0 0 0 0 0.845863 0 0 0 0 0.904232 0 0 0 1 0"/><feBlend in2="shape" result="effect1_innerShadow"/></filter></defs></svg>