<svg width="61" height="52" viewBox="0 0 61 52" fill="none" xmlns="http://www.w3.org/2000/svg"><g filter="url(#filter0_dii)"><path d="M28.528 14.756l.114 1.88-1.9-.23C19.83 15.522 13.79 12.531 8.66 7.507L6.153 5.015l-.646 1.84c-1.367 4.104-.494 8.438 2.356 11.353 1.52 1.61 1.177 1.84-1.444.882-.912-.307-1.71-.537-1.785-.422-.266.268.645 3.759 1.367 5.14.988 1.917 3.001 3.796 5.205 4.908l1.861.882-2.203.039c-2.128 0-2.204.038-1.976.843.76 2.493 3.761 5.14 7.104 6.29l2.355.805-2.051 1.228c-3.04 1.764-6.61 2.761-10.18 2.838-1.71.038-3.116.192-3.116.307 0 .383 4.635 2.53 7.332 3.375 8.091 2.492 17.703 1.419 24.92-2.839 5.129-3.03 10.257-9.05 12.65-14.88 1.292-3.107 2.584-8.783 2.584-11.506 0-1.764.114-1.994 2.241-4.103 1.254-1.227 2.431-2.57 2.66-2.953.38-.73.341-.73-1.596-.077-3.23 1.15-3.685.997-2.09-.729 1.178-1.227 2.584-3.451 2.584-4.103 0-.115-.57.076-1.216.421-.684.384-2.203.96-3.343 1.304l-2.051.652-1.862-1.265c-1.026-.69-2.469-1.458-3.229-1.688-1.937-.537-4.9-.46-6.648.154-4.748 1.726-7.75 6.174-7.408 11.045z" fill="#F4F8FC"/></g><defs><filter id="filter0_dii" x="-2" y="-1.802" width="62.575" height="53.448" filterUnits="userSpaceOnUse" color-interpolation-filters="sRGB"><feFlood flood-opacity="0" result="BackgroundImageFix"/><feColorMatrix in="SourceAlpha" values="0 0 0 0 0 0 0 0 0 0 0 0 0 0 0 0 0 0 127 0"/><feOffset dx="1" dy="1"/><feGaussianBlur stdDeviation="2"/><feColorMatrix values="0 0 0 0 0.85098 0 0 0 0 0.890196 0 0 0 0 0.937255 0 0 0 0.5 0"/><feBlend in2="BackgroundImageFix" result="effect1_dropShadow"/><feBlend in="SourceGraphic" in2="effect1_dropShadow" result="shape"/><feColorMatrix in="SourceAlpha" values="0 0 0 0 0 0 0 0 0 0 0 0 0 0 0 0 0 0 127 0" result="hardAlpha"/><feOffset dx="3" dy="3"/><feGaussianBlur stdDeviation="5"/><feComposite in2="hardAlpha" operator="arithmetic" k2="-1" k3="1"/><feColorMatrix values="0 0 0 0 0.682353 0 0 0 0 0.756863 0 0 0 0 0.831373 0 0 0 0.7 0"/><feBlend in2="shape" result="effect2_innerShadow"/><feColorMatrix in="SourceAlpha" values="0 0 0 0 0 0 0 0 0 0 0 0 0 0 0 0 0 0 127 0" result="hardAlpha"/><feOffset dx="-6" dy="-6"/><feGaussianBlur stdDeviation="2.5"/><feComposite in2="hardAlpha" operator="arithmetic" k2="-1" k3="1"/><feColorMatrix values="0 0 0 0 1 0 0 0 0 1 0 0 0 0 1 0 0 0 1 0"/><feBlend in2="effect2_innerShadow" result="effect3_innerShadow"/></filter></defs></svg>