<svg width="100" height="43" viewBox="0 0 100 43" fill="none" xmlns="http://www.w3.org/2000/svg"><path d="M78.571-.001c-11.16 0-23.214 10.81-28.571 16.225C44.643 10.81 32.59 0 21.429 0 8.01-.001 0 8.009 0 21.428c0 13.417 8.01 21.428 21.429 21.428 11.16 0 23.214-10.81 28.571-16.225 5.357 5.414 17.41 16.225 28.571 16.225 13.418 0 21.429-8.01 21.429-21.428C100 8.01 91.99-.001 78.571-.001zM21.428 35.713c-9.478 0-14.285-4.807-14.285-14.285 0-9.479 4.807-14.286 14.285-14.286 7.858 0 18.286 8.853 23.672 14.286-5.375 5.439-15.782 14.285-23.672 14.285zm57.143 0c-7.857 0-18.285-8.853-23.671-14.285 5.357-5.436 15.782-14.286 23.67-14.286 9.479 0 14.286 4.807 14.286 14.286 0 9.478-4.807 14.285-14.286 14.285z" fill="url(#paint0_linear)"/><defs><linearGradient id="paint0_linear" x1="0" y1="42.856" x2="107.171" y2="30.393" gradientUnits="userSpaceOnUse"><stop stop-color="#23B5FF"/><stop offset=".755" stop-color="#1B7CFF"/></linearGradient></defs></svg>