<svg width="49" height="37" viewBox="0 0 49 37" fill="none" xmlns="http://www.w3.org/2000/svg"><g filter="url(#filter0_i)"><path d="M15.525 36.617c1.82 0 6.263-.322 9.636-2.784v1.873h6.745V27.57l2.837-2.944 6.157 11.08h8.084l-9.315-15.845 9.1-9.957h-8.297L31.906 19.7V.91H25.16v2.944C23.126 1.66 19.754 0 14.56 0 3.32 0 1.178 6.852 1.178 10.653c0 5.3 2.837 8.244 7.762 9.422l7.013 1.713c3.694.91 6.317 1.606 6.317 4.336 0 3.64-3.8 4.497-7.28 4.497-6.317 0-7.388-3.694-7.388-5.675H.642c0 4.337 2.195 11.67 14.883 11.67zm4.604-20.771l-8.512-2.034c-1.392-.375-3.694-.91-3.694-3.64s3.32-4.176 6.103-4.176c6.317 0 6.906 3.693 7.12 5.246h4.015v6.477a20.821 20.821 0 00-5.032-1.873z" fill="#fff"/></g><defs><filter id="filter0_i" x=".643" y="0" width="51.34" height="39.617" filterUnits="userSpaceOnUse" color-interpolation-filters="sRGB"><feFlood flood-opacity="0" result="BackgroundImageFix"/><feBlend in="SourceGraphic" in2="BackgroundImageFix" result="shape"/><feColorMatrix in="SourceAlpha" values="0 0 0 0 0 0 0 0 0 0 0 0 0 0 0 0 0 0 127 0" result="hardAlpha"/><feOffset dx="3" dy="3"/><feGaussianBlur stdDeviation="3"/><feComposite in2="hardAlpha" operator="arithmetic" k2="-1" k3="1"/><feColorMatrix values="0 0 0 0 0.578462 0 0 0 0 0.683882 0 0 0 0 0.764974 0 0 0 0.8 0"/><feBlend in2="shape" result="effect1_innerShadow"/></filter></defs></svg>