<svg width="29" height="22" viewBox="0 0 29 22" fill="none" xmlns="http://www.w3.org/2000/svg"><g filter="url(#filter0_i)"><path d="M9.408 22c1.055 0 3.628-.193 5.582-1.672v1.125h3.907v-4.889l1.643-1.769 3.566 6.658h4.682l-5.395-9.52 5.271-5.983h-4.806l-4.961 5.886V.546H14.99v1.77C13.81.997 11.858 0 8.85 0 2.338 0 1.098 4.117 1.098 6.4c0 3.185 1.644 4.954 4.496 5.661l4.062 1.03c2.14.546 3.66.965 3.66 2.605 0 2.187-2.202 2.702-4.218 2.702-3.659 0-4.279-2.22-4.279-3.41H.79C.79 17.594 2.06 22 9.41 22zm2.667-12.48l-4.93-1.222c-.807-.225-2.14-.547-2.14-2.187 0-1.64 1.923-2.509 3.535-2.509 3.659 0 4 2.22 4.124 3.152h2.326v3.892c-.921-.504-1.9-.882-2.915-1.126z" fill="#fff"/></g><defs><filter id="filter0_i" x=".788" y="0" width="31" height="25" filterUnits="userSpaceOnUse" color-interpolation-filters="sRGB"><feFlood flood-opacity="0" result="BackgroundImageFix"/><feBlend in="SourceGraphic" in2="BackgroundImageFix" result="shape"/><feColorMatrix in="SourceAlpha" values="0 0 0 0 0 0 0 0 0 0 0 0 0 0 0 0 0 0 127 0" result="hardAlpha"/><feOffset dx="3" dy="3"/><feGaussianBlur stdDeviation="3"/><feComposite in2="hardAlpha" operator="arithmetic" k2="-1" k3="1"/><feColorMatrix values="0 0 0 0 0.578462 0 0 0 0 0.683882 0 0 0 0 0.764974 0 0 0 0.8 0"/><feBlend in2="shape" result="effect1_innerShadow"/></filter></defs></svg>