<svg width="18" height="10" viewBox="0 0 18 10" fill="none" xmlns="http://www.w3.org/2000/svg"><g filter="url(#filter0_i)"><path d="M9.714 9.958s.32-.035.483-.209c.15-.16.144-.46.144-.46s-.02-1.406.639-1.613c.649-.204 1.482 1.359 2.367 1.96.668.454 1.175.355 1.175.355l2.363-.033s1.235-.075.65-1.038c-.049-.079-.342-.712-1.757-2.014-1.482-1.362-1.283-1.142.501-3.499 1.087-1.435 1.521-2.31 1.386-2.686-.13-.358-.929-.263-.929-.263l-2.66.017s-.197-.027-.344.06c-.142.084-.235.282-.235.282s-.42 1.11-.982 2.055c-1.185 1.993-1.658 2.098-1.852 1.975-.45-.29-.338-1.16-.338-1.777 0-1.932.296-2.737-.576-2.945C9.46.055 9.247.01 8.508.002c-.95-.01-1.753.004-2.208.224-.303.147-.536.474-.394.493.176.023.574.106.785.39.273.369.263 1.193.263 1.193s.157 2.274-.366 2.556c-.358.194-.85-.201-1.906-2.01-.54-.925-.95-1.95-.95-1.95s-.078-.19-.22-.293C3.343.48 3.105.442 3.105.442L.577.458s-.38.01-.52.174c-.123.145-.009.446-.009.446s1.98 4.588 4.22 6.9c2.055 2.12 4.388 1.98 4.388 1.98h1.058z" fill="#fff"/></g><defs><filter id="filter0_i" x="0" y="0" width="19.192" height="11.5" filterUnits="userSpaceOnUse" color-interpolation-filters="sRGB"><feFlood flood-opacity="0" result="BackgroundImageFix"/><feBlend in="SourceGraphic" in2="BackgroundImageFix" result="shape"/><feColorMatrix in="SourceAlpha" values="0 0 0 0 0 0 0 0 0 0 0 0 0 0 0 0 0 0 127 0" result="hardAlpha"/><feOffset dx="1.5" dy="1.5"/><feGaussianBlur stdDeviation="1.25"/><feComposite in2="hardAlpha" operator="arithmetic" k2="-1" k3="1"/><feColorMatrix values="0 0 0 0 0.578462 0 0 0 0 0.683882 0 0 0 0 0.764974 0 0 0 0.5 0"/><feBlend in2="shape" result="effect1_innerShadow"/></filter></defs></svg>