<svg width="298" height="125" viewBox="0 0 298 125" fill="none" xmlns="http://www.w3.org/2000/svg"><g filter="url(#filter0_dd)"><path d="M92.736 83.134a2 2 0 01-2 2h-9.12a2 2 0 00-2 2v13.004a2 2 0 01-2 2H57.272a2 2 0 01-2-2V87.134a2 2 0 00-2-2H10.598a2 2 0 01-2-2V69.405a2 2 0 01.372-1.162l38.64-54.095a2 2 0 011.627-.838h21.012c1.614 0 2.563 1.813 1.644 3.14L40.29 62.071c-.92 1.327.03 3.14 1.644 3.14h12.094a2 2 0 002-2V52.11a2 2 0 012-2h19.589a2 2 0 012 2v11.101a2 2 0 002 2h9.119a2 2 0 012 2v15.923z" fill="#F4F8FC"/></g><g filter="url(#filter1_i)"><path fill-rule="evenodd" clip-rule="evenodd" d="M54.742 19.908A4.424 4.424 0 0158.38 18a.885.885 0 01.727 1.39l-33 47.505a3 3 0 00-.537 1.712v3.551a2 2 0 002 2h38.385v-16.51a1.59 1.59 0 113.18 0v16.51h16.22a1.588 1.588 0 010 3.176h-16.22v17.145a1.59 1.59 0 01-3.18 0V77.335H25.391a3 3 0 01-3-3V67.3a2 2 0 01.355-1.138l31.996-46.255z" fill="#F4F8FC"/></g><g filter="url(#filter2_dd)"><path d="M289.426 83.134a2 2 0 01-2 2h-9.119a2 2 0 00-2 2v13.004a2 2 0 01-2 2h-20.346a2 2 0 01-2-2V87.134a2 2 0 00-2-2h-42.673a2 2 0 01-2-2V69.405a2 2 0 01.372-1.162l38.639-54.095a1.998 1.998 0 011.627-.838h21.012c1.613 0 2.563 1.813 1.644 3.14l-31.603 45.622c-.918 1.327.031 3.14 1.645 3.14h12.094a2 2 0 002-2V52.11a2 2 0 012-2h19.589a2 2 0 012 2v11.101a2 2 0 002 2h9.119a2 2 0 012 2v15.923z" fill="#F4F8FC"/></g><g filter="url(#filter3_i)"><path fill-rule="evenodd" clip-rule="evenodd" d="M251.432 19.908A4.424 4.424 0 01255.07 18a.885.885 0 01.727 1.39l-33 47.505a3.001 3.001 0 00-.537 1.712v3.551a2 2 0 002 2h38.385v-16.51a1.59 1.59 0 013.18 0v16.51h16.219a1.588 1.588 0 110 3.176h-16.219v17.145a1.59 1.59 0 01-3.18 0V77.335h-40.564a3 3 0 01-3-3V67.3c0-.407.123-.803.355-1.138l31.996-46.255z" fill="#F4F8FC"/></g><g filter="url(#filter4_d)"><circle cx="149.011" cy="56.097" r="43.768" fill="url(#paint0_radial)"/></g><path d="M149.044 81.916c13.831 0 25.043-11.212 25.043-25.043 0-1.605-.151-3.175-.439-4.696 0 0-14.538 4.107-24.082 4.174-9.947.07-25.126-4.174-25.126-4.174a25.138 25.138 0 00-.44 4.696c0 13.83 11.213 25.043 25.044 25.043z" fill="url(#paint1_linear)"/><path fill-rule="evenodd" clip-rule="evenodd" d="M129.566 53.15a19.962 19.962 0 00-.348 3.722c0 10.95 8.876 19.826 19.826 19.826 10.95 0 19.826-8.876 19.826-19.826 0-1.277-.12-2.52-.348-3.723l10.252-1.945c.349 1.84.531 3.736.531 5.668 0 16.713-13.548 30.261-30.261 30.261s-30.261-13.548-30.261-30.26c0-1.933.182-3.829.531-5.669l10.252 1.945z" fill="url(#paint2_linear)"/><g filter="url(#filter5_i)"><path d="M157.393 66.263a8.348 8.348 0 11-16.696 0 8.348 8.348 0 0116.696 0z" fill="#001871"/></g><g filter="url(#filter6_ii)"><path d="M157.393 66.263a8.348 8.348 0 11-16.696 0 8.348 8.348 0 0116.696 0z" fill="#001871"/></g><path fill-rule="evenodd" clip-rule="evenodd" d="M149.028 52.698c-8.981-.002-16.861-2.262-22.329-5.64-5.553-3.43-7.916-7.482-7.916-11.055.19-5.157 1.83-16.51 20.849-22.83-3.953.846-20.657 5.114-29.512 22.819-1.064 2.127-1.136 4.64-.326 6.876 1.965 5.424 6.161 9.82 11.421 13.069 7.362 4.546 17.201 7.19 27.796 7.196m.017-10.435c-.039 0 .049 0 0 0 8.98-.002 16.86-2.262 22.328-5.64 5.553-3.43 7.916-7.482 7.916-11.055-.19-5.157-1.83-16.51-20.849-22.83 3.953.846 20.657 5.114 29.512 22.819 1.064 2.127 1.136 4.64.326 6.876-1.965 5.424-6.161 9.82-11.421 13.069-7.362 4.546-17.234 7.19-27.829 7.196v-5.271l.017-2.558v-2.606z" fill="url(#paint3_radial)"/><defs><filter id="filter0_dd" x=".598" y=".311" width="100.138" height="108.828" filterUnits="userSpaceOnUse" color-interpolation-filters="sRGB"><feFlood flood-opacity="0" result="BackgroundImageFix"/><feColorMatrix in="SourceAlpha" values="0 0 0 0 0 0 0 0 0 0 0 0 0 0 0 0 0 0 127 0"/><feOffset dx="2" dy="2"/><feGaussianBlur stdDeviation="2.5"/><feColorMatrix values="0 0 0 0 0.803922 0 0 0 0 0.847059 0 0 0 0 0.886275 0 0 0 0.7 0"/><feBlend in2="BackgroundImageFix" result="effect1_dropShadow"/><feColorMatrix in="SourceAlpha" values="0 0 0 0 0 0 0 0 0 0 0 0 0 0 0 0 0 0 127 0"/><feOffset dy="-5"/><feGaussianBlur stdDeviation="4"/><feColorMatrix values="0 0 0 0 0.981706 0 0 0 0 0.990853 0 0 0 0 1 0 0 0 1 0"/><feBlend in2="effect1_dropShadow" result="effect2_dropShadow"/><feBlend in="SourceGraphic" in2="effect2_dropShadow" result="shape"/></filter><filter id="filter1_i" x="22.391" y="18" width="66.552" height="79.069" filterUnits="userSpaceOnUse" color-interpolation-filters="sRGB"><feFlood flood-opacity="0" result="BackgroundImageFix"/><feBlend in="SourceGraphic" in2="BackgroundImageFix" result="shape"/><feColorMatrix in="SourceAlpha" values="0 0 0 0 0 0 0 0 0 0 0 0 0 0 0 0 0 0 127 0" result="hardAlpha"/><feOffset dx="2" dy="1"/><feGaussianBlur stdDeviation="1.5"/><feComposite in2="hardAlpha" operator="arithmetic" k2="-1" k3="1"/><feColorMatrix values="0 0 0 0 0.578462 0 0 0 0 0.683882 0 0 0 0 0.764974 0 0 0 0.6 0"/><feBlend in2="shape" result="effect1_innerShadow"/></filter><filter id="filter2_dd" x="197.288" y=".311" width="100.138" height="108.828" filterUnits="userSpaceOnUse" color-interpolation-filters="sRGB"><feFlood flood-opacity="0" result="BackgroundImageFix"/><feColorMatrix in="SourceAlpha" values="0 0 0 0 0 0 0 0 0 0 0 0 0 0 0 0 0 0 127 0"/><feOffset dx="2" dy="2"/><feGaussianBlur stdDeviation="2.5"/><feColorMatrix values="0 0 0 0 0.803922 0 0 0 0 0.847059 0 0 0 0 0.886275 0 0 0 0.7 0"/><feBlend in2="BackgroundImageFix" result="effect1_dropShadow"/><feColorMatrix in="SourceAlpha" values="0 0 0 0 0 0 0 0 0 0 0 0 0 0 0 0 0 0 127 0"/><feOffset dy="-5"/><feGaussianBlur stdDeviation="4"/><feColorMatrix values="0 0 0 0 0.981706 0 0 0 0 0.990853 0 0 0 0 1 0 0 0 1 0"/><feBlend in2="effect1_dropShadow" result="effect2_dropShadow"/><feBlend in="SourceGraphic" in2="effect2_dropShadow" result="shape"/></filter><filter id="filter3_i" x="219.081" y="18" width="66.552" height="79.069" filterUnits="userSpaceOnUse" color-interpolation-filters="sRGB"><feFlood flood-opacity="0" result="BackgroundImageFix"/><feBlend in="SourceGraphic" in2="BackgroundImageFix" result="shape"/><feColorMatrix in="SourceAlpha" values="0 0 0 0 0 0 0 0 0 0 0 0 0 0 0 0 0 0 127 0" result="hardAlpha"/><feOffset dx="2" dy="1"/><feGaussianBlur stdDeviation="1.5"/><feComposite in2="hardAlpha" operator="arithmetic" k2="-1" k3="1"/><feColorMatrix values="0 0 0 0 0.578462 0 0 0 0 0.683882 0 0 0 0 0.764974 0 0 0 0.6 0"/><feBlend in2="shape" result="effect1_innerShadow"/></filter><filter id="filter4_d" x="90.243" y="7.33" width="117.535" height="117.535" filterUnits="userSpaceOnUse" color-interpolation-filters="sRGB"><feFlood flood-opacity="0" result="BackgroundImageFix"/><feColorMatrix in="SourceAlpha" values="0 0 0 0 0 0 0 0 0 0 0 0 0 0 0 0 0 0 127 0"/><feOffset dy="10"/><feGaussianBlur stdDeviation="7.5"/><feColorMatrix values="0 0 0 0 0.765368 0 0 0 0 0.809524 0 0 0 0 0.85 0 0 0 1 0"/><feBlend in2="BackgroundImageFix" result="effect1_dropShadow"/><feBlend in="SourceGraphic" in2="effect1_dropShadow" result="shape"/></filter><filter id="filter5_i" x="140.697" y="57.916" width="16.696" height="20.696" filterUnits="userSpaceOnUse" color-interpolation-filters="sRGB"><feFlood flood-opacity="0" result="BackgroundImageFix"/><feBlend in="SourceGraphic" in2="BackgroundImageFix" result="shape"/><feColorMatrix in="SourceAlpha" values="0 0 0 0 0 0 0 0 0 0 0 0 0 0 0 0 0 0 127 0" result="hardAlpha"/><feOffset dy="4"/><feGaussianBlur stdDeviation="2"/><feComposite in2="hardAlpha" operator="arithmetic" k2="-1" k3="1"/><feColorMatrix values="0 0 0 0 0 0 0 0 0 0 0 0 0 0 0 0 0 0 0.25 0"/><feBlend in2="shape" result="effect1_innerShadow"/></filter><filter id="filter6_ii" x="138.697" y="55.916" width="21.696" height="21.696" filterUnits="userSpaceOnUse" color-interpolation-filters="sRGB"><feFlood flood-opacity="0" result="BackgroundImageFix"/><feBlend in="SourceGraphic" in2="BackgroundImageFix" result="shape"/><feColorMatrix in="SourceAlpha" values="0 0 0 0 0 0 0 0 0 0 0 0 0 0 0 0 0 0 127 0" result="hardAlpha"/><feOffset dx="3" dy="3"/><feGaussianBlur stdDeviation="16.5"/><feComposite in2="hardAlpha" operator="arithmetic" k2="-1" k3="1"/><feColorMatrix values="0 0 0 0 0 0 0 0 0 0.0385811 0 0 0 0 0.182617 0 0 0 1 0"/><feBlend in2="shape" result="effect1_innerShadow"/><feColorMatrix in="SourceAlpha" values="0 0 0 0 0 0 0 0 0 0 0 0 0 0 0 0 0 0 127 0" result="hardAlpha"/><feOffset dx="-2" dy="-2"/><feGaussianBlur stdDeviation="2.5"/><feComposite in2="hardAlpha" operator="arithmetic" k2="-1" k3="1"/><feColorMatrix values="0 0 0 0 0 0 0 0 0 0.103769 0 0 0 0 0.492904 0 0 0 1 0"/><feBlend in2="effect1_innerShadow" result="effect2_innerShadow"/></filter><radialGradient id="paint0_radial" cx="0" cy="0" r="1" gradientUnits="userSpaceOnUse" gradientTransform="rotate(75.433 57.393 101.025) scale(79.5216)"><stop offset=".13" stop-color="#fff"/><stop offset=".417" stop-color="#F4F8FC"/><stop offset=".828" stop-color="#F4F8FC"/><stop offset="1" stop-color="#9CB0C2"/></radialGradient><radialGradient id="paint3_radial" cx="0" cy="0" r="1" gradientUnits="userSpaceOnUse" gradientTransform="rotate(-155.446 97.456 11.91) scale(77.3385 124.224)"><stop stop-color="#000C3A"/><stop offset=".557" stop-color="#001D89"/><stop offset=".844" stop-color="#082489"/><stop offset="1" stop-color="#839DFF"/></radialGradient><linearGradient id="paint1_linear" x1="134.942" y1="59.793" x2="161.563" y2="74.69" gradientUnits="userSpaceOnUse"><stop offset=".016" stop-color="#23B5FF"/><stop offset="1" stop-color="#004698"/></linearGradient><linearGradient id="paint2_linear" x1="85.838" y1="34" x2="180.735" y2="81.034" gradientUnits="userSpaceOnUse"><stop stop-color="#526DD1"/><stop offset=".37" stop-color="#526DD1"/><stop offset=".521" stop-color="#001D88"/><stop offset=".901" stop-color="#000D3E"/></linearGradient></defs></svg>