<svg width="371" height="362" viewBox="0 0 371 362" fill="none" xmlns="http://www.w3.org/2000/svg"><g filter="url(#filter0_dii)"><path fill-rule="evenodd" clip-rule="evenodd" d="M3 317L184.213 3l88.38 153.143a103.948 103.948 0 014.766 8.258L365.425 317H3zm217.264-202.778l-36.051-62.469-36.329 62.949c11.454-4.328 23.869-6.696 36.838-6.696 12.481 0 24.45 2.194 35.542 6.216zM81.842 229.138l-36.638 63.485h73.135c-19.013-15.72-32.355-38.058-36.497-63.485zm169.264 63.485c18.672-15.439 31.874-37.259 36.265-62.12l35.851 62.12h-72.116zm12.371-80.375c0 43.495-35.26 78.755-78.755 78.755s-78.755-35.26-78.755-78.755 35.26-78.755 78.755-78.755 78.755 35.26 78.755 78.755z" fill="#F4F8FC"/></g><g filter="url(#filter1_d)"><circle cx="185.486" cy="211.025" r="80.874" fill="url(#paint0_radial)"/></g><path d="M185.547 258.733c25.558 0 46.276-20.718 46.276-46.275a46.54 46.54 0 00-.812-8.677s-26.863 7.589-44.5 7.713c-18.379.128-46.427-7.713-46.427-7.713a46.54 46.54 0 00-.812 8.677c0 25.557 20.718 46.275 46.275 46.275z" fill="url(#paint1_linear)"/><path fill-rule="evenodd" clip-rule="evenodd" d="M149.556 205.579a36.91 36.91 0 00-.643 6.88c0 20.233 16.402 36.635 36.635 36.635 20.233 0 36.635-16.402 36.635-36.635 0-2.36-.222-4.659-.644-6.88l18.944-3.594c.645 3.4.981 6.902.981 10.474 0 30.881-25.034 55.916-55.916 55.916-30.882 0-55.916-25.035-55.916-55.916 0-3.572.336-7.074.981-10.474l18.943 3.594z" fill="url(#paint2_linear)"/><g filter="url(#filter2_i)"><path d="M200.972 229.812c0 8.519-6.906 15.426-15.425 15.426-8.519 0-15.425-6.907-15.425-15.426s6.906-15.425 15.425-15.425c8.519 0 15.425 6.906 15.425 15.425z" fill="#001871"/></g><g filter="url(#filter3_ii)"><path d="M200.972 229.812c0 8.519-6.906 15.426-15.425 15.426-8.519 0-15.425-6.907-15.425-15.426s6.906-15.425 15.425-15.425c8.519 0 15.425 6.906 15.425 15.425z" fill="#001871"/></g><path fill-rule="evenodd" clip-rule="evenodd" d="M185.517 204.746c-16.593-.005-31.155-4.18-41.259-10.421-10.261-6.337-14.627-13.827-14.627-20.429.35-9.529 3.382-30.507 38.524-42.186-7.304 1.564-38.169 9.451-54.531 42.166-1.966 3.93-2.099 8.574-.603 12.705 3.631 10.024 11.384 18.145 21.105 24.149 13.603 8.402 31.784 13.288 51.36 13.298m.031-19.282c-.072 0 .091 0 0 0 16.594-.005 31.156-4.18 41.259-10.421 10.261-6.337 14.627-13.827 14.627-20.429-.35-9.529-3.381-30.507-38.524-42.186 7.304 1.564 38.169 9.451 54.531 42.166 1.966 3.93 2.1 8.574.603 12.705-3.631 10.024-11.384 18.145-21.105 24.149-13.602 8.402-31.845 13.288-51.422 13.298v-9.74l.031-4.727v-4.815z" fill="url(#paint3_radial)"/><defs><filter id="filter0_dii" x="-2" y="-2" width="372.425" height="324" filterUnits="userSpaceOnUse" color-interpolation-filters="sRGB"><feFlood flood-opacity="0" result="BackgroundImageFix"/><feColorMatrix in="SourceAlpha" values="0 0 0 0 0 0 0 0 0 0 0 0 0 0 0 0 0 0 127 0"/><feOffset dx="1" dy="1"/><feGaussianBlur stdDeviation="2"/><feColorMatrix values="0 0 0 0 0.85098 0 0 0 0 0.890196 0 0 0 0 0.937255 0 0 0 0.5 0"/><feBlend in2="BackgroundImageFix" result="effect1_dropShadow"/><feBlend in="SourceGraphic" in2="effect1_dropShadow" result="shape"/><feColorMatrix in="SourceAlpha" values="0 0 0 0 0 0 0 0 0 0 0 0 0 0 0 0 0 0 127 0" result="hardAlpha"/><feOffset dx="5" dy="3"/><feGaussianBlur stdDeviation="5"/><feComposite in2="hardAlpha" operator="arithmetic" k2="-1" k3="1"/><feColorMatrix values="0 0 0 0 0.682353 0 0 0 0 0.756863 0 0 0 0 0.831373 0 0 0 0.6 0"/><feBlend in2="shape" result="effect2_innerShadow"/><feColorMatrix in="SourceAlpha" values="0 0 0 0 0 0 0 0 0 0 0 0 0 0 0 0 0 0 127 0" result="hardAlpha"/><feOffset dx="-6" dy="-6"/><feGaussianBlur stdDeviation="2.5"/><feComposite in2="hardAlpha" operator="arithmetic" k2="-1" k3="1"/><feColorMatrix values="0 0 0 0 1 0 0 0 0 1 0 0 0 0 1 0 0 0 1 0"/><feBlend in2="effect2_innerShadow" result="effect3_innerShadow"/></filter><filter id="filter1_d" x="74.612" y="120.151" width="241.748" height="241.748" filterUnits="userSpaceOnUse" color-interpolation-filters="sRGB"><feFlood flood-opacity="0" result="BackgroundImageFix"/><feColorMatrix in="SourceAlpha" values="0 0 0 0 0 0 0 0 0 0 0 0 0 0 0 0 0 0 127 0"/><feOffset dx="10" dy="30"/><feGaussianBlur stdDeviation="20"/><feColorMatrix values="0 0 0 0 0.765368 0 0 0 0 0.809524 0 0 0 0 0.85 0 0 0 1 0"/><feBlend in2="BackgroundImageFix" result="effect1_dropShadow"/><feBlend in="SourceGraphic" in2="effect1_dropShadow" result="shape"/></filter><filter id="filter2_i" x="170.122" y="214.387" width="30.85" height="34.85" filterUnits="userSpaceOnUse" color-interpolation-filters="sRGB"><feFlood flood-opacity="0" result="BackgroundImageFix"/><feBlend in="SourceGraphic" in2="BackgroundImageFix" result="shape"/><feColorMatrix in="SourceAlpha" values="0 0 0 0 0 0 0 0 0 0 0 0 0 0 0 0 0 0 127 0" result="hardAlpha"/><feOffset dy="4"/><feGaussianBlur stdDeviation="2"/><feComposite in2="hardAlpha" operator="arithmetic" k2="-1" k3="1"/><feColorMatrix values="0 0 0 0 0 0 0 0 0 0 0 0 0 0 0 0 0 0 0.25 0"/><feBlend in2="shape" result="effect1_innerShadow"/></filter><filter id="filter3_ii" x="168.122" y="212.387" width="35.85" height="35.85" filterUnits="userSpaceOnUse" color-interpolation-filters="sRGB"><feFlood flood-opacity="0" result="BackgroundImageFix"/><feBlend in="SourceGraphic" in2="BackgroundImageFix" result="shape"/><feColorMatrix in="SourceAlpha" values="0 0 0 0 0 0 0 0 0 0 0 0 0 0 0 0 0 0 127 0" result="hardAlpha"/><feOffset dx="3" dy="3"/><feGaussianBlur stdDeviation="16.5"/><feComposite in2="hardAlpha" operator="arithmetic" k2="-1" k3="1"/><feColorMatrix values="0 0 0 0 0 0 0 0 0 0.0385811 0 0 0 0 0.182617 0 0 0 1 0"/><feBlend in2="shape" result="effect1_innerShadow"/><feColorMatrix in="SourceAlpha" values="0 0 0 0 0 0 0 0 0 0 0 0 0 0 0 0 0 0 127 0" result="hardAlpha"/><feOffset dx="-2" dy="-2"/><feGaussianBlur stdDeviation="2.5"/><feComposite in2="hardAlpha" operator="arithmetic" k2="-1" k3="1"/><feColorMatrix values="0 0 0 0 0 0 0 0 0 0.103769 0 0 0 0 0.492904 0 0 0 1 0"/><feBlend in2="effect1_innerShadow" result="effect2_innerShadow"/></filter><radialGradient id="paint0_radial" cx="0" cy="0" r="1" gradientUnits="userSpaceOnUse" gradientTransform="rotate(75.433 -8.296 182.263) scale(146.941)"><stop offset=".13" stop-color="#fff"/><stop offset=".417" stop-color="#F4F8FC"/><stop offset=".828" stop-color="#F4F8FC"/><stop offset="1" stop-color="#9CB0C2"/></radialGradient><radialGradient id="paint3_radial" cx="0" cy="0" r="1" gradientUnits="userSpaceOnUse" gradientTransform="matrix(-129.98392 -59.3851 95.38633 -208.78452 244.871 224.228)"><stop stop-color="#000C3A"/><stop offset=".557" stop-color="#001D89"/><stop offset=".844" stop-color="#082489"/><stop offset="1" stop-color="#839DFF"/></radialGradient><linearGradient id="paint1_linear" x1="159.49" y1="217.855" x2="208.68" y2="245.381" gradientUnits="userSpaceOnUse"><stop offset=".016" stop-color="#23B5FF"/><stop offset="1" stop-color="#004698"/></linearGradient><linearGradient id="paint2_linear" x1="68.756" y1="170.195" x2="244.107" y2="257.106" gradientUnits="userSpaceOnUse"><stop stop-color="#526DD1"/><stop offset=".37" stop-color="#526DD1"/><stop offset=".521" stop-color="#001D88"/><stop offset=".901" stop-color="#000D3E"/></linearGradient></defs></svg>