<svg width="719" height="640" viewBox="0 0 719 640" fill="none" xmlns="http://www.w3.org/2000/svg"><g filter="url(#filter0_dii)"><path fill-rule="evenodd" clip-rule="evenodd" d="M3 619L358.5 3l173.383 300.433a204.478 204.478 0 019.351 16.203L714 619H3zm426.226-397.805L358.5 98.643l-71.269 123.493C309.7 213.646 334.058 209 359.5 209c24.485 0 47.966 4.303 69.726 12.195zM157.671 446.634L85.795 571.179h143.474c-37.299-30.842-63.472-74.663-71.598-124.545zm332.06 124.545c36.63-30.289 62.529-73.096 71.144-121.867l70.33 121.867H489.731zM514 413.5c0 85.328-69.172 154.5-154.5 154.5S205 498.828 205 413.5 274.172 259 359.5 259 514 328.172 514 413.5z" fill="#F4F8FC"/></g><g filter="url(#filter1_d)"><circle cx="360.999" cy="411.101" r="158.657" fill="url(#paint0_radial)"/></g><path d="M361.119 504.695c50.138 0 90.783-40.645 90.783-90.783 0-5.818-.548-11.508-1.594-17.022 0 0-52.698 14.889-87.298 15.131-36.056.252-91.08-15.131-91.08-15.131a91.267 91.267 0 00-1.594 17.022c0 50.138 40.645 90.783 90.783 90.783z" fill="url(#paint1_linear)"/><path fill-rule="evenodd" clip-rule="evenodd" d="M290.513 400.416a72.314 72.314 0 00-1.262 13.497c0 39.692 32.177 71.869 71.87 71.869 39.692 0 71.869-32.177 71.869-71.869 0-4.63-.435-9.14-1.262-13.497l37.164-7.05a110.204 110.204 0 011.924 20.547c0 60.583-49.112 109.695-109.695 109.695-60.584 0-109.696-49.112-109.696-109.695 0-7.007.659-13.877 1.924-20.547l37.164 7.05z" fill="url(#paint2_linear)"/><g filter="url(#filter2_i)"><path d="M391.38 447.956c0 16.713-13.548 30.261-30.261 30.261s-30.261-13.548-30.261-30.261c0-16.712 13.548-30.26 30.261-30.26s30.261 13.548 30.261 30.26z" fill="#001871"/></g><g filter="url(#filter3_ii)"><path d="M391.38 447.956c0 16.713-13.548 30.261-30.261 30.261-16.712 0-30.261-13.548-30.261-30.261 0-16.712 13.549-30.261 30.261-30.261 16.713 0 30.261 13.549 30.261 30.261z" fill="#001871"/></g><path fill-rule="evenodd" clip-rule="evenodd" d="M361.06 398.782c-32.553-.01-61.12-8.202-80.941-20.444-20.13-12.433-28.695-27.126-28.695-40.078.687-18.694 6.634-59.848 75.576-82.76-14.329 3.069-74.879 18.54-106.979 82.72-3.856 7.71-4.118 16.821-1.182 24.926 7.122 19.663 22.333 35.596 41.402 47.374 26.686 16.483 62.354 26.068 100.759 26.088m.06-37.826c-.14 0 .178 0 0 0 32.553-.01 61.12-8.202 80.942-20.444 20.129-12.433 28.694-27.126 28.694-40.078-.687-18.694-6.633-59.848-75.576-82.76 14.329 3.069 74.879 18.54 106.979 82.72 3.856 7.71 4.118 16.821 1.182 24.926-7.122 19.663-22.333 35.596-41.402 47.374-26.686 16.483-62.474 26.068-100.879 26.088V417.5l.06-9.273v-9.445z" fill="url(#paint3_radial)"/><defs><filter id="filter0_dii" x="-2" y="-2" width="721" height="626" filterUnits="userSpaceOnUse" color-interpolation-filters="sRGB"><feFlood flood-opacity="0" result="BackgroundImageFix"/><feColorMatrix in="SourceAlpha" values="0 0 0 0 0 0 0 0 0 0 0 0 0 0 0 0 0 0 127 0"/><feOffset dx="1" dy="1"/><feGaussianBlur stdDeviation="2"/><feColorMatrix values="0 0 0 0 0.85098 0 0 0 0 0.890196 0 0 0 0 0.937255 0 0 0 0.5 0"/><feBlend in2="BackgroundImageFix" result="effect1_dropShadow"/><feBlend in="SourceGraphic" in2="effect1_dropShadow" result="shape"/><feColorMatrix in="SourceAlpha" values="0 0 0 0 0 0 0 0 0 0 0 0 0 0 0 0 0 0 127 0" result="hardAlpha"/><feOffset dx="5" dy="3"/><feGaussianBlur stdDeviation="5"/><feComposite in2="hardAlpha" operator="arithmetic" k2="-1" k3="1"/><feColorMatrix values="0 0 0 0 0.682353 0 0 0 0 0.756863 0 0 0 0 0.831373 0 0 0 0.6 0"/><feBlend in2="shape" result="effect2_innerShadow"/><feColorMatrix in="SourceAlpha" values="0 0 0 0 0 0 0 0 0 0 0 0 0 0 0 0 0 0 127 0" result="hardAlpha"/><feOffset dx="-6" dy="-6"/><feGaussianBlur stdDeviation="2.5"/><feComposite in2="hardAlpha" operator="arithmetic" k2="-1" k3="1"/><feColorMatrix values="0 0 0 0 1 0 0 0 0 1 0 0 0 0 1 0 0 0 1 0"/><feBlend in2="effect2_innerShadow" result="effect3_innerShadow"/></filter><filter id="filter1_d" x="172.341" y="242.444" width="397.315" height="397.315" filterUnits="userSpaceOnUse" color-interpolation-filters="sRGB"><feFlood flood-opacity="0" result="BackgroundImageFix"/><feColorMatrix in="SourceAlpha" values="0 0 0 0 0 0 0 0 0 0 0 0 0 0 0 0 0 0 127 0"/><feOffset dx="10" dy="30"/><feGaussianBlur stdDeviation="20"/><feColorMatrix values="0 0 0 0 0.765368 0 0 0 0 0.809524 0 0 0 0 0.85 0 0 0 1 0"/><feBlend in2="BackgroundImageFix" result="effect1_dropShadow"/><feBlend in="SourceGraphic" in2="effect1_dropShadow" result="shape"/></filter><filter id="filter2_i" x="330.858" y="417.696" width="60.522" height="64.522" filterUnits="userSpaceOnUse" color-interpolation-filters="sRGB"><feFlood flood-opacity="0" result="BackgroundImageFix"/><feBlend in="SourceGraphic" in2="BackgroundImageFix" result="shape"/><feColorMatrix in="SourceAlpha" values="0 0 0 0 0 0 0 0 0 0 0 0 0 0 0 0 0 0 127 0" result="hardAlpha"/><feOffset dy="4"/><feGaussianBlur stdDeviation="2"/><feComposite in2="hardAlpha" operator="arithmetic" k2="-1" k3="1"/><feColorMatrix values="0 0 0 0 0 0 0 0 0 0 0 0 0 0 0 0 0 0 0.25 0"/><feBlend in2="shape" result="effect1_innerShadow"/></filter><filter id="filter3_ii" x="328.858" y="415.695" width="65.522" height="65.522" filterUnits="userSpaceOnUse" color-interpolation-filters="sRGB"><feFlood flood-opacity="0" result="BackgroundImageFix"/><feBlend in="SourceGraphic" in2="BackgroundImageFix" result="shape"/><feColorMatrix in="SourceAlpha" values="0 0 0 0 0 0 0 0 0 0 0 0 0 0 0 0 0 0 127 0" result="hardAlpha"/><feOffset dx="3" dy="3"/><feGaussianBlur stdDeviation="16.5"/><feComposite in2="hardAlpha" operator="arithmetic" k2="-1" k3="1"/><feColorMatrix values="0 0 0 0 0 0 0 0 0 0.0385811 0 0 0 0 0.182617 0 0 0 1 0"/><feBlend in2="shape" result="effect1_innerShadow"/><feColorMatrix in="SourceAlpha" values="0 0 0 0 0 0 0 0 0 0 0 0 0 0 0 0 0 0 127 0" result="hardAlpha"/><feOffset dx="-2" dy="-2"/><feGaussianBlur stdDeviation="2.5"/><feComposite in2="hardAlpha" operator="arithmetic" k2="-1" k3="1"/><feColorMatrix values="0 0 0 0 0 0 0 0 0 0.103769 0 0 0 0 0.492904 0 0 0 1 0"/><feBlend in2="effect1_innerShadow" result="effect2_innerShadow"/></filter><radialGradient id="paint0_radial" cx="0" cy="0" r="1" gradientUnits="userSpaceOnUse" gradientTransform="rotate(75.433 -15.853 354.253) scale(288.266)"><stop offset=".13" stop-color="#fff"/><stop offset=".417" stop-color="#F4F8FC"/><stop offset=".828" stop-color="#F4F8FC"/><stop offset="1" stop-color="#9CB0C2"/></radialGradient><radialGradient id="paint3_radial" cx="0" cy="0" r="1" gradientUnits="userSpaceOnUse" gradientTransform="rotate(-155.446 286.299 166.544) scale(280.352 450.313)"><stop stop-color="#000C3A"/><stop offset=".557" stop-color="#001D89"/><stop offset=".844" stop-color="#082489"/><stop offset="1" stop-color="#839DFF"/></radialGradient><linearGradient id="paint1_linear" x1="310" y1="424.5" x2="406.5" y2="478.5" gradientUnits="userSpaceOnUse"><stop offset=".016" stop-color="#23B5FF"/><stop offset="1" stop-color="#004698"/></linearGradient><linearGradient id="paint2_linear" x1="132" y1="331" x2="476" y2="501.5" gradientUnits="userSpaceOnUse"><stop stop-color="#526DD1"/><stop offset=".37" stop-color="#526DD1"/><stop offset=".521" stop-color="#001D88"/><stop offset=".901" stop-color="#000D3E"/></linearGradient></defs></svg>