<svg width="371" height="362" viewBox="0 0 371 362" fill="none" xmlns="http://www.w3.org/2000/svg">
<g filter="url(#filter0_dii)">
<path fill-rule="evenodd" clip-rule="evenodd" d="M3 317L184.213 3L272.593 156.143C274.303 158.815 275.894 161.57 277.359 164.401L365.425 317H3ZM220.264 114.222L184.213 51.753L147.884 114.702C159.338 110.374 171.753 108.006 184.722 108.006C197.203 108.006 209.172 110.2 220.264 114.222ZM81.8417 229.138L45.2038 292.623H118.339C99.3258 276.903 85.9844 254.565 81.8417 229.138ZM251.106 292.623C269.778 277.184 282.98 255.364 287.371 230.503L323.222 292.623H251.106ZM263.477 212.248C263.477 255.743 228.217 291.003 184.722 291.003C141.227 291.003 105.967 255.743 105.967 212.248C105.967 168.753 141.227 133.493 184.722 133.493C228.217 133.493 263.477 168.753 263.477 212.248Z" fill="#F4F8FC"/>
</g>
<g filter="url(#filter1_d)">
<circle cx="185.486" cy="211.025" r="80.8741" fill="url(#paint0_radial)"/>
</g>
<path d="M185.547 258.733C211.105 258.733 231.823 238.015 231.823 212.458C231.823 209.492 231.544 206.592 231.011 203.781C231.011 203.781 204.148 211.37 186.511 211.494C168.132 211.622 140.084 203.781 140.084 203.781C139.551 206.592 139.272 209.492 139.272 212.458C139.272 238.015 159.99 258.733 185.547 258.733Z" fill="url(#paint1_linear)"/>
<path fill-rule="evenodd" clip-rule="evenodd" d="M149.556 205.579C149.135 207.8 148.913 210.099 148.913 212.459C148.913 232.692 165.315 249.094 185.548 249.094C205.781 249.094 222.183 232.692 222.183 212.459C222.183 210.099 221.961 207.8 221.539 205.579L240.483 201.985C241.128 205.385 241.464 208.887 241.464 212.459C241.464 243.34 216.43 268.375 185.548 268.375C154.666 268.375 129.632 243.34 129.632 212.459C129.632 208.887 129.968 205.385 130.613 201.985L149.556 205.579Z" fill="url(#paint2_linear)"/>
<g filter="url(#filter2_i)">
<path d="M200.972 229.812C200.972 238.331 194.066 245.238 185.547 245.238C177.028 245.238 170.122 238.331 170.122 229.812C170.122 221.293 177.028 214.387 185.547 214.387C194.066 214.387 200.972 221.293 200.972 229.812Z" fill="#001871"/>
</g>
<g filter="url(#filter3_ii)">
<path d="M200.972 229.812C200.972 238.331 194.066 245.238 185.547 245.238C177.028 245.238 170.122 238.331 170.122 229.812C170.122 221.293 177.028 214.387 185.547 214.387C194.066 214.387 200.972 221.293 200.972 229.812Z" fill="#001871"/>
</g>
<path fill-rule="evenodd" clip-rule="evenodd" d="M185.517 204.746C168.924 204.741 154.362 200.566 144.258 194.325C133.997 187.988 129.631 180.498 129.631 173.896C129.981 164.367 133.013 143.389 168.155 131.71C160.851 133.274 129.986 141.161 113.624 173.876C111.658 177.806 111.525 182.45 113.021 186.581C116.652 196.605 124.405 204.726 134.126 210.73C147.729 219.132 165.91 224.018 185.486 224.028M185.517 204.746C185.445 204.746 185.608 204.746 185.517 204.746C202.111 204.741 216.673 200.566 226.776 194.325C237.037 187.988 241.403 180.498 241.403 173.896C241.053 164.367 238.022 143.389 202.879 131.71C210.183 133.274 241.048 141.161 257.41 173.876C259.376 177.806 259.51 182.45 258.013 186.581C254.382 196.605 246.629 204.726 236.908 210.73C223.306 219.132 205.063 224.018 185.486 224.028L185.486 214.288L185.517 209.561V204.746Z" fill="url(#paint3_radial)"/>
<defs>
<filter id="filter0_dii" x="-2" y="-2" width="372.425" height="324" filterUnits="userSpaceOnUse" color-interpolation-filters="sRGB">
<feFlood flood-opacity="0" result="BackgroundImageFix"/>
<feColorMatrix in="SourceAlpha" type="matrix" values="0 0 0 0 0 0 0 0 0 0 0 0 0 0 0 0 0 0 127 0"/>
<feOffset dx="1" dy="1"/>
<feGaussianBlur stdDeviation="2"/>
<feColorMatrix type="matrix" values="0 0 0 0 0.85098 0 0 0 0 0.890196 0 0 0 0 0.937255 0 0 0 0.5 0"/>
<feBlend mode="normal" in2="BackgroundImageFix" result="effect1_dropShadow"/>
<feBlend mode="normal" in="SourceGraphic" in2="effect1_dropShadow" result="shape"/>
<feColorMatrix in="SourceAlpha" type="matrix" values="0 0 0 0 0 0 0 0 0 0 0 0 0 0 0 0 0 0 127 0" result="hardAlpha"/>
<feOffset dx="5" dy="3"/>
<feGaussianBlur stdDeviation="5"/>
<feComposite in2="hardAlpha" operator="arithmetic" k2="-1" k3="1"/>
<feColorMatrix type="matrix" values="0 0 0 0 0.682353 0 0 0 0 0.756863 0 0 0 0 0.831373 0 0 0 0.6 0"/>
<feBlend mode="normal" in2="shape" result="effect2_innerShadow"/>
<feColorMatrix in="SourceAlpha" type="matrix" values="0 0 0 0 0 0 0 0 0 0 0 0 0 0 0 0 0 0 127 0" result="hardAlpha"/>
<feOffset dx="-6" dy="-6"/>
<feGaussianBlur stdDeviation="2.5"/>
<feComposite in2="hardAlpha" operator="arithmetic" k2="-1" k3="1"/>
<feColorMatrix type="matrix" values="0 0 0 0 1 0 0 0 0 1 0 0 0 0 1 0 0 0 1 0"/>
<feBlend mode="normal" in2="effect2_innerShadow" result="effect3_innerShadow"/>
</filter>
<filter id="filter1_d" x="74.6119" y="120.151" width="241.748" height="241.748" filterUnits="userSpaceOnUse" color-interpolation-filters="sRGB">
<feFlood flood-opacity="0" result="BackgroundImageFix"/>
<feColorMatrix in="SourceAlpha" type="matrix" values="0 0 0 0 0 0 0 0 0 0 0 0 0 0 0 0 0 0 127 0"/>
<feOffset dx="10" dy="30"/>
<feGaussianBlur stdDeviation="20"/>
<feColorMatrix type="matrix" values="0 0 0 0 0.765368 0 0 0 0 0.809524 0 0 0 0 0.85 0 0 0 1 0"/>
<feBlend mode="normal" in2="BackgroundImageFix" result="effect1_dropShadow"/>
<feBlend mode="normal" in="SourceGraphic" in2="effect1_dropShadow" result="shape"/>
</filter>
<filter id="filter2_i" x="170.122" y="214.387" width="30.8504" height="34.8504" filterUnits="userSpaceOnUse" color-interpolation-filters="sRGB">
<feFlood flood-opacity="0" result="BackgroundImageFix"/>
<feBlend mode="normal" in="SourceGraphic" in2="BackgroundImageFix" result="shape"/>
<feColorMatrix in="SourceAlpha" type="matrix" values="0 0 0 0 0 0 0 0 0 0 0 0 0 0 0 0 0 0 127 0" result="hardAlpha"/>
<feOffset dy="4"/>
<feGaussianBlur stdDeviation="2"/>
<feComposite in2="hardAlpha" operator="arithmetic" k2="-1" k3="1"/>
<feColorMatrix type="matrix" values="0 0 0 0 0 0 0 0 0 0 0 0 0 0 0 0 0 0 0.25 0"/>
<feBlend mode="normal" in2="shape" result="effect1_innerShadow"/>
</filter>
<filter id="filter3_ii" x="168.122" y="212.387" width="35.8504" height="35.8504" filterUnits="userSpaceOnUse" color-interpolation-filters="sRGB">
<feFlood flood-opacity="0" result="BackgroundImageFix"/>
<feBlend mode="normal" in="SourceGraphic" in2="BackgroundImageFix" result="shape"/>
<feColorMatrix in="SourceAlpha" type="matrix" values="0 0 0 0 0 0 0 0 0 0 0 0 0 0 0 0 0 0 127 0" result="hardAlpha"/>
<feOffset dx="3" dy="3"/>
<feGaussianBlur stdDeviation="16.5"/>
<feComposite in2="hardAlpha" operator="arithmetic" k2="-1" k3="1"/>
<feColorMatrix type="matrix" values="0 0 0 0 0 0 0 0 0 0.0385811 0 0 0 0 0.182617 0 0 0 1 0"/>
<feBlend mode="normal" in2="shape" result="effect1_innerShadow"/>
<feColorMatrix in="SourceAlpha" type="matrix" values="0 0 0 0 0 0 0 0 0 0 0 0 0 0 0 0 0 0 127 0" result="hardAlpha"/>
<feOffset dx="-2" dy="-2"/>
<feGaussianBlur stdDeviation="2.5"/>
<feComposite in2="hardAlpha" operator="arithmetic" k2="-1" k3="1"/>
<feColorMatrix type="matrix" values="0 0 0 0 0 0 0 0 0 0.103769 0 0 0 0 0.492904 0 0 0 1 0"/>
<feBlend mode="normal" in2="effect1_innerShadow" result="effect2_innerShadow"/>
</filter>
<radialGradient id="paint0_radial" cx="0" cy="0" r="1" gradientUnits="userSpaceOnUse" gradientTransform="translate(170.195 144.452) rotate(75.4335) scale(146.941)">
<stop offset="0.130208" stop-color="white"/>
<stop offset="0.416667" stop-color="#F4F8FC"/>
<stop offset="0.828125" stop-color="#F4F8FC"/>
<stop offset="1" stop-color="#9CB0C2"/>
</radialGradient>
<linearGradient id="paint1_linear" x1="159.49" y1="217.855" x2="208.68" y2="245.381" gradientUnits="userSpaceOnUse">
<stop offset="0.015625" stop-color="#23B5FF"/>
<stop offset="1" stop-color="#004698"/>
</linearGradient>
<linearGradient id="paint2_linear" x1="68.7559" y1="170.195" x2="244.107" y2="257.106" gradientUnits="userSpaceOnUse">
<stop stop-color="#526DD1"/>
<stop offset="0.369792" stop-color="#526DD1"/>
<stop offset="0.520882" stop-color="#001D88"/>
<stop offset="0.901042" stop-color="#000D3E"/>
</linearGradient>
<radialGradient id="paint3_radial" cx="0" cy="0" r="1" gradientUnits="userSpaceOnUse" gradientTransform="translate(244.871 224.228) rotate(-155.446) scale(142.907 229.542)">
<stop stop-color="#000C3A"/>
<stop offset="0.557292" stop-color="#001D89"/>
<stop offset="0.84375" stop-color="#082489"/>
<stop offset="1" stop-color="#839DFF"/>
</radialGradient>
</defs>
</svg>
