<svg width="719" height="640" viewBox="0 0 719 640" fill="none" xmlns="http://www.w3.org/2000/svg">
<g filter="url(#filter0_dii)">
<path fill-rule="evenodd" clip-rule="evenodd" d="M3 619L358.5 3L531.883 303.433C535.237 308.676 538.359 314.081 541.234 319.636L714 619H3ZM429.226 221.195L358.5 98.6429L287.231 222.136C309.7 213.646 334.058 209 359.5 209C383.985 209 407.466 213.303 429.226 221.195ZM157.671 446.634L85.7948 571.179H229.269C191.97 540.337 165.797 496.516 157.671 446.634ZM489.731 571.179C526.361 540.89 552.26 498.083 560.875 449.312L631.205 571.179H489.731ZM514 413.5C514 498.828 444.828 568 359.5 568C274.172 568 205 498.828 205 413.5C205 328.172 274.172 259 359.5 259C444.828 259 514 328.172 514 413.5Z" fill="#F4F8FC"/>
</g>
<g filter="url(#filter1_d)">
<circle cx="360.999" cy="411.101" r="158.657" fill="url(#paint0_radial)"/>
</g>
<path d="M361.119 504.695C411.257 504.695 451.902 464.05 451.902 413.912C451.902 408.094 451.354 402.404 450.308 396.89C450.308 396.89 397.61 411.779 363.01 412.021C326.954 412.273 271.93 396.89 271.93 396.89C270.884 402.404 270.336 408.094 270.336 413.912C270.336 464.05 310.981 504.695 361.119 504.695Z" fill="url(#paint1_linear)"/>
<path fill-rule="evenodd" clip-rule="evenodd" d="M290.513 400.416C289.686 404.773 289.251 409.283 289.251 413.913C289.251 453.605 321.428 485.782 361.121 485.782C400.813 485.782 432.99 453.605 432.99 413.913C432.99 409.283 432.555 404.773 431.728 400.416L468.892 393.366C470.157 400.036 470.816 406.906 470.816 413.913C470.816 474.496 421.704 523.608 361.121 523.608C300.537 523.608 251.425 474.496 251.425 413.913C251.425 406.906 252.084 400.036 253.349 393.366L290.513 400.416Z" fill="url(#paint2_linear)"/>
<g filter="url(#filter2_i)">
<path d="M391.38 447.956C391.38 464.669 377.832 478.217 361.119 478.217C344.406 478.217 330.858 464.669 330.858 447.956C330.858 431.244 344.406 417.696 361.119 417.696C377.832 417.696 391.38 431.244 391.38 447.956Z" fill="#001871"/>
</g>
<g filter="url(#filter3_ii)">
<path d="M391.38 447.956C391.38 464.669 377.832 478.217 361.119 478.217C344.407 478.217 330.858 464.669 330.858 447.956C330.858 431.244 344.407 417.695 361.119 417.695C377.832 417.695 391.38 431.244 391.38 447.956Z" fill="#001871"/>
</g>
<path fill-rule="evenodd" clip-rule="evenodd" d="M361.06 398.782C328.507 398.772 299.94 390.58 280.119 378.338C259.989 365.905 251.424 351.212 251.424 338.26C252.111 319.566 258.058 278.412 327 255.5C312.671 258.569 252.121 274.04 220.021 338.22C216.165 345.93 215.903 355.041 218.839 363.146C225.961 382.809 241.172 398.742 260.241 410.52C286.927 427.003 322.595 436.588 361 436.608M361.06 398.782C360.92 398.782 361.238 398.782 361.06 398.782C393.613 398.772 422.18 390.58 442.002 378.338C462.131 365.905 470.696 351.212 470.696 338.26C470.009 319.566 464.063 278.412 395.12 255.5C409.449 258.569 469.999 274.04 502.099 338.22C505.955 345.93 506.217 355.041 503.281 363.146C496.159 382.809 480.948 398.742 461.879 410.52C435.193 427.003 399.405 436.588 361 436.608L361 417.5L361.06 408.227V398.782Z" fill="url(#paint3_radial)"/>
<defs>
<filter id="filter0_dii" x="-2" y="-2" width="721" height="626" filterUnits="userSpaceOnUse" color-interpolation-filters="sRGB">
<feFlood flood-opacity="0" result="BackgroundImageFix"/>
<feColorMatrix in="SourceAlpha" type="matrix" values="0 0 0 0 0 0 0 0 0 0 0 0 0 0 0 0 0 0 127 0"/>
<feOffset dx="1" dy="1"/>
<feGaussianBlur stdDeviation="2"/>
<feColorMatrix type="matrix" values="0 0 0 0 0.85098 0 0 0 0 0.890196 0 0 0 0 0.937255 0 0 0 0.5 0"/>
<feBlend mode="normal" in2="BackgroundImageFix" result="effect1_dropShadow"/>
<feBlend mode="normal" in="SourceGraphic" in2="effect1_dropShadow" result="shape"/>
<feColorMatrix in="SourceAlpha" type="matrix" values="0 0 0 0 0 0 0 0 0 0 0 0 0 0 0 0 0 0 127 0" result="hardAlpha"/>
<feOffset dx="5" dy="3"/>
<feGaussianBlur stdDeviation="5"/>
<feComposite in2="hardAlpha" operator="arithmetic" k2="-1" k3="1"/>
<feColorMatrix type="matrix" values="0 0 0 0 0.682353 0 0 0 0 0.756863 0 0 0 0 0.831373 0 0 0 0.6 0"/>
<feBlend mode="normal" in2="shape" result="effect2_innerShadow"/>
<feColorMatrix in="SourceAlpha" type="matrix" values="0 0 0 0 0 0 0 0 0 0 0 0 0 0 0 0 0 0 127 0" result="hardAlpha"/>
<feOffset dx="-6" dy="-6"/>
<feGaussianBlur stdDeviation="2.5"/>
<feComposite in2="hardAlpha" operator="arithmetic" k2="-1" k3="1"/>
<feColorMatrix type="matrix" values="0 0 0 0 1 0 0 0 0 1 0 0 0 0 1 0 0 0 1 0"/>
<feBlend mode="normal" in2="effect2_innerShadow" result="effect3_innerShadow"/>
</filter>
<filter id="filter1_d" x="172.341" y="242.444" width="397.315" height="397.315" filterUnits="userSpaceOnUse" color-interpolation-filters="sRGB">
<feFlood flood-opacity="0" result="BackgroundImageFix"/>
<feColorMatrix in="SourceAlpha" type="matrix" values="0 0 0 0 0 0 0 0 0 0 0 0 0 0 0 0 0 0 127 0"/>
<feOffset dx="10" dy="30"/>
<feGaussianBlur stdDeviation="20"/>
<feColorMatrix type="matrix" values="0 0 0 0 0.765368 0 0 0 0 0.809524 0 0 0 0 0.85 0 0 0 1 0"/>
<feBlend mode="normal" in2="BackgroundImageFix" result="effect1_dropShadow"/>
<feBlend mode="normal" in="SourceGraphic" in2="effect1_dropShadow" result="shape"/>
</filter>
<filter id="filter2_i" x="330.858" y="417.696" width="60.5217" height="64.5217" filterUnits="userSpaceOnUse" color-interpolation-filters="sRGB">
<feFlood flood-opacity="0" result="BackgroundImageFix"/>
<feBlend mode="normal" in="SourceGraphic" in2="BackgroundImageFix" result="shape"/>
<feColorMatrix in="SourceAlpha" type="matrix" values="0 0 0 0 0 0 0 0 0 0 0 0 0 0 0 0 0 0 127 0" result="hardAlpha"/>
<feOffset dy="4"/>
<feGaussianBlur stdDeviation="2"/>
<feComposite in2="hardAlpha" operator="arithmetic" k2="-1" k3="1"/>
<feColorMatrix type="matrix" values="0 0 0 0 0 0 0 0 0 0 0 0 0 0 0 0 0 0 0.25 0"/>
<feBlend mode="normal" in2="shape" result="effect1_innerShadow"/>
</filter>
<filter id="filter3_ii" x="328.858" y="415.695" width="65.5217" height="65.5217" filterUnits="userSpaceOnUse" color-interpolation-filters="sRGB">
<feFlood flood-opacity="0" result="BackgroundImageFix"/>
<feBlend mode="normal" in="SourceGraphic" in2="BackgroundImageFix" result="shape"/>
<feColorMatrix in="SourceAlpha" type="matrix" values="0 0 0 0 0 0 0 0 0 0 0 0 0 0 0 0 0 0 127 0" result="hardAlpha"/>
<feOffset dx="3" dy="3"/>
<feGaussianBlur stdDeviation="16.5"/>
<feComposite in2="hardAlpha" operator="arithmetic" k2="-1" k3="1"/>
<feColorMatrix type="matrix" values="0 0 0 0 0 0 0 0 0 0.0385811 0 0 0 0 0.182617 0 0 0 1 0"/>
<feBlend mode="normal" in2="shape" result="effect1_innerShadow"/>
<feColorMatrix in="SourceAlpha" type="matrix" values="0 0 0 0 0 0 0 0 0 0 0 0 0 0 0 0 0 0 127 0" result="hardAlpha"/>
<feOffset dx="-2" dy="-2"/>
<feGaussianBlur stdDeviation="2.5"/>
<feComposite in2="hardAlpha" operator="arithmetic" k2="-1" k3="1"/>
<feColorMatrix type="matrix" values="0 0 0 0 0 0 0 0 0 0.103769 0 0 0 0 0.492904 0 0 0 1 0"/>
<feBlend mode="normal" in2="effect1_innerShadow" result="effect2_innerShadow"/>
</filter>
<radialGradient id="paint0_radial" cx="0" cy="0" r="1" gradientUnits="userSpaceOnUse" gradientTransform="translate(331 280.5) rotate(75.4335) scale(288.266)">
<stop offset="0.130208" stop-color="white"/>
<stop offset="0.416667" stop-color="#F4F8FC"/>
<stop offset="0.828125" stop-color="#F4F8FC"/>
<stop offset="1" stop-color="#9CB0C2"/>
</radialGradient>
<linearGradient id="paint1_linear" x1="310" y1="424.5" x2="406.5" y2="478.5" gradientUnits="userSpaceOnUse">
<stop offset="0.015625" stop-color="#23B5FF"/>
<stop offset="1" stop-color="#004698"/>
</linearGradient>
<linearGradient id="paint2_linear" x1="132" y1="331" x2="476" y2="501.5" gradientUnits="userSpaceOnUse">
<stop stop-color="#526DD1"/>
<stop offset="0.369792" stop-color="#526DD1"/>
<stop offset="0.520882" stop-color="#001D88"/>
<stop offset="0.901042" stop-color="#000D3E"/>
</linearGradient>
<radialGradient id="paint3_radial" cx="0" cy="0" r="1" gradientUnits="userSpaceOnUse" gradientTransform="translate(477.5 437) rotate(-155.446) scale(280.352 450.313)">
<stop stop-color="#000C3A"/>
<stop offset="0.557292" stop-color="#001D89"/>
<stop offset="0.84375" stop-color="#082489"/>
<stop offset="1" stop-color="#839DFF"/>
</radialGradient>
</defs>
</svg>
