<svg width="48" height="28" viewBox="0 0 48 28" fill="none" xmlns="http://www.w3.org/2000/svg"><g filter="url(#filter0_i)"><path fill-rule="evenodd" clip-rule="evenodd" d="M46.305 2.108c.346-1.087 0-1.878-1.532-1.878h-5.088c-1.284 0-1.877.692-2.223 1.433 0 0-2.618 6.323-6.274 10.423-1.185 1.186-1.729 1.581-2.37 1.581-.347 0-.791-.395-.791-1.482V2.058c0-1.284-.396-1.877-1.482-1.877h-8.003c-.79 0-1.285.593-1.285 1.186 0 1.235 1.828 1.53 2.026 4.989v7.509c0 1.63-.297 1.926-.939 1.926-1.729 0-5.928-6.372-8.447-13.634C9.403.724 8.909.18 7.624.18H2.487C1.005.18.757.873.757 1.614c0 1.333 1.73 8.052 8.053 16.944 4.199 6.076 10.176 9.336 15.561 9.336 3.26 0 3.656-.74 3.656-1.976v-4.594c0-1.482.296-1.729 1.333-1.729.742 0 2.075.395 5.089 3.31 3.458 3.458 4.05 5.039 5.977 5.039h5.088c1.482 0 2.174-.741 1.779-2.174-.445-1.432-2.124-3.507-4.298-5.977-1.186-1.383-2.964-2.915-3.508-3.656-.74-.988-.543-1.383 0-2.272-.049 0 6.175-8.793 6.818-11.757z" fill="#4382CF"/></g><defs><filter id="filter0_i" x=".758" y=".181" width="50.645" height="31.763" filterUnits="userSpaceOnUse" color-interpolation-filters="sRGB"><feFlood flood-opacity="0" result="BackgroundImageFix"/><feBlend in="SourceGraphic" in2="BackgroundImageFix" result="shape"/><feColorMatrix in="SourceAlpha" values="0 0 0 0 0 0 0 0 0 0 0 0 0 0 0 0 0 0 127 0" result="hardAlpha"/><feOffset dx="4" dy="4"/><feGaussianBlur stdDeviation="3"/><feComposite in2="hardAlpha" operator="arithmetic" k2="-1" k3="1"/><feColorMatrix values="0 0 0 0 0.144001 0 0 0 0 0.244011 0 0 0 0 0.365234 0 0 0 0.45 0"/><feBlend in2="shape" result="effect1_innerShadow"/></filter></defs></svg>