<svg width="36" height="61" viewBox="0 0 36 61" fill="none" xmlns="http://www.w3.org/2000/svg"><g filter="url(#filter0_i)"><path d="M24.49 43.645l8.967 8.808a4.554 4.554 0 010 6.526c-1.835 1.803-4.81 1.803-6.643 0l-8.816-8.654-8.808 8.654a4.738 4.738 0 01-3.325 1.351 4.732 4.732 0 01-3.322-1.35 4.559 4.559 0 01-.002-6.527l8.968-8.808a30.4 30.4 0 01-9.314-3.788C0 38.497-.66 35.65.723 33.493c1.38-2.16 4.28-2.811 6.479-1.452 6.566 4.057 15.025 4.058 21.595 0 2.199-1.359 5.098-.709 6.48 1.452 1.383 2.155.722 5.005-1.473 6.364a30.353 30.353 0 01-9.314 3.788z" fill="#ED812B"/></g><g filter="url(#filter1_i)"><path fill-rule="evenodd" clip-rule="evenodd" d="M17.752 31.317c-8.947 0-16.223-7.023-16.223-15.656C1.529 7.025 8.805 0 17.752 0c8.949 0 16.223 7.025 16.223 15.661 0 8.633-7.274 15.656-16.223 15.656zm6.718-15.656c0-3.576-3.013-6.483-6.717-6.483-3.701 0-6.717 2.907-6.717 6.483 0 3.573 3.016 6.482 6.717 6.482 3.704 0 6.717-2.91 6.717-6.482z" fill="#ED812B"/></g><g filter="url(#filter2_d)"><path d="M25 15.331a7 7 0 11-14 0 7 7 0 0114 0z" fill="#F4F8FC"/></g><defs><filter id="filter0_i" x="0" y="31.331" width="40" height="33" filterUnits="userSpaceOnUse" color-interpolation-filters="sRGB"><feFlood flood-opacity="0" result="BackgroundImageFix"/><feBlend in="SourceGraphic" in2="BackgroundImageFix" result="shape"/><feColorMatrix in="SourceAlpha" values="0 0 0 0 0 0 0 0 0 0 0 0 0 0 0 0 0 0 127 0" result="hardAlpha"/><feOffset dx="4" dy="4"/><feGaussianBlur stdDeviation="7"/><feComposite in2="hardAlpha" operator="arithmetic" k2="-1" k3="1"/><feColorMatrix values="0 0 0 0 0.639216 0 0 0 0 0.282353 0 0 0 0 0 0 0 0 0.5 0"/><feBlend in2="shape" result="effect1_innerShadow"/></filter><filter id="filter1_i" x="1.529" y="0" width="36.446" height="35.317" filterUnits="userSpaceOnUse" color-interpolation-filters="sRGB"><feFlood flood-opacity="0" result="BackgroundImageFix"/><feBlend in="SourceGraphic" in2="BackgroundImageFix" result="shape"/><feColorMatrix in="SourceAlpha" values="0 0 0 0 0 0 0 0 0 0 0 0 0 0 0 0 0 0 127 0" result="hardAlpha"/><feOffset dx="4" dy="4"/><feGaussianBlur stdDeviation="5"/><feComposite in2="hardAlpha" operator="arithmetic" k2="-1" k3="1"/><feColorMatrix values="0 0 0 0 0.63776 0 0 0 0 0.282718 0 0 0 0 0 0 0 0 0.5 0"/><feBlend in2="shape" result="effect1_innerShadow"/></filter><filter id="filter2_d" x="8" y="5.331" width="22" height="22" filterUnits="userSpaceOnUse" color-interpolation-filters="sRGB"><feFlood flood-opacity="0" result="BackgroundImageFix"/><feColorMatrix in="SourceAlpha" values="0 0 0 0 0 0 0 0 0 0 0 0 0 0 0 0 0 0 127 0"/><feOffset dx="1" dy="1"/><feGaussianBlur stdDeviation="2"/><feColorMatrix values="0 0 0 0 0.639216 0 0 0 0 0.282353 0 0 0 0 0 0 0 0 0.5 0"/><feBlend in2="BackgroundImageFix" result="effect1_dropShadow"/><feBlend in="SourceGraphic" in2="effect1_dropShadow" result="shape"/></filter></defs></svg>