<svg width="57" height="57" viewBox="0 0 57 57" fill="none" xmlns="http://www.w3.org/2000/svg"><g filter="url(#filter0_i)" fill="#25D366"><path fill-rule="evenodd" clip-rule="evenodd" d="M28.407 56.36h-.012a28.146 28.146 0 01-13.462-3.429L0 56.85l3.996-14.6a28.119 28.119 0 01-3.76-14.083C.242 12.636 12.88 0 28.406 0c7.536.003 14.609 2.937 19.927 8.262 5.319 5.324 8.246 12.401 8.243 19.928-.006 15.529-12.638 28.164-28.17 28.17zm13.228-22.105c.49.237.822.398.964.634.176.293.176 1.703-.41 3.347-.587 1.644-3.4 3.145-4.752 3.347-1.212.181-2.747.257-4.433-.279a40.406 40.406 0 01-4.013-1.483c-6.599-2.849-11.058-9.244-11.9-10.453a8.151 8.151 0 00-.124-.175l-.006-.007c-.372-.497-2.868-3.828-2.868-7.274 0-3.242 1.593-4.942 2.326-5.724l.137-.148c.646-.705 1.408-.88 1.877-.88.47 0 .94.003 1.35.024.05.003.103.002.157.002.41-.002.922-.005 1.426 1.206.194.466.478 1.157.777 1.886v.001c.606 1.475 1.276 3.104 1.393 3.34.176.352.294.763.059 1.233l-.099.2c-.176.36-.306.625-.605.974-.117.137-.24.285-.36.433-.243.295-.485.59-.696.8-.352.351-.719.732-.308 1.437.41.704 1.823 3.01 3.915 4.876 2.25 2.006 4.205 2.854 5.195 3.284.194.084.35.152.466.21.703.352 1.114.293 1.525-.177.41-.47 1.76-2.055 2.228-2.76.47-.704.939-.587 1.584-.352.645.235 4.106 1.938 4.81 2.29.137.069.266.13.385.188z"/><path d="M41.25 34.067c-.704-.352-4.165-2.055-4.81-2.29-.645-.235-1.114-.352-1.584.352-.469.705-1.818 2.29-2.228 2.76-.411.47-.822.529-1.525.176a10.372 10.372 0 00-.466-.21c-.99-.43-2.945-1.277-5.195-3.283-2.092-1.867-3.505-4.172-3.915-4.876-.41-.705-.044-1.086.308-1.437.211-.21.453-.505.695-.8.122-.148.243-.296.361-.433.3-.35.429-.614.605-.974l.099-.2c.235-.47.117-.881-.059-1.233-.117-.236-.787-1.865-1.392-3.34-.3-.73-.584-1.42-.778-1.887-.504-1.211-1.016-1.208-1.426-1.206-.054 0-.107 0-.158-.002-.41-.02-.88-.025-1.349-.025s-1.231.176-1.877.88c-.04.046-.087.095-.137.149-.733.782-2.326 2.482-2.326 5.724 0 3.446 2.496 6.777 2.868 7.274l.006.007c.023.03.064.09.123.175.843 1.209 5.302 7.604 11.901 10.453 1.68.726 2.99 1.159 4.013 1.483 1.686.536 3.22.46 4.433.279 1.352-.202 4.165-1.703 4.751-3.347.587-1.644.587-3.053.41-3.347-.14-.236-.472-.397-.963-.634-.12-.057-.248-.12-.385-.188z"/></g><g filter="url(#filter1_d)" fill="#F4F8FC"><path fill-rule="evenodd" clip-rule="evenodd" d="M41.745 34.413c.497.242.833.404.977.645.178.298.178 1.73-.416 3.402-.595 1.672-3.445 3.197-4.816 3.403-1.23.184-2.785.26-4.494-.284a40.898 40.898 0 01-4.068-1.507c-6.689-2.897-11.21-9.399-12.064-10.627a8.81 8.81 0 00-.125-.178l-.006-.008c-.377-.505-2.907-3.89-2.907-7.394 0-3.296 1.614-5.024 2.357-5.819l.14-.15c.654-.717 1.427-.896 1.903-.896.475 0 .951.004 1.367.025.052.003.105.003.16.002.416-.002.934-.005 1.446 1.227.196.474.484 1.176.787 1.917v.001c.615 1.499 1.293 3.155 1.412 3.395.179.358.298.776.06 1.253l-.1.204c-.179.366-.31.635-.614.99-.119.14-.242.29-.365.44-.246.3-.491.6-.705.814-.357.357-.729.744-.313 1.46.417.716 1.848 3.06 3.97 4.957 2.28 2.04 4.262 2.902 5.266 3.339.196.085.355.154.472.213.713.358 1.13.298 1.545-.18.417-.477 1.784-2.089 2.26-2.805.475-.716.951-.597 1.605-.358s4.162 1.97 4.876 2.328c.139.07.269.133.39.191z"/><path d="M41.355 34.222c-.714-.358-4.222-2.09-4.876-2.328-.654-.239-1.13-.358-1.605.358-.476.716-1.843 2.328-2.26 2.806-.416.477-.832.537-1.545.179a10.494 10.494 0 00-.472-.213 18.43 18.43 0 01-5.266-3.339c-2.122-1.897-3.553-4.24-3.97-4.957-.416-.716-.044-1.103.313-1.46.214-.214.46-.514.705-.813.123-.15.246-.301.365-.44.304-.356.435-.625.614-.99.031-.065.064-.133.1-.204.238-.478.119-.896-.06-1.254-.119-.24-.797-1.896-1.411-3.395a727.58 727.58 0 00-.788-1.918c-.512-1.232-1.03-1.23-1.446-1.227-.055 0-.108 0-.16-.002-.416-.02-.892-.025-1.367-.025-.476 0-1.249.18-1.903.896l-.14.15c-.743.795-2.357 2.523-2.357 5.819 0 3.504 2.53 6.89 2.907 7.394l.006.008c.024.031.066.092.125.178.855 1.229 5.375 7.73 12.064 10.627a40.898 40.898 0 004.068 1.507c1.709.545 3.264.468 4.494.284 1.37-.206 4.221-1.731 4.816-3.403.594-1.671.594-3.104.416-3.402-.144-.24-.48-.404-.977-.645a21.95 21.95 0 01-.39-.191z"/></g><defs><filter id="filter0_i" x="0" y="0" width="56.576" height="56.849" filterUnits="userSpaceOnUse" color-interpolation-filters="sRGB"><feFlood flood-opacity="0" result="BackgroundImageFix"/><feBlend in="SourceGraphic" in2="BackgroundImageFix" result="shape"/><feColorMatrix in="SourceAlpha" values="0 0 0 0 0 0 0 0 0 0 0 0 0 0 0 0 0 0 127 0" result="hardAlpha"/><feOffset/><feGaussianBlur stdDeviation="10"/><feComposite in2="hardAlpha" operator="arithmetic" k2="-1" k3="1"/><feColorMatrix values="0 0 0 0 0.00672299 0 0 0 0 0.394141 0 0 0 0 0.151448 0 0 0 0.6 0"/><feBlend in2="shape" result="effect1_innerShadow"/></filter><filter id="filter1_d" x="9.826" y="12" width="41" height="39" filterUnits="userSpaceOnUse" color-interpolation-filters="sRGB"><feFlood flood-opacity="0" result="BackgroundImageFix"/><feColorMatrix in="SourceAlpha" values="0 0 0 0 0 0 0 0 0 0 0 0 0 0 0 0 0 0 127 0"/><feOffset dx="2" dy="3"/><feGaussianBlur stdDeviation="3"/><feColorMatrix values="0 0 0 0 0.00784314 0 0 0 0 0.396078 0 0 0 0 0.152941 0 0 0 0.6 0"/><feBlend in2="BackgroundImageFix" result="effect1_dropShadow"/><feBlend in="SourceGraphic" in2="effect1_dropShadow" result="shape"/></filter></defs></svg>