<svg width="25" height="41" viewBox="0 0 25 41" fill="none" xmlns="http://www.w3.org/2000/svg"><g filter="url(#filter0_i)"><path d="M16.691 29.51l5.864 5.76a2.978 2.978 0 010 4.267 3.11 3.11 0 01-4.344 0l-5.765-5.66-5.76 5.66c-.6.59-1.388.884-2.175.884a3.094 3.094 0 01-2.172-.883 2.981 2.981 0 01-.001-4.268l5.864-5.76a19.88 19.88 0 01-6.09-2.477 2.987 2.987 0 01-.963-4.162c.902-1.413 2.799-1.838 4.237-.95 4.294 2.653 9.825 2.654 14.122 0 1.438-.888 3.334-.463 4.238.95a2.987 2.987 0 01-.964 4.162 19.85 19.85 0 01-6.09 2.477z" fill="#ED812B"/></g><g filter="url(#filter1_i)"><path fill-rule="evenodd" clip-rule="evenodd" d="M12.285 21.448c-5.85 0-10.609-4.593-10.609-10.238C1.676 5.562 6.434.968 12.286.968c5.851 0 10.608 4.594 10.608 10.242 0 5.645-4.757 10.238-10.609 10.238zM16.68 11.21c0-2.338-1.97-4.24-4.393-4.24-2.42 0-4.392 1.902-4.392 4.24 0 2.337 1.972 4.24 4.392 4.24 2.423 0 4.393-1.903 4.393-4.24z" fill="#ED812B"/></g><g filter="url(#filter2_d)"><circle cx="12.447" cy="10.994" r="4.578" fill="#F4F8FC"/></g><defs><filter id="filter0_i" x=".676" y="21.457" width="27.542" height="22.964" filterUnits="userSpaceOnUse" color-interpolation-filters="sRGB"><feFlood flood-opacity="0" result="BackgroundImageFix"/><feBlend in="SourceGraphic" in2="BackgroundImageFix" result="shape"/><feColorMatrix in="SourceAlpha" values="0 0 0 0 0 0 0 0 0 0 0 0 0 0 0 0 0 0 127 0" result="hardAlpha"/><feOffset dx="4" dy="4"/><feGaussianBlur stdDeviation="7"/><feComposite in2="hardAlpha" operator="arithmetic" k2="-1" k3="1"/><feColorMatrix values="0 0 0 0 0.639216 0 0 0 0 0.282353 0 0 0 0 0 0 0 0 0.5 0"/><feBlend in2="shape" result="effect1_innerShadow"/></filter><filter id="filter1_i" x="1.676" y=".968" width="25.218" height="24.48" filterUnits="userSpaceOnUse" color-interpolation-filters="sRGB"><feFlood flood-opacity="0" result="BackgroundImageFix"/><feBlend in="SourceGraphic" in2="BackgroundImageFix" result="shape"/><feColorMatrix in="SourceAlpha" values="0 0 0 0 0 0 0 0 0 0 0 0 0 0 0 0 0 0 127 0" result="hardAlpha"/><feOffset dx="4" dy="4"/><feGaussianBlur stdDeviation="5"/><feComposite in2="hardAlpha" operator="arithmetic" k2="-1" k3="1"/><feColorMatrix values="0 0 0 0 0.63776 0 0 0 0 0.282718 0 0 0 0 0 0 0 0 0.5 0"/><feBlend in2="shape" result="effect1_innerShadow"/></filter><filter id="filter2_d" x="4.87" y="3.417" width="17.155" height="17.155" filterUnits="userSpaceOnUse" color-interpolation-filters="sRGB"><feFlood flood-opacity="0" result="BackgroundImageFix"/><feColorMatrix in="SourceAlpha" values="0 0 0 0 0 0 0 0 0 0 0 0 0 0 0 0 0 0 127 0"/><feOffset dx="1" dy="1"/><feGaussianBlur stdDeviation="2"/><feColorMatrix values="0 0 0 0 0.639216 0 0 0 0 0.282353 0 0 0 0 0 0 0 0 0.5 0"/><feBlend in2="BackgroundImageFix" result="effect1_dropShadow"/><feBlend in="SourceGraphic" in2="effect1_dropShadow" result="shape"/></filter></defs></svg>