<svg width="46" height="52" viewBox="0 0 46 52" fill="none" xmlns="http://www.w3.org/2000/svg"><g filter="url(#filter0_i)" fill="#fff"><path d="M45.256 41.209v-.033c0-.087-.011-.174-.011-.272-.066-2.151-.21-7.183-4.991-8.791-.033-.01-.078-.022-.11-.033-4.97-1.25-9.102-4.075-9.146-4.107a1.494 1.494 0 00-2.071.358 1.453 1.453 0 00.363 2.043c.188.13 4.573 3.14 10.06 4.532 2.567.902 2.854 3.608 2.931 6.085 0 .098 0 .185.011.272.011.978-.055 2.489-.231 3.358-1.785 1-8.782 4.455-19.426 4.455-10.6 0-17.64-3.466-19.437-4.466-.176-.87-.253-2.38-.231-3.358 0-.087.011-.174.011-.272.077-2.477.364-5.183 2.93-6.085 5.488-1.391 9.873-4.412 10.06-4.532.673-.467.838-1.38.364-2.043a1.5 1.5 0 00-2.071-.358c-.044.032-4.154 2.858-9.145 4.108a1.36 1.36 0 00-.11.032C.222 33.722.08 38.752.013 40.894c0 .097 0 .184-.011.271v.033c-.011.565-.022 3.466.562 4.923.11.282.308.521.573.684C1.468 47.023 9.39 52 22.646 52c13.255 0 21.178-4.988 21.508-5.195.254-.163.463-.402.573-.684.551-1.446.54-4.347.53-4.912z"/><path d="M28.927 28.331a1.5 1.5 0 011.945-.437c-2.658-2.01-9.383-4.242-16.32-.09a1.5 1.5 0 011.78.516 1.453 1.453 0 01-.363 2.043c4.978-3.46 9.851-2.401 13.321.011a1.453 1.453 0 01-.363-2.043z"/></g><path d="M22.436 28.276h.353c3.229-.054 5.84-1.174 7.768-3.314 4.242-4.717 3.537-12.802 3.46-13.573-.276-5.792-3.052-8.564-5.344-9.857C26.965.565 24.971.043 22.745 0h-.187c-1.223 0-3.625.196-5.928 1.489-2.314 1.293-5.135 4.064-5.41 9.9-.077.771-.783 8.856 3.46 13.573 1.917 2.14 4.528 3.26 7.756 3.314zM14.162 11.66c0-.032.01-.065.01-.087.364-7.791 5.973-8.628 8.375-8.628h.132c2.975.065 8.032 1.26 8.374 8.628 0 .033 0 .066.011.087.011.076.782 7.466-2.721 11.356-1.389 1.544-3.24 2.304-5.675 2.326h-.11c-2.424-.022-4.287-.782-5.664-2.326-3.493-3.868-2.743-11.29-2.732-11.356z" fill="#148AFF"/><defs><filter id="filter0_i" x="0" y="25.461" width="47.259" height="28.538" filterUnits="userSpaceOnUse" color-interpolation-filters="sRGB"><feFlood flood-opacity="0" result="BackgroundImageFix"/><feBlend in="SourceGraphic" in2="BackgroundImageFix" result="shape"/><feColorMatrix in="SourceAlpha" values="0 0 0 0 0 0 0 0 0 0 0 0 0 0 0 0 0 0 127 0" result="hardAlpha"/><feOffset dx="2" dy="2"/><feGaussianBlur stdDeviation="3"/><feComposite in2="hardAlpha" operator="arithmetic" k2="-1" k3="1"/><feColorMatrix values="0 0 0 0 0.578462 0 0 0 0 0.683882 0 0 0 0 0.764974 0 0 0 0.5 0"/><feBlend in2="shape" result="effect1_innerShadow"/></filter></defs></svg>