<svg width="50" height="50" viewBox="0 0 50 50" fill="none" xmlns="http://www.w3.org/2000/svg"><g filter="url(#filter0_i)"><path d="M47.276 25.766a1.466 1.466 0 000-1.531c-.08-.128-1.965-3.172-5.63-6.223-4.872-4.057-10.614-6.201-16.602-6.201-5.987 0-11.743 2.143-16.644 6.198-3.685 3.05-5.592 6.091-5.671 6.22a1.465 1.465 0 000 1.544c.079.128 1.986 3.17 5.671 6.219 4.901 4.055 10.657 6.198 16.644 6.198 5.988 0 11.73-2.145 16.603-6.201 3.664-3.051 5.55-6.095 5.629-6.223zM39.694 29.8c-4.383 3.623-9.313 5.46-14.65 5.46-5.34 0-10.285-1.838-14.699-5.463a27.973 27.973 0 01-4.139-4.21.944.944 0 010-1.174 27.981 27.981 0 014.14-4.211c4.413-3.625 9.358-5.462 14.698-5.462 5.337 0 10.266 1.836 14.65 5.458a27.624 27.624 0 014.114 4.219.944.944 0 010 1.165 27.61 27.61 0 01-4.114 4.218z" fill="#fff"/></g><path d="M25 16.198c-4.854 0-8.802 3.948-8.802 8.802 0 4.853 3.948 8.802 8.802 8.802 4.853 0 8.802-3.949 8.802-8.802 0-4.854-3.949-8.802-8.802-8.802zm0 14.674A5.88 5.88 0 0119.128 25 5.88 5.88 0 0125 19.128 5.88 5.88 0 0130.872 25 5.88 5.88 0 0125 30.872z" fill="#148AFF"/><g filter="url(#filter1_i)"><path d="M2.93 3.93a1 1 0 011-1h3.65a1.465 1.465 0 000-2.93H3a3 3 0 00-3 3v4.47a1.465 1.465 0 102.93 0V3.93z" fill="#fff"/></g><g filter="url(#filter2_i)"><path d="M42.42 0a1.465 1.465 0 100 2.93h3.65a1 1 0 011 1v3.54a1.465 1.465 0 102.93 0V3a3 3 0 00-3-3h-4.58z" fill="#fff"/></g><g filter="url(#filter3_i)"><path d="M2.93 42.53a1.465 1.465 0 00-2.93 0V47a3 3 0 003 3h4.58a1.465 1.465 0 100-2.93H3.93a1 1 0 01-1-1v-3.54z" fill="#fff"/></g><g filter="url(#filter4_i)"><path d="M47.07 46.07a1 1 0 01-1 1h-3.65a1.465 1.465 0 100 2.93H47a3 3 0 003-3v-4.47a1.465 1.465 0 00-2.93 0v3.54z" fill="#fff"/></g><defs><filter id="filter0_i" x="2.509" y="11.811" width="46.983" height="28.379" filterUnits="userSpaceOnUse" color-interpolation-filters="sRGB"><feFlood flood-opacity="0" result="BackgroundImageFix"/><feBlend in="SourceGraphic" in2="BackgroundImageFix" result="shape"/><feColorMatrix in="SourceAlpha" values="0 0 0 0 0 0 0 0 0 0 0 0 0 0 0 0 0 0 127 0" result="hardAlpha"/><feOffset dx="2" dy="2"/><feGaussianBlur stdDeviation="2"/><feComposite in2="hardAlpha" operator="arithmetic" k2="-1" k3="1"/><feColorMatrix values="0 0 0 0 0.578462 0 0 0 0 0.683882 0 0 0 0 0.764974 0 0 0 0.5 0"/><feBlend in2="shape" result="effect1_innerShadow"/></filter><filter id="filter1_i" x="0" y="0" width="11.045" height="10.935" filterUnits="userSpaceOnUse" color-interpolation-filters="sRGB"><feFlood flood-opacity="0" result="BackgroundImageFix"/><feBlend in="SourceGraphic" in2="BackgroundImageFix" result="shape"/><feColorMatrix in="SourceAlpha" values="0 0 0 0 0 0 0 0 0 0 0 0 0 0 0 0 0 0 127 0" result="hardAlpha"/><feOffset dx="2" dy="2"/><feGaussianBlur stdDeviation="4"/><feComposite in2="hardAlpha" operator="arithmetic" k2="-1" k3="1"/><feColorMatrix values="0 0 0 0 0.578462 0 0 0 0 0.683882 0 0 0 0 0.764974 0 0 0 0.5 0"/><feBlend in2="shape" result="effect1_innerShadow"/></filter><filter id="filter2_i" x="40.955" y="0" width="11.045" height="10.935" filterUnits="userSpaceOnUse" color-interpolation-filters="sRGB"><feFlood flood-opacity="0" result="BackgroundImageFix"/><feBlend in="SourceGraphic" in2="BackgroundImageFix" result="shape"/><feColorMatrix in="SourceAlpha" values="0 0 0 0 0 0 0 0 0 0 0 0 0 0 0 0 0 0 127 0" result="hardAlpha"/><feOffset dx="2" dy="2"/><feGaussianBlur stdDeviation="2"/><feComposite in2="hardAlpha" operator="arithmetic" k2="-1" k3="1"/><feColorMatrix values="0 0 0 0 0.578462 0 0 0 0 0.683882 0 0 0 0 0.764974 0 0 0 0.5 0"/><feBlend in2="shape" result="effect1_innerShadow"/></filter><filter id="filter3_i" x="0" y="41.065" width="11.045" height="10.935" filterUnits="userSpaceOnUse" color-interpolation-filters="sRGB"><feFlood flood-opacity="0" result="BackgroundImageFix"/><feBlend in="SourceGraphic" in2="BackgroundImageFix" result="shape"/><feColorMatrix in="SourceAlpha" values="0 0 0 0 0 0 0 0 0 0 0 0 0 0 0 0 0 0 127 0" result="hardAlpha"/><feOffset dx="2" dy="2"/><feGaussianBlur stdDeviation="4"/><feComposite in2="hardAlpha" operator="arithmetic" k2="-1" k3="1"/><feColorMatrix values="0 0 0 0 0.578462 0 0 0 0 0.683882 0 0 0 0 0.764974 0 0 0 0.5 0"/><feBlend in2="shape" result="effect1_innerShadow"/></filter><filter id="filter4_i" x="40.955" y="41.065" width="11.045" height="10.935" filterUnits="userSpaceOnUse" color-interpolation-filters="sRGB"><feFlood flood-opacity="0" result="BackgroundImageFix"/><feBlend in="SourceGraphic" in2="BackgroundImageFix" result="shape"/><feColorMatrix in="SourceAlpha" values="0 0 0 0 0 0 0 0 0 0 0 0 0 0 0 0 0 0 127 0" result="hardAlpha"/><feOffset dx="2" dy="2"/><feGaussianBlur stdDeviation="4"/><feComposite in2="hardAlpha" operator="arithmetic" k2="-1" k3="1"/><feColorMatrix values="0 0 0 0 0.578462 0 0 0 0 0.683882 0 0 0 0 0.764974 0 0 0 0.5 0"/><feBlend in2="shape" result="effect1_innerShadow"/></filter></defs></svg>