<svg width="64" height="48" viewBox="0 0 64 48" fill="none" xmlns="http://www.w3.org/2000/svg"><g filter="url(#filter0_i)"><path d="M3.862 11.289v-9.75C3.862.69 4.562 0 5.425 0h52.904c.863 0 1.563.69 1.563 1.54v37.226c0 .85-.7 1.54-1.563 1.54H5.425c-.863 0-1.563-.69-1.563-1.54V10.8c0-.85.7-1.54 1.563-1.54s1.563.69 1.563 1.54v26.426h49.778V3.08H6.988v8.21c0 .85-.7 1.54-1.563 1.54s-1.563-.69-1.563-1.54z" fill="#fff"/></g><path d="M1.606 18.219h9.944l4.302 6.726a1.574 1.574 0 002.778-.26l4.304-10.822 4.92 15.434a1.56 1.56 0 001.544 1.077 1.558 1.558 0 001.466-1.178l2.686-10.978h6.528c.863 0 1.563-.689 1.563-1.54 0-.85-.7-1.539-1.563-1.539h-7.759a1.56 1.56 0 00-1.52 1.179l-1.652 6.756-4.56-14.302a1.56 1.56 0 00-1.436-1.077 1.569 1.569 0 00-1.51.977l-4.793 12.053-3.113-4.867a1.568 1.568 0 00-1.322-.719H1.606c-.863 0-1.563.69-1.563 1.54 0 .85.7 1.54 1.563 1.54zM62.148 44.92H1.688c-.863 0-1.563.69-1.563 1.54 0 .85.7 1.54 1.563 1.54h60.46c.863 0 1.563-.69 1.563-1.54 0-.85-.7-1.54-1.563-1.54z" fill="#148AFF"/><defs><filter id="filter0_i" x="3.862" y="0" width="60.03" height="43.306" filterUnits="userSpaceOnUse" color-interpolation-filters="sRGB"><feFlood flood-opacity="0" result="BackgroundImageFix"/><feBlend in="SourceGraphic" in2="BackgroundImageFix" result="shape"/><feColorMatrix in="SourceAlpha" values="0 0 0 0 0 0 0 0 0 0 0 0 0 0 0 0 0 0 127 0" result="hardAlpha"/><feOffset dx="4" dy="3"/><feGaussianBlur stdDeviation="3.5"/><feComposite in2="hardAlpha" operator="arithmetic" k2="-1" k3="1"/><feColorMatrix values="0 0 0 0 0.578462 0 0 0 0 0.683882 0 0 0 0 0.764974 0 0 0 0.6 0"/><feBlend in2="shape" result="effect1_innerShadow"/></filter></defs></svg>