<svg width="61" height="51" viewBox="0 0 61 51" fill="none" xmlns="http://www.w3.org/2000/svg"><path d="M50.61 41.96c.767 0 1.375-.623 1.375-1.38V20.643a1.376 1.376 0 10-2.75 0v19.939a1.36 1.36 0 001.374 1.379zm-30.774.543c2.434 0 4.761-.795 6.705-2.28.318-.239.952-1.153.132-2.068l-6.744-6.788v-9.585c-.106-1.299-1.164-1.418-1.56-1.365-5.475.729-9.601 5.449-9.601 10.99 0 6.112 4.972 11.096 11.068 11.096zm-2.67-18.984v7.875c0 .716.277 1.392.78 1.895l5.554 5.569a8.149 8.149 0 01-3.677.861c-4.589 0-8.305-3.738-8.305-8.325a8.38 8.38 0 015.647-7.875z" fill="#148AFF"/><g filter="url(#filter0_i)"><path d="M28.498 36.576c.94.822 1.825.172 2.063-.133a10.967 10.967 0 002.275-6.721c0-5.529-4.126-10.261-9.601-10.99-.595-.08-1.508.265-1.56 1.365v9.081c0 .371.145.716.41.981l6.413 6.417zm-4.046-14.742c3.306 1.127 5.646 4.269 5.646 7.875 0 1.299-.29 2.545-.86 3.685l-4.773-4.786v-6.774h-.013z" fill="#fff"/></g><g filter="url(#filter1_i)"><path fill-rule="evenodd" clip-rule="evenodd" d="M54.286 0H6.466C2.897 0 0 2.917 0 6.483a6.486 6.486 0 003.518 5.766v37.372c0 .77.621 1.379 1.375 1.379h50.993c.767 0 1.375-.623 1.375-1.379V12.25a6.5 6.5 0 003.505-5.766c0-3.566-2.91-6.483-6.48-6.483zM6.256 48.242h48.242V12.98H6.255v35.264zm.21-38.034h47.82c2.05 0 3.716-1.67 3.73-3.725a3.724 3.724 0 00-3.717-3.726H6.467A3.724 3.724 0 002.75 6.483a3.724 3.724 0 003.716 3.725z" fill="#fff"/></g><g filter="url(#filter2_i)"><path d="M44.606 41.96c.767 0 1.375-.624 1.375-1.38V25.415a1.376 1.376 0 10-2.75 0V40.58c0 .77.621 1.38 1.375 1.38z" fill="#fff"/></g><path d="M38.614 41.96c.767 0 1.376-.623 1.376-1.378V29.048a1.376 1.376 0 10-2.751 0v11.534c0 .769.622 1.379 1.375 1.379z" fill="#148AFF"/><defs><filter id="filter0_i" x="21.674" y="18.721" width="12.161" height="19.255" filterUnits="userSpaceOnUse" color-interpolation-filters="sRGB"><feFlood flood-opacity="0" result="BackgroundImageFix"/><feBlend in="SourceGraphic" in2="BackgroundImageFix" result="shape"/><feColorMatrix in="SourceAlpha" values="0 0 0 0 0 0 0 0 0 0 0 0 0 0 0 0 0 0 127 0" result="hardAlpha"/><feOffset dx="1" dy="1"/><feGaussianBlur stdDeviation="1"/><feComposite in2="hardAlpha" operator="arithmetic" k2="-1" k3="1"/><feColorMatrix values="0 0 0 0 0.578462 0 0 0 0 0.683882 0 0 0 0 0.764974 0 0 0 0.7 0"/><feBlend in2="shape" result="effect1_innerShadow"/></filter><filter id="filter1_i" x="0" y="0" width="62.766" height="53" filterUnits="userSpaceOnUse" color-interpolation-filters="sRGB"><feFlood flood-opacity="0" result="BackgroundImageFix"/><feBlend in="SourceGraphic" in2="BackgroundImageFix" result="shape"/><feColorMatrix in="SourceAlpha" values="0 0 0 0 0 0 0 0 0 0 0 0 0 0 0 0 0 0 127 0" result="hardAlpha"/><feOffset dx="2" dy="2"/><feGaussianBlur stdDeviation="2"/><feComposite in2="hardAlpha" operator="arithmetic" k2="-1" k3="1"/><feColorMatrix values="0 0 0 0 0.578462 0 0 0 0 0.683882 0 0 0 0 0.764974 0 0 0 0.6 0"/><feBlend in2="shape" result="effect1_innerShadow"/></filter><filter id="filter2_i" x="43.23" y="24.036" width="3.751" height="18.924" filterUnits="userSpaceOnUse" color-interpolation-filters="sRGB"><feFlood flood-opacity="0" result="BackgroundImageFix"/><feBlend in="SourceGraphic" in2="BackgroundImageFix" result="shape"/><feColorMatrix in="SourceAlpha" values="0 0 0 0 0 0 0 0 0 0 0 0 0 0 0 0 0 0 127 0" result="hardAlpha"/><feOffset dx="1" dy="1"/><feGaussianBlur stdDeviation="1"/><feComposite in2="hardAlpha" operator="arithmetic" k2="-1" k3="1"/><feColorMatrix values="0 0 0 0 0.578462 0 0 0 0 0.683882 0 0 0 0 0.764974 0 0 0 0.7 0"/><feBlend in2="shape" result="effect1_innerShadow"/></filter></defs></svg>