<svg width="51" height="51" viewBox="0 0 51 51" fill="none" xmlns="http://www.w3.org/2000/svg"><g clip-path="url(#clip0)"><g filter="url(#filter0_i)"><path d="M43.407.701H7.593C3.406.701 0 4.108 0 8.294v34.412c0 4.186 3.406 7.593 7.593 7.593h35.814c4.187 0 7.593-3.407 7.593-7.593V8.294C51 4.108 47.594.7 43.407.7zM48.1 42.706a4.697 4.697 0 01-4.691 4.691H7.593A4.697 4.697 0 012.9 42.706V8.294a4.696 4.696 0 014.692-4.691h35.814a4.696 4.696 0 014.692 4.69v34.413z" fill="#fff"/></g><g filter="url(#filter1_i)"><path d="M41.216 26.212V10.016a1.45 1.45 0 00-2.902 0v16.196a5.196 5.196 0 00-3.74 4.98 5.196 5.196 0 003.74 4.981v4.81a1.45 1.45 0 002.902 0v-4.81a5.196 5.196 0 003.74-4.98 5.196 5.196 0 00-3.74-4.98zm-1.451 7.27a2.292 2.292 0 01-2.29-2.29 2.292 2.292 0 012.29-2.289 2.292 2.292 0 012.29 2.29 2.292 2.292 0 01-2.29 2.29z" fill="#fff"/></g><path d="M25.5 7.264a5.197 5.197 0 00-5.19 5.19 5.197 5.197 0 003.74 4.98v23.55a1.45 1.45 0 002.901 0v-23.55a5.197 5.197 0 003.74-4.98 5.197 5.197 0 00-5.19-5.19zm0 7.48a2.292 2.292 0 01-2.289-2.29 2.292 2.292 0 012.29-2.289 2.292 2.292 0 012.289 2.29 2.292 2.292 0 01-2.29 2.289z" fill="#148AFF"/><g filter="url(#filter2_i)"><path d="M12.685 20.52V10.016a1.45 1.45 0 00-2.9 0V20.52a5.196 5.196 0 00-3.74 4.98 5.197 5.197 0 003.74 4.98v10.503a1.45 1.45 0 002.9 0V30.48a5.197 5.197 0 003.74-4.98 5.196 5.196 0 00-3.74-4.98zm-1.45 7.27a2.292 2.292 0 01-2.29-2.29 2.292 2.292 0 012.29-2.29 2.292 2.292 0 012.29 2.29 2.292 2.292 0 01-2.29 2.29z" fill="#fff"/></g><g filter="url(#filter3_d)"><circle cx="11.348" cy="25.543" r="2.422" fill="#F4F8FC"/></g><g filter="url(#filter4_d)"><circle cx="39.822" cy="31.323" fill="#F4F8FC" r="2.422"/></g></g><defs><filter id="filter0_i" x="0" y=".701" width="54" height="52.597" filterUnits="userSpaceOnUse" color-interpolation-filters="sRGB"><feFlood flood-opacity="0" result="BackgroundImageFix"/><feBlend in="SourceGraphic" in2="BackgroundImageFix" result="shape"/><feColorMatrix in="SourceAlpha" values="0 0 0 0 0 0 0 0 0 0 0 0 0 0 0 0 0 0 127 0" result="hardAlpha"/><feOffset dx="3" dy="3"/><feGaussianBlur stdDeviation="3.5"/><feComposite in2="hardAlpha" operator="arithmetic" k2="-1" k3="1"/><feColorMatrix values="0 0 0 0 0.578462 0 0 0 0 0.683882 0 0 0 0 0.764974 0 0 0 0.6 0"/><feBlend in2="shape" result="effect1_innerShadow"/></filter><filter id="filter1_i" x="34.575" y="8.566" width="13.381" height="36.868" filterUnits="userSpaceOnUse" color-interpolation-filters="sRGB"><feFlood flood-opacity="0" result="BackgroundImageFix"/><feBlend in="SourceGraphic" in2="BackgroundImageFix" result="shape"/><feColorMatrix in="SourceAlpha" values="0 0 0 0 0 0 0 0 0 0 0 0 0 0 0 0 0 0 127 0" result="hardAlpha"/><feOffset dx="3" dy="3"/><feGaussianBlur stdDeviation="3.5"/><feComposite in2="hardAlpha" operator="arithmetic" k2="-1" k3="1"/><feColorMatrix values="0 0 0 0 0.578462 0 0 0 0 0.683882 0 0 0 0 0.764974 0 0 0 0.6 0"/><feBlend in2="shape" result="effect1_innerShadow"/></filter><filter id="filter2_i" x="6.044" y="8.566" width="13.381" height="36.868" filterUnits="userSpaceOnUse" color-interpolation-filters="sRGB"><feFlood flood-opacity="0" result="BackgroundImageFix"/><feBlend in="SourceGraphic" in2="BackgroundImageFix" result="shape"/><feColorMatrix in="SourceAlpha" values="0 0 0 0 0 0 0 0 0 0 0 0 0 0 0 0 0 0 127 0" result="hardAlpha"/><feOffset dx="3" dy="3"/><feGaussianBlur stdDeviation="3.5"/><feComposite in2="hardAlpha" operator="arithmetic" k2="-1" k3="1"/><feColorMatrix values="0 0 0 0 0.578462 0 0 0 0 0.683882 0 0 0 0 0.764974 0 0 0 0.6 0"/><feBlend in2="shape" result="effect1_innerShadow"/></filter><filter id="filter3_d" x="8.625" y="22.82" width="6.445" height="6.445" filterUnits="userSpaceOnUse" color-interpolation-filters="sRGB"><feFlood flood-opacity="0" result="BackgroundImageFix"/><feColorMatrix in="SourceAlpha" values="0 0 0 0 0 0 0 0 0 0 0 0 0 0 0 0 0 0 127 0"/><feOffset dx=".5" dy=".5"/><feGaussianBlur stdDeviation=".4"/><feColorMatrix values="0 0 0 0 0.764706 0 0 0 0 0.823529 0 0 0 0 0.870588 0 0 0 1 0"/><feBlend in2="BackgroundImageFix" result="effect1_dropShadow"/><feBlend in="SourceGraphic" in2="effect1_dropShadow" result="shape"/></filter><filter id="filter4_d" x="37.1" y="28.6" width="6.445" height="6.445" filterUnits="userSpaceOnUse" color-interpolation-filters="sRGB"><feFlood flood-opacity="0" result="BackgroundImageFix"/><feColorMatrix in="SourceAlpha" values="0 0 0 0 0 0 0 0 0 0 0 0 0 0 0 0 0 0 127 0"/><feOffset dx=".5" dy=".5"/><feGaussianBlur stdDeviation=".4"/><feColorMatrix values="0 0 0 0 0.764706 0 0 0 0 0.823529 0 0 0 0 0.870588 0 0 0 1 0"/><feBlend in2="BackgroundImageFix" result="effect1_dropShadow"/><feBlend in="SourceGraphic" in2="effect1_dropShadow" result="shape"/></filter><clipPath id="clip0"><path fill="#fff" d="M0 0h51v51H0z"/></clipPath></defs></svg>