<svg width="19" height="19" viewBox="0 0 19 19" fill="none" xmlns="http://www.w3.org/2000/svg"><g filter="url(#filter0_i)"><path fill-rule="evenodd" clip-rule="evenodd" d="M9.416 0C6.859 0 6.538.011 5.534.057S3.847.26 3.249.494A4.61 4.61 0 001.58 1.58 4.622 4.622 0 00.494 3.248C.261 3.846.102 4.53.057 5.533.012 6.537 0 6.858 0 9.415c0 2.557.011 2.877.057 3.881.046 1.002.205 1.687.437 2.285.241.62.563 1.145 1.086 1.668a4.61 4.61 0 001.667 1.087c.6.232 1.284.391 2.286.437 1.004.046 1.325.057 3.882.057 2.557 0 2.877-.011 3.88-.057 1.003-.046 1.688-.205 2.287-.438a4.605 4.605 0 001.667-1.086 4.621 4.621 0 001.086-1.668c.232-.598.39-1.283.438-2.285.045-1.004.057-1.324.057-3.881 0-2.557-.012-2.878-.057-3.882-.047-1.002-.206-1.687-.438-2.285A4.62 4.62 0 0017.25 1.58 4.601 4.601 0 0015.582.494c-.6-.233-1.285-.391-2.288-.437C12.29.01 11.97 0 9.413 0h.003zM9.1 1.697h.314c2.514 0 2.812.009 3.804.054.918.042 1.417.195 1.748.324.44.17.753.375 1.082.704.33.33.534.644.705 1.083.129.331.282.83.324 1.748.045.992.055 1.29.055 3.803 0 2.512-.01 2.81-.055 3.803-.042.918-.195 1.416-.324 1.748a2.91 2.91 0 01-.705 1.081 2.91 2.91 0 01-1.082.704c-.331.13-.83.283-1.748.325-.992.045-1.29.055-3.804.055s-2.812-.01-3.804-.055c-.918-.043-1.417-.196-1.749-.325a2.916 2.916 0 01-1.082-.704 2.918 2.918 0 01-.705-1.082c-.129-.332-.282-.83-.324-1.748-.045-.992-.054-1.29-.054-3.805 0-2.514.009-2.81.054-3.803.042-.918.195-1.416.324-1.748.17-.44.375-.753.705-1.083a2.93 2.93 0 011.082-.704c.332-.13.83-.282 1.749-.325.868-.039 1.205-.05 2.96-.053v.003h.53zm4.21 2.692a1.13 1.13 0 112.26 0 1.13 1.13 0 01-2.26 0zm-3.896.19a4.835 4.835 0 100 9.671 4.835 4.835 0 000-9.67zm3.14 4.836a3.138 3.138 0 10-6.278 0 3.138 3.138 0 006.277 0z" fill="#fff"/></g><defs><filter id="filter0_i" x="0" y="0" width="19.53" height="19.33" filterUnits="userSpaceOnUse" color-interpolation-filters="sRGB"><feFlood flood-opacity="0" result="BackgroundImageFix"/><feBlend in="SourceGraphic" in2="BackgroundImageFix" result="shape"/><feColorMatrix in="SourceAlpha" values="0 0 0 0 0 0 0 0 0 0 0 0 0 0 0 0 0 0 127 0" result="hardAlpha"/><feOffset dx=".7" dy=".5"/><feGaussianBlur stdDeviation=".9"/><feComposite in2="hardAlpha" operator="arithmetic" k2="-1" k3="1"/><feColorMatrix values="0 0 0 0 0.578462 0 0 0 0 0.683882 0 0 0 0 0.764974 0 0 0 0.5 0"/><feBlend in2="shape" result="effect1_innerShadow"/></filter></defs></svg>