<svg width="15" height="20" viewBox="0 0 15 20" fill="none" xmlns="http://www.w3.org/2000/svg"><path d="M12.935 6.667h-.924V4.762C12.01 2.095 9.978 0 7.39 0S2.77 2.095 2.77 4.762v1.905h-.923C.832 6.667 0 7.524 0 8.57v9.524C0 19.143.832 20 1.848 20h11.087c1.016 0 1.848-.857 1.848-1.905V8.571c0-1.047-.832-1.904-1.848-1.904zM7.39 1.81c1.571 0 2.864 1.333 2.864 2.952v1.905H4.527V4.762c0-1.62 1.294-2.952 2.864-2.952zm5.544 16.285H1.848V8.571h11.087v9.524zM7.39 15.238c1.017 0 1.848-.857 1.848-1.905 0-1.047-.831-1.904-1.848-1.904-1.016 0-1.848.857-1.848 1.904 0 1.048.832 1.905 1.848 1.905z" fill="#C1C7CE"/></svg>