<svg width="113" height="35" viewBox="0 0 113 35" fill="none" xmlns="http://www.w3.org/2000/svg"><path fill-rule="evenodd" clip-rule="evenodd" d="M19.797 0L40 34.44H0L19.797 0zm.02 4.831L4.194 32.014h31.571L19.818 4.831z" fill="#62709D"/><path d="M20.05 27.405a5.823 5.823 0 005.72-6.915s-3.38.955-5.599.97c-2.313.017-5.842-.97-5.842-.97a5.823 5.823 0 005.72 6.914z" fill="#148AFF"/><path fill-rule="evenodd" clip-rule="evenodd" d="M15.521 20.716a4.61 4.61 0 109.058 0l2.383-.452a7.036 7.036 0 11-13.825 0l2.384.452z" fill="#62709D"/><path d="M21.99 23.766a1.94 1.94 0 11-3.881 0 1.94 1.94 0 013.882 0z" fill="#fff"/><path fill-rule="evenodd" clip-rule="evenodd" d="M14.854 19.3c1.273.786 3.106 1.312 5.196 1.312s3.923-.526 5.195-1.311c1.291-.798 1.84-1.74 1.84-2.571h2.427c0 1.983-1.297 3.588-2.992 4.635-1.713 1.058-4.004 1.673-6.47 1.673s-4.757-.615-6.47-1.673c-1.695-1.047-2.992-2.652-2.992-4.635h2.426c0 .83.55 1.773 1.84 2.57z" fill="#62709D"/><path fill-rule="evenodd" clip-rule="evenodd" d="M19.807 31.287a8.734 8.734 0 100-17.468 8.734 8.734 0 000 17.468zm0 2.426c6.164 0 11.16-4.997 11.16-11.16 0-6.164-4.996-11.16-11.16-11.16-6.163 0-11.16 4.996-11.16 11.16 0 6.163 4.997 11.16 11.16 11.16z" fill="#62709D"/><path d="M54.047 22.863l2.355-8.543h3.54L55.663 27H52.43l-4.278-12.68h3.54l2.355 8.543zM65.016 27h-3.399V14.32h3.399V27zm-3.598-15.96c0-.509.168-.927.504-1.255.344-.328.809-.492 1.394-.492.578 0 1.04.164 1.383.492.344.328.516.746.516 1.254 0 .516-.176.938-.528 1.266-.343.328-.8.492-1.37.492-.57 0-1.032-.164-1.383-.492-.344-.328-.516-.75-.516-1.266zm13.266 12.456c0-.414-.207-.738-.621-.973-.407-.242-1.063-.457-1.97-.644-3.015-.633-4.523-1.914-4.523-3.844 0-1.125.465-2.062 1.395-2.812.937-.758 2.16-1.137 3.668-1.137 1.61 0 2.894.379 3.855 1.137.969.757 1.453 1.742 1.453 2.953h-3.386c0-.485-.157-.883-.47-1.195-.312-.32-.8-.481-1.464-.481-.57 0-1.012.129-1.324.387a1.22 1.22 0 00-.469.984c0 .375.176.68.528.914.359.227.96.426 1.804.598.844.164 1.555.351 2.133.562 1.789.657 2.684 1.793 2.684 3.41 0 1.157-.496 2.094-1.489 2.813-.992.71-2.273 1.066-3.844 1.066-1.062 0-2.007-.187-2.835-.562-.82-.383-1.465-.902-1.934-1.559-.469-.664-.703-1.379-.703-2.144h3.21c.032.601.255 1.062.669 1.383.414.32.968.48 1.664.48.648 0 1.137-.121 1.465-.363.336-.25.504-.575.504-.973zM83.742 27h-3.398V14.32h3.398V27zm-3.598-15.96c0-.509.168-.927.504-1.255.344-.328.809-.492 1.395-.492.578 0 1.039.164 1.383.492.343.328.515.746.515 1.254 0 .516-.175.938-.527 1.266-.344.328-.8.492-1.371.492-.57 0-1.031-.164-1.383-.492-.344-.328-.516-.75-.516-1.266z" fill="#62709D"/><path d="M86.016 20.543c0-1.258.242-2.379.726-3.363.485-.985 1.18-1.746 2.086-2.285.914-.54 1.973-.81 3.176-.81 1.71 0 3.105.524 4.183 1.571 1.086 1.047 1.692 2.469 1.817 4.266l.023.867c0 1.945-.543 3.508-1.629 4.688-1.085 1.171-2.542 1.757-4.37 1.757-1.829 0-3.29-.586-4.384-1.757-1.085-1.172-1.628-2.766-1.628-4.782v-.152zm3.386.246c0 1.203.227 2.125.68 2.766.453.633 1.102.949 1.945.949.82 0 1.461-.313 1.922-.938.461-.632.692-1.64.692-3.023 0-1.18-.23-2.094-.692-2.742-.46-.649-1.11-.973-1.945-.973-.828 0-1.469.324-1.922.973-.453.64-.68 1.637-.68 2.988zm13.828-6.469l.106 1.465c.906-1.133 2.121-1.7 3.644-1.7 1.344 0 2.344.395 3 1.184.657.79.993 1.97 1.008 3.54V27h-3.386v-8.11c0-.718-.157-1.238-.469-1.558-.313-.328-.832-.492-1.559-.492-.953 0-1.668.406-2.144 1.219V27h-3.387V14.32h3.187z" fill="#148AFF"/></svg>