<svg width="42" height="31" viewBox="0 0 42 31" fill="none" xmlns="http://www.w3.org/2000/svg"><path d="M4.647 26.254c-.133-.398-.332-1.228-1.527-1.228-.664 0-1.693.498-1.693 2.423 0 1.228.498 2.356 1.693 2.356a1.494 1.494 0 001.527-1.327h1.427C5.775 29.97 4.813 31 3.12 31 1.427 31 0 29.772 0 27.45c0-2.324 1.36-3.618 3.12-3.618 1.759 0 2.854 1.427 2.954 2.423H4.647zM7.8 27.68l1.66-1.89h1.626l-1.76 1.957 1.793 3.087h-1.56l-1.195-2.157-.564.564v1.593H6.472v-5.045H7.8v1.892z" fill="#C1C7CE"/><path d="M15.964 28.312c0 1.792-1.195 2.655-2.556 2.655-1.36 0-2.588-.83-2.588-2.655 0-1.826 1.228-2.655 2.588-2.655 1.361 0 2.556.83 2.556 2.655zm-3.784 0c0 .63.2 1.526 1.229 1.526 1.028 0 1.194-.896 1.194-1.526s-.166-1.56-1.194-1.56c-1.03 0-1.229.896-1.229 1.56zm8.763-2.524v5.045h-1.328V26.85h-1.394v1.56c0 1.925-.597 2.523-1.527 2.523a3.09 3.09 0 01-.796-.1v-.995h.398c.398 0 .598-.2.598-1.726v-2.357l4.049.033zm1.992 1.892l1.692-1.89h1.627l-1.793 1.957 1.826 3.087h-1.593l-1.195-2.157-.564.564v1.593H21.64v-5.045h1.295v1.892z" fill="#C1C7CE"/><path d="M31.132 28.312c0 1.792-1.228 2.655-2.555 2.655-1.328 0-2.59-.83-2.59-2.655 0-1.826 1.229-2.655 2.59-2.655 1.36 0 2.555.83 2.555 2.655zm-3.783 0c0 .63.199 1.526 1.228 1.526 1.028 0 1.194-.896 1.194-1.526s-.199-1.56-1.194-1.56c-.996 0-1.228.896-1.228 1.56zm4.215-2.522h2.29c1.095 0 1.925.464 1.925 1.294a1.095 1.095 0 01-.93 1.095c.532.133 1.096.431 1.096 1.261 0 .83-.697 1.394-1.859 1.394h-2.522v-5.045zm1.327 2.024h.863c.432 0 .73-.166.73-.565 0-.398-.298-.564-.73-.564h-.863v1.129zm0 2.09h.963c.498 0 .796-.132.796-.63s-.331-.664-.796-.664h-.963v1.295zm8.364-1.592c0 1.792-1.227 2.655-2.588 2.655s-2.59-.83-2.59-2.655c0-1.826 1.229-2.655 2.59-2.655 1.36 0 2.588.83 2.588 2.655zm-3.816 0c0 .63.199 1.526 1.228 1.526s1.228-.896 1.228-1.526-.2-1.56-1.228-1.56c-1.03 0-1.228.896-1.228 1.56z" fill="#C1C7CE"/><g filter="url(#filter0_i)"><path d="M9.625 22.702c1.129 0 3.883-.2 5.975-1.726v1.162h4.181v-5.045l1.76-1.826 3.816 6.87h5.012l-5.775-9.824 5.642-6.173h-5.144l-5.31 6.074V.564H15.6V2.39C14.338 1.029 12.247 0 9.027 0 2.058 0 .73 4.248.73 6.605c0 3.286 1.76 5.111 4.813 5.841l4.348 1.062c2.29.565 3.916.996 3.916 2.689 0 2.257-2.356 2.788-4.514 2.788-3.916 0-4.58-2.29-4.58-3.518H.398c0 2.688 1.361 7.235 9.227 7.235zM12.48 9.824L7.202 8.563c-.863-.232-2.29-.564-2.29-2.257S6.97 3.717 8.696 3.717c3.916 0 4.281 2.29 4.414 3.253h2.49v4.016c-.986-.52-2.035-.91-3.12-1.162z" fill="#fff"/></g><defs><filter id="filter0_i" x=".398" y="0" width="32.971" height="25.702" filterUnits="userSpaceOnUse" color-interpolation-filters="sRGB"><feFlood flood-opacity="0" result="BackgroundImageFix"/><feBlend in="SourceGraphic" in2="BackgroundImageFix" result="shape"/><feColorMatrix in="SourceAlpha" values="0 0 0 0 0 0 0 0 0 0 0 0 0 0 0 0 0 0 127 0" result="hardAlpha"/><feOffset dx="3" dy="3"/><feGaussianBlur stdDeviation="3"/><feComposite in2="hardAlpha" operator="arithmetic" k2="-1" k3="1"/><feColorMatrix values="0 0 0 0 0.578462 0 0 0 0 0.683882 0 0 0 0 0.764974 0 0 0 0.8 0"/><feBlend in2="shape" result="effect1_innerShadow"/></filter></defs></svg>