<svg width="28" height="28" viewBox="0 0 28 28" fill="none" xmlns="http://www.w3.org/2000/svg"><g filter="url(#filter0_i)"><path fill-rule="evenodd" clip-rule="evenodd" d="M13.594.142c-3.653 0-4.111.016-5.546.081-1.432.066-2.41.293-3.264.625A6.586 6.586 0 002.4 2.4 6.603 6.603 0 00.85 4.781C.516 5.637.29 6.615.225 8.046.16 9.48.143 9.939.143 13.592c0 3.653.016 4.11.081 5.544.066 1.432.293 2.41.625 3.265A6.59 6.59 0 002.4 24.783a6.586 6.586 0 002.382 1.553c.856.332 1.833.559 3.265.625 1.435.065 1.893.08 5.545.08 3.653 0 4.11-.015 5.545-.08 1.432-.066 2.41-.293 3.266-.625a6.58 6.58 0 002.38-1.553 6.603 6.603 0 001.553-2.382c.33-.855.558-1.833.625-3.264.065-1.435.081-1.892.081-5.545s-.016-4.111-.08-5.546c-.068-1.432-.295-2.41-.626-3.264a6.601 6.601 0 00-1.552-2.383A6.572 6.572 0 0022.402.85c-.857-.333-1.835-.56-3.267-.626C17.7.158 17.244.143 13.59.143h.004zm-.45 2.424h.449c3.59 0 4.017.013 5.435.077 1.311.06 2.023.28 2.497.464a4.16 4.16 0 011.546 1.005c.47.471.762.92 1.006 1.547.184.474.403 1.185.463 2.497.065 1.418.079 1.844.079 5.433 0 3.59-.014 4.015-.079 5.433-.06 1.312-.279 2.023-.463 2.497a4.16 4.16 0 01-1.007 1.545 4.16 4.16 0 01-1.545 1.006c-.474.185-1.186.403-2.497.463-1.418.065-1.844.079-5.435.079-3.592 0-4.017-.014-5.435-.079-1.311-.06-2.023-.28-2.498-.463a4.165 4.165 0 01-1.546-1.006 4.17 4.17 0 01-1.007-1.546c-.184-.474-.403-1.186-.463-2.497-.064-1.418-.077-1.844-.077-5.435 0-3.592.013-4.016.077-5.434.06-1.31.28-2.023.463-2.497A4.167 4.167 0 014.114 4.11c.47-.471.919-.763 1.546-1.007.475-.185 1.187-.403 2.498-.464 1.24-.056 1.722-.073 4.228-.075v.003h.758zm6.015 3.847a1.614 1.614 0 113.227 0 1.614 1.614 0 01-3.227 0zm-5.566.272a6.907 6.907 0 10.001 13.814 6.907 6.907 0 00-.001-13.814zm4.484 6.907a4.483 4.483 0 10-8.966 0 4.483 4.483 0 008.966 0z" fill="#fff"/></g><defs><filter id="filter0_i" x=".143" y=".142" width="27.599" height="27.4" filterUnits="userSpaceOnUse" color-interpolation-filters="sRGB"><feFlood flood-opacity="0" result="BackgroundImageFix"/><feBlend in="SourceGraphic" in2="BackgroundImageFix" result="shape"/><feColorMatrix in="SourceAlpha" values="0 0 0 0 0 0 0 0 0 0 0 0 0 0 0 0 0 0 127 0" result="hardAlpha"/><feOffset dx=".7" dy=".5"/><feGaussianBlur stdDeviation=".9"/><feComposite in2="hardAlpha" operator="arithmetic" k2="-1" k3="1"/><feColorMatrix values="0 0 0 0 0.578462 0 0 0 0 0.683882 0 0 0 0 0.764974 0 0 0 0.5 0"/><feBlend in2="shape" result="effect1_innerShadow"/></filter></defs></svg>