<svg width="63" height="64" viewBox="0 0 63 64" fill="none" xmlns="http://www.w3.org/2000/svg"><g filter="url(#filter0_dii)"><rect x="3" y="3.752" width="55" height="55" rx="10" fill="#F4F8FC"/></g><g filter="url(#filter1_i)"><path d="M30.845 43.502h.132c4.26 0 7.726-3.466 7.726-7.726V20.96c0-4.26-3.466-7.726-7.726-7.726h-.133c-4.26 0-7.726 3.466-7.726 7.727a1.184 1.184 0 002.367 0 5.365 5.365 0 015.36-5.36h.132a5.365 5.365 0 015.359 5.36v14.814a5.365 5.365 0 01-5.36 5.359h-.131a5.365 5.365 0 01-5.36-5.36V20.963a1.184 1.184 0 00-2.367 0v14.814c0 4.26 3.466 7.726 7.727 7.726z" fill="#F4F8FC"/></g><g filter="url(#filter2_i)"><path d="M42.465 35.859c-.653 0-1.184.53-1.184 1.184 0 5.654-4.6 10.255-10.255 10.255h-.23c-5.655 0-10.256-4.6-10.256-10.255a1.184 1.184 0 00-2.367 0c0 6.96 5.662 12.622 12.622 12.622h.231c6.96 0 12.623-5.662 12.623-12.622 0-.654-.53-1.184-1.184-1.184z" fill="#F4F8FC"/></g><g filter="url(#filter3_i)"><path d="M29.552 52.113h2.845v6.638h-2.845v-6.638z" fill="#F4F8FC"/></g><defs><filter id="filter0_dii" x="-2" y="-1.248" width="65" height="65" filterUnits="userSpaceOnUse" color-interpolation-filters="sRGB"><feFlood flood-opacity="0" result="BackgroundImageFix"/><feColorMatrix in="SourceAlpha" values="0 0 0 0 0 0 0 0 0 0 0 0 0 0 0 0 0 0 127 0"/><feOffset dx="1" dy="1"/><feGaussianBlur stdDeviation="2"/><feColorMatrix values="0 0 0 0 0.85098 0 0 0 0 0.890196 0 0 0 0 0.937255 0 0 0 0.5 0"/><feBlend in2="BackgroundImageFix" result="effect1_dropShadow"/><feBlend in="SourceGraphic" in2="effect1_dropShadow" result="shape"/><feColorMatrix in="SourceAlpha" values="0 0 0 0 0 0 0 0 0 0 0 0 0 0 0 0 0 0 127 0" result="hardAlpha"/><feOffset dx="3" dy="3"/><feGaussianBlur stdDeviation="5"/><feComposite in2="hardAlpha" operator="arithmetic" k2="-1" k3="1"/><feColorMatrix values="0 0 0 0 0.682353 0 0 0 0 0.756863 0 0 0 0 0.831373 0 0 0 0.7 0"/><feBlend in2="shape" result="effect2_innerShadow"/><feColorMatrix in="SourceAlpha" values="0 0 0 0 0 0 0 0 0 0 0 0 0 0 0 0 0 0 127 0" result="hardAlpha"/><feOffset dx="-6" dy="-6"/><feGaussianBlur stdDeviation="2.5"/><feComposite in2="hardAlpha" operator="arithmetic" k2="-1" k3="1"/><feColorMatrix values="0 0 0 0 1 0 0 0 0 1 0 0 0 0 1 0 0 0 1 0"/><feBlend in2="effect2_innerShadow" result="effect3_innerShadow"/></filter><filter id="filter1_i" x="23.118" y="13.235" width="16.585" height="31.267" filterUnits="userSpaceOnUse" color-interpolation-filters="sRGB"><feFlood flood-opacity="0" result="BackgroundImageFix"/><feBlend in="SourceGraphic" in2="BackgroundImageFix" result="shape"/><feColorMatrix in="SourceAlpha" values="0 0 0 0 0 0 0 0 0 0 0 0 0 0 0 0 0 0 127 0" result="hardAlpha"/><feOffset dx="1" dy="1"/><feGaussianBlur stdDeviation=".5"/><feComposite in2="hardAlpha" operator="arithmetic" k2="-1" k3="1"/><feColorMatrix values="0 0 0 0 0.752941 0 0 0 0 0.811765 0 0 0 0 0.87451 0 0 0 0.7 0"/><feBlend in2="shape" result="effect1_innerShadow"/></filter><filter id="filter2_i" x="18.173" y="35.859" width="26.476" height="14.806" filterUnits="userSpaceOnUse" color-interpolation-filters="sRGB"><feFlood flood-opacity="0" result="BackgroundImageFix"/><feBlend in="SourceGraphic" in2="BackgroundImageFix" result="shape"/><feColorMatrix in="SourceAlpha" values="0 0 0 0 0 0 0 0 0 0 0 0 0 0 0 0 0 0 127 0" result="hardAlpha"/><feOffset dx="1" dy="1"/><feGaussianBlur stdDeviation=".5"/><feComposite in2="hardAlpha" operator="arithmetic" k2="-1" k3="1"/><feColorMatrix values="0 0 0 0 0.752941 0 0 0 0 0.811765 0 0 0 0 0.87451 0 0 0 0.7 0"/><feBlend in2="shape" result="effect1_innerShadow"/></filter><filter id="filter3_i" x="29.552" y="52.113" width="4.845" height="8.638" filterUnits="userSpaceOnUse" color-interpolation-filters="sRGB"><feFlood flood-opacity="0" result="BackgroundImageFix"/><feBlend in="SourceGraphic" in2="BackgroundImageFix" result="shape"/><feColorMatrix in="SourceAlpha" values="0 0 0 0 0 0 0 0 0 0 0 0 0 0 0 0 0 0 127 0" result="hardAlpha"/><feOffset dx="2" dy="2"/><feGaussianBlur stdDeviation="1"/><feComposite in2="hardAlpha" operator="arithmetic" k2="-1" k3="1"/><feColorMatrix values="0 0 0 0 0.81724 0 0 0 0 0.869036 0 0 0 0 0.920833 0 0 0 0.7 0"/><feBlend in2="shape" result="effect1_innerShadow"/></filter></defs></svg>