<svg width="62" height="68" viewBox="0 0 62 68" fill="none" xmlns="http://www.w3.org/2000/svg"><g filter="url(#filter0_dii)"><path d="M49.965 3H9.318C5.89 3 3.1 5.757 3.1 9.173v40.515c0 3.416 2.79 6.173 6.218 6.173h34.398l-1.607-5.544 3.882 3.566 3.67 3.357 6.522 5.693V9.173c0-3.416-2.79-6.173-6.218-6.173z" fill="#F4F8FC"/></g><g filter="url(#filter1_dii)"><path d="M38.258 42.136s-1.092-1.288-2.002-2.427c3.974-1.109 5.49-3.566 5.49-3.566a17.442 17.442 0 01-3.488 1.768 20.148 20.148 0 01-4.399 1.289c-2.912.539-5.58.39-7.856-.03a25.703 25.703 0 01-4.459-1.289c-.698-.27-1.456-.6-2.214-1.019-.091-.06-.182-.09-.273-.15a.418.418 0 01-.122-.09c-.546-.3-.849-.509-.849-.509s1.456 2.397 5.309 3.536c-.91 1.139-2.033 2.487-2.033 2.487-6.704-.21-9.252-4.555-9.252-4.555 0-9.649 4.368-17.47 4.368-17.47 4.368-3.236 8.524-3.147 8.524-3.147l.303.36c-5.46 1.558-7.977 3.926-7.977 3.926s.667-.36 1.79-.87c3.245-1.408 5.824-1.797 6.885-1.887.182-.03.334-.06.516-.06 1.85-.24 3.943-.3 6.127-.06a24.943 24.943 0 019.13 2.877s-2.396-2.248-7.552-3.806l.424-.48s4.156-.09 8.524 3.147c0 0 4.368 7.821 4.368 17.47 0 0-2.578 4.346-9.282 4.555z" fill="#F4F8FC"/></g><g filter="url(#filter2_i)"><path fill-rule="evenodd" clip-rule="evenodd" d="M20.936 33.11c0-1.881 1.354-3.424 3.07-3.424 1.715 0 3.099 1.543 3.069 3.425 0 1.882-1.354 3.424-3.07 3.424-1.685 0-3.07-1.542-3.07-3.424zm10.985 0c0-1.881 1.354-3.424 3.07-3.424 1.715 0 3.07 1.543 3.07 3.425s-1.355 3.424-3.07 3.424c-1.686 0-3.07-1.542-3.07-3.424z" fill="#E2EAF1"/></g><defs><filter id="filter0_dii" x="-1.9" y="-2" width="63.084" height="69.933" filterUnits="userSpaceOnUse" color-interpolation-filters="sRGB"><feFlood flood-opacity="0" result="BackgroundImageFix"/><feColorMatrix in="SourceAlpha" values="0 0 0 0 0 0 0 0 0 0 0 0 0 0 0 0 0 0 127 0"/><feOffset dx="1" dy="1"/><feGaussianBlur stdDeviation="2"/><feColorMatrix values="0 0 0 0 0.85098 0 0 0 0 0.890196 0 0 0 0 0.937255 0 0 0 0.5 0"/><feBlend in2="BackgroundImageFix" result="effect1_dropShadow"/><feBlend in="SourceGraphic" in2="effect1_dropShadow" result="shape"/><feColorMatrix in="SourceAlpha" values="0 0 0 0 0 0 0 0 0 0 0 0 0 0 0 0 0 0 127 0" result="hardAlpha"/><feOffset dx="3" dy="3"/><feGaussianBlur stdDeviation="5"/><feComposite in2="hardAlpha" operator="arithmetic" k2="-1" k3="1"/><feColorMatrix values="0 0 0 0 0.682353 0 0 0 0 0.756863 0 0 0 0 0.831373 0 0 0 0.7 0"/><feBlend in2="shape" result="effect2_innerShadow"/><feColorMatrix in="SourceAlpha" values="0 0 0 0 0 0 0 0 0 0 0 0 0 0 0 0 0 0 127 0" result="hardAlpha"/><feOffset dx="-6" dy="-6"/><feGaussianBlur stdDeviation="2.5"/><feComposite in2="hardAlpha" operator="arithmetic" k2="-1" k3="1"/><feColorMatrix values="0 0 0 0 1 0 0 0 0 1 0 0 0 0 1 0 0 0 1 0"/><feBlend in2="effect2_innerShadow" result="effect3_innerShadow"/></filter><filter id="filter1_dii" x="7.11" y="11.964" width="45.43" height="35.172" filterUnits="userSpaceOnUse" color-interpolation-filters="sRGB"><feFlood flood-opacity="0" result="BackgroundImageFix"/><feColorMatrix in="SourceAlpha" values="0 0 0 0 0 0 0 0 0 0 0 0 0 0 0 0 0 0 127 0"/><feOffset dx="1" dy="1"/><feGaussianBlur stdDeviation="2"/><feColorMatrix values="0 0 0 0 0.85098 0 0 0 0 0.890196 0 0 0 0 0.937255 0 0 0 0.5 0"/><feBlend in2="BackgroundImageFix" result="effect1_dropShadow"/><feBlend in="SourceGraphic" in2="effect1_dropShadow" result="shape"/><feColorMatrix in="SourceAlpha" values="0 0 0 0 0 0 0 0 0 0 0 0 0 0 0 0 0 0 127 0" result="hardAlpha"/><feOffset dx="2" dy="2"/><feGaussianBlur stdDeviation="5"/><feComposite in2="hardAlpha" operator="arithmetic" k2="-1" k3="1"/><feColorMatrix values="0 0 0 0 0.682353 0 0 0 0 0.756863 0 0 0 0 0.831373 0 0 0 0.7 0"/><feBlend in2="shape" result="effect2_innerShadow"/><feColorMatrix in="SourceAlpha" values="0 0 0 0 0 0 0 0 0 0 0 0 0 0 0 0 0 0 127 0" result="hardAlpha"/><feOffset dx="-6" dy="-6"/><feGaussianBlur stdDeviation="2.5"/><feComposite in2="hardAlpha" operator="arithmetic" k2="-1" k3="1"/><feColorMatrix values="0 0 0 0 1 0 0 0 0 1 0 0 0 0 1 0 0 0 1 0"/><feBlend in2="effect2_innerShadow" result="effect3_innerShadow"/></filter><filter id="filter2_i" x="20.936" y="29.686" width="18.125" height="7.85" filterUnits="userSpaceOnUse" color-interpolation-filters="sRGB"><feFlood flood-opacity="0" result="BackgroundImageFix"/><feBlend in="SourceGraphic" in2="BackgroundImageFix" result="shape"/><feColorMatrix in="SourceAlpha" values="0 0 0 0 0 0 0 0 0 0 0 0 0 0 0 0 0 0 127 0" result="hardAlpha"/><feOffset dx="1" dy="1"/><feGaussianBlur stdDeviation=".5"/><feComposite in2="hardAlpha" operator="arithmetic" k2="-1" k3="1"/><feColorMatrix values="0 0 0 0 0.787494 0 0 0 0 0.845863 0 0 0 0 0.904232 0 0 0 1 0"/><feBlend in2="shape" result="effect1_innerShadow"/></filter></defs></svg>