<svg width="79" height="66" viewBox="0 0 79 66" fill="none" xmlns="http://www.w3.org/2000/svg"><g filter="url(#filter0_dii)"><path d="M37.184 18.393l.152 2.503-2.53-.306c-9.208-1.175-17.253-5.16-24.084-11.85L7.383 5.42l-.86 2.451C4.7 13.337 5.865 19.108 9.66 22.991c2.024 2.145 1.568 2.451-1.923 1.174-1.214-.408-2.277-.715-2.378-.561-.354.357.86 5.005 1.822 6.844 1.315 2.554 3.997 5.057 6.931 6.538l2.48 1.175-2.935.051c-2.834 0-2.935.051-2.631 1.124 1.012 3.32 5.009 6.845 9.461 8.377l3.137 1.073-2.732 1.634c-4.048 2.35-8.804 3.678-13.56 3.78-2.276.051-4.148.256-4.148.409 0 .51 6.172 3.371 9.765 4.495 10.776 3.32 23.577 1.89 33.19-3.78 6.83-4.035 13.661-12.055 16.849-19.819 1.72-4.137 3.44-11.697 3.44-15.324 0-2.35.152-2.656 2.985-5.465 1.67-1.635 3.238-3.423 3.542-3.933.506-.97.455-.97-2.125-.103-4.3 1.533-4.908 1.329-2.783-.97 1.569-1.635 3.44-4.597 3.44-5.466 0-.153-.758.103-1.618.562-.911.511-2.935 1.277-4.453 1.737l-2.732.868-2.48-1.685c-1.365-.92-3.288-1.941-4.3-2.248-2.58-.715-6.527-.613-8.854.205-6.324 2.298-10.322 8.223-9.866 14.71z" fill="#F4F8FC"/></g><defs><filter id="filter0_dii" x="-1.816" y="-2" width="80.023" height="67.867" filterUnits="userSpaceOnUse" color-interpolation-filters="sRGB"><feFlood flood-opacity="0" result="BackgroundImageFix"/><feColorMatrix in="SourceAlpha" values="0 0 0 0 0 0 0 0 0 0 0 0 0 0 0 0 0 0 127 0"/><feOffset dx="1" dy="1"/><feGaussianBlur stdDeviation="2"/><feColorMatrix values="0 0 0 0 0.85098 0 0 0 0 0.890196 0 0 0 0 0.937255 0 0 0 0.5 0"/><feBlend in2="BackgroundImageFix" result="effect1_dropShadow"/><feBlend in="SourceGraphic" in2="effect1_dropShadow" result="shape"/><feColorMatrix in="SourceAlpha" values="0 0 0 0 0 0 0 0 0 0 0 0 0 0 0 0 0 0 127 0" result="hardAlpha"/><feOffset dx="3" dy="3"/><feGaussianBlur stdDeviation="5"/><feComposite in2="hardAlpha" operator="arithmetic" k2="-1" k3="1"/><feColorMatrix values="0 0 0 0 0.682353 0 0 0 0 0.756863 0 0 0 0 0.831373 0 0 0 0.7 0"/><feBlend in2="shape" result="effect2_innerShadow"/><feColorMatrix in="SourceAlpha" values="0 0 0 0 0 0 0 0 0 0 0 0 0 0 0 0 0 0 127 0" result="hardAlpha"/><feOffset dx="-6" dy="-6"/><feGaussianBlur stdDeviation="2.5"/><feComposite in2="hardAlpha" operator="arithmetic" k2="-1" k3="1"/><feColorMatrix values="0 0 0 0 1 0 0 0 0 1 0 0 0 0 1 0 0 0 1 0"/><feBlend in2="effect2_innerShadow" result="effect3_innerShadow"/></filter></defs></svg>