<svg width="52" height="52" viewBox="0 0 52 52" fill="none" xmlns="http://www.w3.org/2000/svg"><g filter="url(#filter0_dii)"><path d="M35.827 19.549c-.176-1.436-.618-2.564-1.402-3.563-1.018-1.287-2.319-2.057-4.245-2.514-1.255-.304-1.762-.27-2.216.145-.423.389-.506 1.168-.183 1.672.228.366.49.497 1.219.64.971.18 1.642.411 2.253.76 1.295.748 1.898 1.919 1.963 3.814.03.89.107 1.164.418 1.48.576.576 1.601.464 2.036-.226.16-.26.184-.374.201-.978a9.619 9.619 0 00-.044-1.23z" fill="#C1C7CE"/></g><g filter="url(#filter1_dii)"><path d="M40.902 21.17c-.256-4.4-1.977-7.941-5.058-10.432-1.735-1.4-3.833-2.362-6.133-2.83-.842-.168-2.393-.303-2.659-.226-.251.072-.606.344-.764.59-.168.267-.206.862-.063 1.206.23.576.66.78 1.86.884 1.851.162 3.76.812 5.203 1.775a10.913 10.913 0 013.803 4.357c.732 1.514 1.182 3.696 1.17 5.65-.005.706.104 1.105.388 1.397a1.305 1.305 0 001.606.248c.612-.321.755-.886.647-2.619z" fill="#C1C7CE"/></g><g filter="url(#filter2_dii)"><path d="M46.517 38.117a4.83 4.83 0 00-.43-.863c-.904-1.365-5.76-5.166-8.186-6.409-1.385-.711-2.41-.948-3.17-.726-.819.23-1.25.611-2.62 2.314-.552.683-1.119 1.322-1.27 1.423-.373.258-1.104.467-1.62.467-1.199-.008-3.373-.784-5.044-1.804-1.299-.79-2.963-2.205-4.24-3.607-1.507-1.645-2.533-3.096-3.344-4.735-1.047-2.105-1.313-3.391-.875-4.332.108-.238.251-.489.316-.568.064-.072.739-.625 1.485-1.229 1.463-1.164 1.7-1.43 1.973-2.227.344-1.013.25-2.048-.28-3.09-.409-.79-1.478-2.515-2.253-3.628-1.026-1.466-3.58-4.599-4.09-5.023-.918-.747-2.094-.876-3.393-.373-1.37.531-3.938 2.6-5.036 4.045-.99 1.308-1.37 2.234-1.428 3.456-.05 1.006.036 1.423.567 2.709 4.154 10.088 10.353 18.142 18.869 24.537 4.448 3.341 9.06 5.885 13.846 7.624 2.79 1.013 4.003 1.063 5.431.23.603-.36 2.095-1.89 2.927-3.004 1.378-1.854 1.887-2.709 2.03-3.391.1-.467.022-1.28-.165-1.796z" fill="#F4F8FC"/></g><g filter="url(#filter3_dii)"><path d="M46.069 22.179c-.092-2.49-.511-4.53-1.385-6.807-.863-2.24-1.736-3.7-3.385-5.677-1.56-1.853-2.77-2.911-4.69-4.089-2.68-1.64-5.941-2.727-9.596-3.183-1.246-.16-1.528-.149-1.91.107-.742.483-.732 1.688.012 2.164.246.152.464.207 1.46.337 1.531.206 2.515.4 3.683.72 4.579 1.25 8.1 3.81 10.454 7.607 1.97 3.166 2.787 6.331 2.671 10.375-.04 1.367-.01 1.607.198 1.936.4.612 1.456.733 1.997.225.337-.31.4-.542.467-1.712.032-.61.038-1.511.024-2.003z" fill="#C1C7CE"/></g><defs><filter id="filter0_dii" x="23.955" y="11.156" width="15.533" height="15.307" filterUnits="userSpaceOnUse" color-interpolation-filters="sRGB"><feFlood flood-opacity="0" result="BackgroundImageFix"/><feColorMatrix in="SourceAlpha" values="0 0 0 0 0 0 0 0 0 0 0 0 0 0 0 0 0 0 127 0"/><feOffset dx="1" dy="2"/><feGaussianBlur stdDeviation="1"/><feColorMatrix values="0 0 0 0 0.85098 0 0 0 0 0.890196 0 0 0 0 0.937255 0 0 0 0.6 0"/><feBlend in2="BackgroundImageFix" result="effect1_dropShadow"/><feBlend in="SourceGraphic" in2="effect1_dropShadow" result="shape"/><feColorMatrix in="SourceAlpha" values="0 0 0 0 0 0 0 0 0 0 0 0 0 0 0 0 0 0 127 0" result="hardAlpha"/><feOffset dx="11" dy="-20"/><feGaussianBlur stdDeviation="2"/><feComposite in2="hardAlpha" operator="arithmetic" k2="-1" k3="1"/><feColorMatrix values="0 0 0 0 0.682353 0 0 0 0 0.756863 0 0 0 0 0.831373 0 0 0 0.9 0"/><feBlend in2="shape" result="effect2_innerShadow"/><feColorMatrix in="SourceAlpha" values="0 0 0 0 0 0 0 0 0 0 0 0 0 0 0 0 0 0 127 0" result="hardAlpha"/><feOffset dx="-4" dy="-2"/><feGaussianBlur stdDeviation="1.5"/><feComposite in2="hardAlpha" operator="arithmetic" k2="-1" k3="1"/><feColorMatrix values="0 0 0 0 1 0 0 0 0 1 0 0 0 0 1 0 0 0 1 0"/><feBlend in2="effect2_innerShadow" result="effect3_innerShadow"/></filter><filter id="filter1_dii" x="21.929" y="3.536" width="24.182" height="24.532" filterUnits="userSpaceOnUse" color-interpolation-filters="sRGB"><feFlood flood-opacity="0" result="BackgroundImageFix"/><feColorMatrix in="SourceAlpha" values="0 0 0 0 0 0 0 0 0 0 0 0 0 0 0 0 0 0 127 0"/><feOffset dx="1" dy="2"/><feGaussianBlur stdDeviation="1"/><feColorMatrix values="0 0 0 0 0.85098 0 0 0 0 0.890196 0 0 0 0 0.937255 0 0 0 0.6 0"/><feBlend in2="BackgroundImageFix" result="effect1_dropShadow"/><feBlend in="SourceGraphic" in2="effect1_dropShadow" result="shape"/><feColorMatrix in="SourceAlpha" values="0 0 0 0 0 0 0 0 0 0 0 0 0 0 0 0 0 0 127 0" result="hardAlpha"/><feOffset dx="11" dy="-20"/><feGaussianBlur stdDeviation="2"/><feComposite in2="hardAlpha" operator="arithmetic" k2="-1" k3="1"/><feColorMatrix values="0 0 0 0 0.682353 0 0 0 0 0.756863 0 0 0 0 0.831373 0 0 0 0.9 0"/><feBlend in2="shape" result="effect2_innerShadow"/><feColorMatrix in="SourceAlpha" values="0 0 0 0 0 0 0 0 0 0 0 0 0 0 0 0 0 0 127 0" result="hardAlpha"/><feOffset dx="-4" dy="-2"/><feGaussianBlur stdDeviation="1.5"/><feComposite in2="hardAlpha" operator="arithmetic" k2="-1" k3="1"/><feColorMatrix values="0 0 0 0 1 0 0 0 0 1 0 0 0 0 1 0 0 0 1 0"/><feBlend in2="effect2_innerShadow" result="effect3_innerShadow"/></filter><filter id="filter2_dii" x="-2" y="-1.594" width="53.726" height="53.483" filterUnits="userSpaceOnUse" color-interpolation-filters="sRGB"><feFlood flood-opacity="0" result="BackgroundImageFix"/><feColorMatrix in="SourceAlpha" values="0 0 0 0 0 0 0 0 0 0 0 0 0 0 0 0 0 0 127 0"/><feOffset dx="1" dy="1"/><feGaussianBlur stdDeviation="2"/><feColorMatrix values="0 0 0 0 0.85098 0 0 0 0 0.890196 0 0 0 0 0.937255 0 0 0 0.5 0"/><feBlend in2="BackgroundImageFix" result="effect1_dropShadow"/><feBlend in="SourceGraphic" in2="effect1_dropShadow" result="shape"/><feColorMatrix in="SourceAlpha" values="0 0 0 0 0 0 0 0 0 0 0 0 0 0 0 0 0 0 127 0" result="hardAlpha"/><feOffset dx="3" dy="3"/><feGaussianBlur stdDeviation="3.5"/><feComposite in2="hardAlpha" operator="arithmetic" k2="-1" k3="1"/><feColorMatrix values="0 0 0 0 0.682353 0 0 0 0 0.756863 0 0 0 0 0.831373 0 0 0 0.8 0"/><feBlend in2="shape" result="effect2_innerShadow"/><feColorMatrix in="SourceAlpha" values="0 0 0 0 0 0 0 0 0 0 0 0 0 0 0 0 0 0 127 0" result="hardAlpha"/><feOffset dx="-5" dy="-5"/><feGaussianBlur stdDeviation="2.5"/><feComposite in2="hardAlpha" operator="arithmetic" k2="-1" k3="1"/><feColorMatrix values="0 0 0 0 1 0 0 0 0 1 0 0 0 0 1 0 0 0 1 0"/><feBlend in2="effect2_innerShadow" result="effect3_innerShadow"/></filter><filter id="filter3_dii" x="19.736" y="-1.802" width="32.065" height="32.121" filterUnits="userSpaceOnUse" color-interpolation-filters="sRGB"><feFlood flood-opacity="0" result="BackgroundImageFix"/><feColorMatrix in="SourceAlpha" values="0 0 0 0 0 0 0 0 0 0 0 0 0 0 0 0 0 0 127 0"/><feOffset dx="1" dy="2"/><feGaussianBlur stdDeviation="1"/><feColorMatrix values="0 0 0 0 0.85098 0 0 0 0 0.890196 0 0 0 0 0.937255 0 0 0 0.6 0"/><feBlend in2="BackgroundImageFix" result="effect1_dropShadow"/><feBlend in="SourceGraphic" in2="effect1_dropShadow" result="shape"/><feColorMatrix in="SourceAlpha" values="0 0 0 0 0 0 0 0 0 0 0 0 0 0 0 0 0 0 127 0" result="hardAlpha"/><feOffset dx="11" dy="-20"/><feGaussianBlur stdDeviation="2"/><feComposite in2="hardAlpha" operator="arithmetic" k2="-1" k3="1"/><feColorMatrix values="0 0 0 0 0.682353 0 0 0 0 0.756863 0 0 0 0 0.831373 0 0 0 0.9 0"/><feBlend in2="shape" result="effect2_innerShadow"/><feColorMatrix in="SourceAlpha" values="0 0 0 0 0 0 0 0 0 0 0 0 0 0 0 0 0 0 127 0" result="hardAlpha"/><feOffset dx="-4" dy="-2"/><feGaussianBlur stdDeviation="1.5"/><feComposite in2="hardAlpha" operator="arithmetic" k2="-1" k3="1"/><feColorMatrix values="0 0 0 0 1 0 0 0 0 1 0 0 0 0 1 0 0 0 1 0"/><feBlend in2="effect2_innerShadow" result="effect3_innerShadow"/></filter></defs></svg>