<svg width="84" height="35" viewBox="0 0 84 35" fill="none" xmlns="http://www.w3.org/2000/svg"><path d="M65.476 0c-9.3 0-19.345 8.829-23.81 13.25C37.203 8.83 27.159 0 17.858 0 6.676 0 0 6.542 0 17.5S6.676 35 17.857 35c9.3 0 19.345-8.829 23.81-13.25C46.13 26.17 56.176 35 65.477 35c11.18 0 17.856-6.542 17.856-17.5S76.658 0 65.476 0zM17.857 29.167c-7.899 0-11.905-3.926-11.905-11.667 0-7.74 4.006-11.667 11.905-11.667 6.548 0 15.238 7.23 19.726 11.667-4.479 4.442-13.152 11.667-19.726 11.667zm47.62 0c-6.549 0-15.239-7.23-19.727-11.667 4.464-4.44 13.152-11.667 19.726-11.667 7.899 0 11.905 3.926 11.905 11.667 0 7.74-4.006 11.667-11.905 11.667z" fill="url(#paint0_linear)"/><defs><linearGradient id="paint0_linear" x1="0" y1="35" x2="89.26" y2="24.408" gradientUnits="userSpaceOnUse"><stop stop-color="#23B5FF"/><stop offset=".755" stop-color="#1B7CFF"/></linearGradient></defs></svg>