<svg width="1138" height="424" viewBox="0 0 1138 424" fill="none" xmlns="http://www.w3.org/2000/svg"><g filter="url(#filter0_dd)"><path d="M345 295.36a5 5 0 01-5 5h-37.556a5 5 0 00-5 5V357a5 5 0 01-5 5H214.19a5 5 0 01-5-5v-51.64a5 5 0 00-5-5H45a5 5 0 01-5-5v-52.738a5 5 0 01.931-2.906L182.088 42.094A4.999 4.999 0 01186.156 40h81.622c4.034 0 6.407 4.531 4.11 7.847L152.437 220.293c-2.297 3.316.076 7.847 4.11 7.847h50.387a5 5 0 005-5V178.4a5 5 0 015-5h75.51a5 5 0 015 5v44.74a5 5 0 005 5H340a5 5 0 015 5v62.22z" fill="#F4F8FC"/></g><g filter="url(#filter1_i)"><path fill-rule="evenodd" clip-rule="evenodd" d="M210.565 59.156A5 5 0 01214.677 57h10.007a1 1 0 01.821 1.57l-123.442 177.7a2.997 2.997 0 00-.536 1.711v20.591a2 2 0 002 2h144.394v-63.615a2 2 0 012-2h7.527a2 2 0 012 2v63.615H322a2 2 0 012 2v7.511a2 2 0 01-2 2h-62.552V338a2 2 0 01-2 2h-7.527a2 2 0 01-2-2v-65.918H93a3 3 0 01-3-3v-35.007c0-.406.124-.803.355-1.138l120.21-173.781z" fill="#F4F8FC"/></g><g filter="url(#filter2_dd)"><path d="M1058 295.36c0 2.761-2.24 5-5 5h-37.56c-2.76 0-5 2.239-5 5V357c0 2.761-2.23 5-5 5h-78.25a5 5 0 01-5-5v-51.64a5 5 0 00-5-5H758a5 5 0 01-5-5v-52.738c0-1.042.326-2.058.931-2.906L895.088 42.094A4.999 4.999 0 01899.156 40h81.622c4.034 0 6.407 4.531 4.11 7.847L865.437 220.293c-2.297 3.316.076 7.847 4.11 7.847h50.387a5 5 0 005-5V178.4a5 5 0 015-5h75.506c2.77 0 5 2.239 5 5v44.74c0 2.761 2.24 5 5 5H1053c2.76 0 5 2.239 5 5v62.22z" fill="#F4F8FC"/></g><g filter="url(#filter3_i)"><path fill-rule="evenodd" clip-rule="evenodd" d="M923.565 59.156A5 5 0 01927.677 57h10.007a1 1 0 01.821 1.57l-123.442 177.7a2.997 2.997 0 00-.536 1.711v20.591a2 2 0 002 2h144.394v-63.615a2 2 0 012-2h7.527a2 2 0 012 2v63.615H1035c1.1 0 2 .895 2 2v7.511c0 1.105-.9 2-2 2h-62.552V338a2 2 0 01-2 2h-7.527a2 2 0 01-2-2v-65.918H806a3 3 0 01-3-3v-35.007c0-.406.124-.803.355-1.138l120.21-173.781z" fill="#F4F8FC"/></g><g filter="url(#filter4_d)"><circle cx="548.998" cy="195.101" r="158.657" fill="url(#paint0_radial)"/></g><path d="M549.119 288.695c50.137 0 90.782-40.645 90.782-90.783 0-5.818-.547-11.508-1.593-17.022 0 0-52.699 14.889-87.298 15.131-36.056.252-91.081-15.131-91.081-15.131a91.267 91.267 0 00-1.593 17.022c0 50.138 40.645 90.783 90.783 90.783z" fill="url(#paint1_linear)"/><path fill-rule="evenodd" clip-rule="evenodd" d="M478.513 184.416a72.314 72.314 0 00-1.262 13.497c0 39.692 32.177 71.869 71.869 71.869 39.693 0 71.87-32.177 71.87-71.869 0-4.63-.435-9.14-1.262-13.497l37.164-7.05a110.204 110.204 0 011.924 20.547c0 60.583-49.112 109.695-109.696 109.695-60.583 0-109.695-49.112-109.695-109.695 0-7.007.659-13.877 1.924-20.547l37.164 7.05z" fill="url(#paint2_linear)"/><g filter="url(#filter5_i)"><path d="M579.38 231.956c0 16.713-13.548 30.261-30.261 30.261-16.712 0-30.261-13.548-30.261-30.261 0-16.712 13.549-30.26 30.261-30.26 16.713 0 30.261 13.548 30.261 30.26z" fill="#001871"/></g><g filter="url(#filter6_ii)"><path d="M579.38 231.956c0 16.713-13.548 30.261-30.261 30.261-16.712 0-30.261-13.548-30.261-30.261 0-16.712 13.549-30.261 30.261-30.261 16.713 0 30.261 13.549 30.261 30.261z" fill="#001871"/></g><path fill-rule="evenodd" clip-rule="evenodd" d="M549.061 182.782c-32.553-.01-61.121-8.202-80.942-20.444-20.13-12.433-28.694-27.126-28.694-40.078.686-18.694 6.633-59.848 75.575-82.76-14.329 3.069-74.879 18.54-106.979 82.72-3.856 7.71-4.118 16.821-1.182 24.926 7.122 19.663 22.334 35.596 41.403 47.374 26.686 16.483 62.353 26.068 100.759 26.088m.06-37.826c-.141 0 .177 0 0 0 32.552-.01 61.12-8.202 80.941-20.444 20.13-12.433 28.694-27.126 28.694-40.078-.686-18.694-6.633-59.848-75.575-82.76C597.45 42.569 658 58.04 690.1 122.22c3.856 7.71 4.118 16.821 1.182 24.926-7.122 19.663-22.334 35.596-41.403 47.374-26.686 16.483-62.473 26.068-100.878 26.088L549 201.5l.061-9.273v-9.445z" fill="url(#paint3_radial)"/><defs><filter id="filter0_dd" x="0" y="0" width="405" height="422" filterUnits="userSpaceOnUse" color-interpolation-filters="sRGB"><feFlood flood-opacity="0" result="BackgroundImageFix"/><feColorMatrix in="SourceAlpha" values="0 0 0 0 0 0 0 0 0 0 0 0 0 0 0 0 0 0 127 0"/><feOffset dx="10" dy="10"/><feGaussianBlur stdDeviation="25"/><feColorMatrix values="0 0 0 0 0.803922 0 0 0 0 0.847059 0 0 0 0 0.886275 0 0 0 0.7 0"/><feBlend in2="BackgroundImageFix" result="effect1_dropShadow"/><feColorMatrix in="SourceAlpha" values="0 0 0 0 0 0 0 0 0 0 0 0 0 0 0 0 0 0 127 0"/><feOffset dy="-15"/><feGaussianBlur stdDeviation="7.5"/><feColorMatrix values="0 0 0 0 0.981706 0 0 0 0 0.990853 0 0 0 0 1 0 0 0 1 0"/><feBlend in2="effect1_dropShadow" result="effect2_dropShadow"/><feBlend in="SourceGraphic" in2="effect2_dropShadow" result="shape"/></filter><filter id="filter1_i" x="90" y="57" width="238" height="286" filterUnits="userSpaceOnUse" color-interpolation-filters="sRGB"><feFlood flood-opacity="0" result="BackgroundImageFix"/><feBlend in="SourceGraphic" in2="BackgroundImageFix" result="shape"/><feColorMatrix in="SourceAlpha" values="0 0 0 0 0 0 0 0 0 0 0 0 0 0 0 0 0 0 127 0" result="hardAlpha"/><feOffset dx="4" dy="3"/><feGaussianBlur stdDeviation="7.5"/><feComposite in2="hardAlpha" operator="arithmetic" k2="-1" k3="1"/><feColorMatrix values="0 0 0 0 0.578462 0 0 0 0 0.683882 0 0 0 0 0.764974 0 0 0 0.6 0"/><feBlend in2="shape" result="effect1_innerShadow"/></filter><filter id="filter2_dd" x="733" y="0" width="405" height="422" filterUnits="userSpaceOnUse" color-interpolation-filters="sRGB"><feFlood flood-opacity="0" result="BackgroundImageFix"/><feColorMatrix in="SourceAlpha" values="0 0 0 0 0 0 0 0 0 0 0 0 0 0 0 0 0 0 127 0"/><feOffset dx="30" dy="10"/><feGaussianBlur stdDeviation="25"/><feColorMatrix values="0 0 0 0 0.804818 0 0 0 0 0.846192 0 0 0 0 0.887565 0 0 0 0.7 0"/><feBlend in2="BackgroundImageFix" result="effect1_dropShadow"/><feColorMatrix in="SourceAlpha" values="0 0 0 0 0 0 0 0 0 0 0 0 0 0 0 0 0 0 127 0"/><feOffset dy="-15"/><feGaussianBlur stdDeviation="7.5"/><feColorMatrix values="0 0 0 0 0.981706 0 0 0 0 0.990853 0 0 0 0 1 0 0 0 1 0"/><feBlend in2="effect1_dropShadow" result="effect2_dropShadow"/><feBlend in="SourceGraphic" in2="effect2_dropShadow" result="shape"/></filter><filter id="filter3_i" x="803" y="57" width="238" height="286" filterUnits="userSpaceOnUse" color-interpolation-filters="sRGB"><feFlood flood-opacity="0" result="BackgroundImageFix"/><feBlend in="SourceGraphic" in2="BackgroundImageFix" result="shape"/><feColorMatrix in="SourceAlpha" values="0 0 0 0 0 0 0 0 0 0 0 0 0 0 0 0 0 0 127 0" result="hardAlpha"/><feOffset dx="4" dy="3"/><feGaussianBlur stdDeviation="7.5"/><feComposite in2="hardAlpha" operator="arithmetic" k2="-1" k3="1"/><feColorMatrix values="0 0 0 0 0.578462 0 0 0 0 0.683882 0 0 0 0 0.764974 0 0 0 0.6 0"/><feBlend in2="shape" result="effect1_innerShadow"/></filter><filter id="filter4_d" x="360.341" y="26.444" width="397.315" height="397.315" filterUnits="userSpaceOnUse" color-interpolation-filters="sRGB"><feFlood flood-opacity="0" result="BackgroundImageFix"/><feColorMatrix in="SourceAlpha" values="0 0 0 0 0 0 0 0 0 0 0 0 0 0 0 0 0 0 127 0"/><feOffset dx="10" dy="30"/><feGaussianBlur stdDeviation="20"/><feColorMatrix values="0 0 0 0 0.765368 0 0 0 0 0.809524 0 0 0 0 0.85 0 0 0 1 0"/><feBlend in2="BackgroundImageFix" result="effect1_dropShadow"/><feBlend in="SourceGraphic" in2="effect1_dropShadow" result="shape"/></filter><filter id="filter5_i" x="518.858" y="201.696" width="60.522" height="64.522" filterUnits="userSpaceOnUse" color-interpolation-filters="sRGB"><feFlood flood-opacity="0" result="BackgroundImageFix"/><feBlend in="SourceGraphic" in2="BackgroundImageFix" result="shape"/><feColorMatrix in="SourceAlpha" values="0 0 0 0 0 0 0 0 0 0 0 0 0 0 0 0 0 0 127 0" result="hardAlpha"/><feOffset dy="4"/><feGaussianBlur stdDeviation="2"/><feComposite in2="hardAlpha" operator="arithmetic" k2="-1" k3="1"/><feColorMatrix values="0 0 0 0 0 0 0 0 0 0 0 0 0 0 0 0 0 0 0.25 0"/><feBlend in2="shape" result="effect1_innerShadow"/></filter><filter id="filter6_ii" x="516.858" y="199.695" width="65.522" height="65.522" filterUnits="userSpaceOnUse" color-interpolation-filters="sRGB"><feFlood flood-opacity="0" result="BackgroundImageFix"/><feBlend in="SourceGraphic" in2="BackgroundImageFix" result="shape"/><feColorMatrix in="SourceAlpha" values="0 0 0 0 0 0 0 0 0 0 0 0 0 0 0 0 0 0 127 0" result="hardAlpha"/><feOffset dx="3" dy="3"/><feGaussianBlur stdDeviation="16.5"/><feComposite in2="hardAlpha" operator="arithmetic" k2="-1" k3="1"/><feColorMatrix values="0 0 0 0 0 0 0 0 0 0.0385811 0 0 0 0 0.182617 0 0 0 1 0"/><feBlend in2="shape" result="effect1_innerShadow"/><feColorMatrix in="SourceAlpha" values="0 0 0 0 0 0 0 0 0 0 0 0 0 0 0 0 0 0 127 0" result="hardAlpha"/><feOffset dx="-2" dy="-2"/><feGaussianBlur stdDeviation="2.5"/><feComposite in2="hardAlpha" operator="arithmetic" k2="-1" k3="1"/><feColorMatrix values="0 0 0 0 0 0 0 0 0 0.103769 0 0 0 0 0.492904 0 0 0 1 0"/><feBlend in2="effect1_innerShadow" result="effect2_innerShadow"/></filter><radialGradient id="paint0_radial" cx="0" cy="0" r="1" gradientUnits="userSpaceOnUse" gradientTransform="rotate(75.433 217.799 367.8) scale(288.266)"><stop offset=".13" stop-color="#fff"/><stop offset=".417" stop-color="#F4F8FC"/><stop offset=".828" stop-color="#F4F8FC"/><stop offset="1" stop-color="#9CB0C2"/></radialGradient><radialGradient id="paint3_radial" cx="0" cy="0" r="1" gradientUnits="userSpaceOnUse" gradientTransform="rotate(-155.446 356.796 38.089) scale(280.352 450.313)"><stop stop-color="#000C3A"/><stop offset=".557" stop-color="#001D89"/><stop offset=".844" stop-color="#082489"/><stop offset="1" stop-color="#839DFF"/></radialGradient><linearGradient id="paint1_linear" x1="498" y1="208.5" x2="594.5" y2="262.5" gradientUnits="userSpaceOnUse"><stop offset=".016" stop-color="#23B5FF"/><stop offset="1" stop-color="#004698"/></linearGradient><linearGradient id="paint2_linear" x1="320" y1="115" x2="664" y2="285.5" gradientUnits="userSpaceOnUse"><stop stop-color="#526DD1"/><stop offset=".37" stop-color="#526DD1"/><stop offset=".521" stop-color="#001D88"/><stop offset=".901" stop-color="#000D3E"/></linearGradient></defs></svg>